<svg width="164.853mm" height="115.24mm" viewBox="0 0 164.853 115.24" xmlns="http://www.w3.org/2000/svg"><g id="svgGroup" stroke-linecap="round" fill-rule="evenodd" font-size="9pt" stroke="#000" stroke-width="0.25mm" fill="none" style="stroke:#000;stroke-width:0.25mm;fill:none"><path d="M 8.162 97.011 L 48.353 92.787 A 2 2 0 0 1 48.457 92.779 L 64.033 91.963 A 2 2 0 0 0 65.925 89.861 L 64.803 68.44 L 64.761 67.641 L 64.363 60.055 A 2 2 0 0 1 66.36 57.95 L 80.791 57.95 A 2 2 0 0 1 82.784 60.124 L 81.81 71.25 L 81.741 72.047 L 79.296 99.99 A 2 2 0 0 0 81.114 102.157 L 98.896 103.713 L 98.9 103.663 L 117.828 105.319 L 117.833 105.262 L 137.528 109.448 A 2 2 0 0 1 137.763 109.513 L 154.022 115.112 A 2 2 0 0 0 156.564 113.872 L 160.479 102.502 L 160.503 102.51 L 164.638 90.502 A 2 2 0 0 0 163.398 87.96 L 145.583 81.826 A 2 2 0 0 1 144.278 79.519 L 148.69 58.761 A 2 2 0 0 0 147.149 56.389 L 124.297 51.532 A 2 2 0 0 1 122.72 49.401 L 125.319 19.696 A 2 2 0 0 0 123.501 17.529 L 85.384 14.195 A 2 2 0 0 1 83.558 12.202 L 83.558 2 A 2 2 0 0 0 81.558 0 L 65.708 0 A 2 2 0 0 0 63.708 2 L 63.708 8.57 A 2 2 0 0 1 61.813 10.567 L 43.944 11.504 A 2 2 0 0 0 42.052 13.606 L 42.92 30.167 A 2 2 0 0 1 41.131 32.26 L 1.791 36.395 A 2 2 0 0 0 0.011 38.593 L 5.964 95.231 A 2 2 0 0 0 8.162 97.011 Z M 142.139 88.499 L 148.792 57.198 L 131.185 53.456 L 124.532 84.757 L 142.139 88.499 Z M 118.279 104.942 L 136.854 108.891 L 140.812 90.267 L 122.237 86.319 L 118.279 104.942 Z M 6.558 96.773 L 25.444 94.788 L 23.454 75.852 L 4.568 77.837 L 6.558 96.773 Z M 4.567 77.827 L 23.453 75.842 L 21.463 56.906 L 2.577 58.891 L 4.567 77.827 Z M 2.576 58.881 L 21.462 56.896 L 19.471 37.961 L 0.585 39.946 L 2.576 58.881 Z M 25.141 91.803 L 44.027 89.818 L 42.036 70.882 L 23.15 72.867 L 25.141 91.803 Z M 23.149 72.857 L 42.035 70.872 L 40.045 51.937 L 21.159 53.922 L 23.149 72.857 Z M 21.158 53.912 L 40.044 51.927 L 38.054 32.991 L 19.168 34.976 L 21.158 53.912 Z M 64.138 38.495 L 83.128 38.495 L 83.128 19.455 L 64.138 19.455 L 64.138 38.495 Z M 64.138 19.445 L 83.128 19.445 L 83.128 0.405 L 64.138 0.405 L 64.138 19.445 Z M 64.138 57.545 L 83.128 57.545 L 83.128 38.505 L 64.138 38.505 L 64.138 57.545 Z M 137.683 109.057 L 155.639 115.24 L 161.837 97.237 L 143.882 91.055 L 137.683 109.057 Z M 44.391 50.028 L 63.355 49.034 L 62.359 30.02 L 43.395 31.014 L 44.391 50.028 Z M 45.388 69.052 L 64.352 68.058 L 63.356 49.044 L 44.392 50.038 L 45.388 69.052 Z M 43.394 31.004 L 62.358 30.01 L 61.362 10.997 L 42.398 11.99 L 43.394 31.004 Z M 46.385 88.076 L 65.349 87.082 L 64.353 68.068 L 45.389 69.062 L 46.385 88.076 Z M 80.544 90.659 L 99.462 92.314 L 101.121 73.346 L 82.203 71.691 L 80.544 90.659 Z M 85.525 33.726 L 104.443 35.381 L 106.102 16.414 L 87.184 14.759 L 85.525 33.726 Z M 98.517 103.223 L 117.435 104.878 L 119.094 85.911 L 100.177 84.255 L 98.517 103.223 Z M 82.204 71.681 L 101.122 73.336 L 102.781 54.369 L 83.864 52.714 L 82.204 71.681 Z M 83.865 52.704 L 102.782 54.359 L 104.442 35.391 L 85.524 33.736 L 83.865 52.704 Z M 100.696 78.318 L 119.614 79.973 L 121.273 61.006 L 102.356 59.351 L 100.696 78.318 Z M 102.356 59.341 L 121.274 60.996 L 122.934 42.028 L 104.016 40.373 L 102.356 59.341 Z M 104.017 40.363 L 122.935 42.018 L 124.594 23.051 L 105.676 21.396 L 104.017 40.363 Z M 162.867 95.26 L 164.853 89.492 L 153.318 85.52 L 151.332 91.288 L 162.867 95.26 Z M 126.086 65.662 L 127.354 59.696 L 123.442 58.864 L 122.173 64.831 L 126.086 65.662 Z M 122.87 54.219 L 129.228 55.57 L 129.852 52.636 L 123.494 51.284 L 122.87 54.219 Z" vector-effect="non-scaling-stroke"/></g></svg>
