<svg width="166.294mm" height="115.448mm" viewBox="0 0 166.294 115.448" xmlns="http://www.w3.org/2000/svg"><g id="svgGroup" stroke-linecap="round" fill-rule="evenodd" font-size="9pt" stroke="#000" stroke-width="0.25mm" fill="none" style="stroke:#000;stroke-width:0.25mm;fill:none"><path d="M 146.811 53.787 A 2 2 0 0 1 148.352 56.159 L 144.299 75.226 A 2 2 0 0 0 145.604 77.532 L 164.945 84.192 A 2 2 0 0 1 166.185 86.734 L 162.05 98.742 L 162.027 98.734 L 156.736 114.099 A 2 2 0 0 1 154.194 115.339 L 137.847 109.71 A 2 2 0 0 0 137.611 109.645 L 118.033 105.483 L 118.029 105.527 L 99.101 103.871 L 99.097 103.921 L 81.116 102.348 A 2 2 0 0 1 79.297 100.181 L 81.742 72.238 L 81.829 71.242 L 82.784 60.324 A 2 2 0 0 0 80.792 58.15 L 66.576 58.15 A 2 2 0 0 0 64.579 60.255 L 64.965 67.636 L 65.018 68.635 L 66.14 90.055 A 2 2 0 0 1 64.248 92.157 L 48.575 92.979 A 2 2 0 0 0 48.47 92.987 L 8.183 97.221 A 2 2 0 0 1 5.985 95.441 L 0.011 38.604 A 2 2 0 0 1 1.791 36.406 L 41.136 32.271 A 2 2 0 0 0 42.925 30.177 L 42.057 13.611 A 2 2 0 0 1 43.949 11.509 L 61.823 10.572 A 2 2 0 0 0 63.718 8.575 L 63.718 2 A 2 2 0 0 1 65.718 0 L 81.768 0 A 2 2 0 0 1 83.768 2 L 83.768 12.211 A 2 2 0 0 0 85.594 14.203 L 123.719 17.539 A 2 2 0 0 1 125.537 19.705 L 123.616 41.671 L 123.528 42.668 L 123.153 46.963 A 2 2 0 0 0 124.729 49.093 L 148.499 54.145 L 141.014 89.359 L 121.451 85.201 L 128.936 49.987 M 118.389 105.042 L 136.964 108.991 L 140.922 90.367 L 122.347 86.419 L 118.389 105.042 Z M 6.668 96.873 L 25.554 94.888 L 23.564 75.952 L 4.678 77.937 L 6.668 96.873 Z M 4.677 77.927 L 23.563 75.942 L 21.573 57.006 L 2.687 58.991 L 4.677 77.927 Z M 2.686 58.981 L 21.572 56.996 L 19.581 38.061 L 0.695 40.046 L 2.686 58.981 Z M 25.25 91.903 L 44.136 89.918 L 42.146 70.982 L 23.26 72.967 L 25.25 91.903 Z M 23.259 72.957 L 42.145 70.972 L 40.155 52.037 L 21.269 54.022 L 23.259 72.957 Z M 21.268 54.012 L 40.154 52.027 L 38.164 33.091 L 19.278 35.076 L 21.268 54.012 Z M 64.248 38.595 L 83.238 38.595 L 83.238 19.555 L 64.248 19.555 L 64.248 38.595 Z M 64.248 19.545 L 83.238 19.545 L 83.238 0.505 L 64.248 0.505 L 64.248 19.545 Z M 64.248 57.645 L 83.238 57.645 L 83.238 38.605 L 64.248 38.605 L 64.248 57.645 Z M 137.793 109.157 L 155.748 115.34 L 161.947 97.337 L 143.992 91.155 L 137.793 109.157 Z M 44.501 50.128 L 63.465 49.134 L 62.469 30.12 L 43.505 31.114 L 44.501 50.128 Z M 45.498 69.152 L 64.462 68.158 L 63.466 49.144 L 44.502 50.138 L 45.498 69.152 Z M 43.504 31.104 L 62.468 30.11 L 61.472 11.097 L 42.508 12.09 L 43.504 31.104 Z M 46.495 88.176 L 65.459 87.182 L 64.463 68.168 L 45.499 69.162 L 46.495 88.176 Z M 80.654 90.759 L 99.572 92.414 L 101.231 73.446 L 82.313 71.791 L 80.654 90.759 Z M 85.635 33.826 L 104.553 35.481 L 106.212 16.514 L 87.294 14.859 L 85.635 33.826 Z M 98.627 103.323 L 117.545 104.978 L 119.204 86.011 L 100.287 84.355 L 98.627 103.323 Z M 82.314 71.781 L 101.232 73.436 L 102.891 54.469 L 83.974 52.814 L 82.314 71.781 Z M 83.974 52.804 L 102.892 54.459 L 104.552 35.491 L 85.634 33.836 L 83.974 52.804 Z M 100.806 78.418 L 119.724 80.073 L 121.383 61.106 L 102.466 59.451 L 100.806 78.418 Z M 102.466 59.441 L 121.384 61.096 L 123.044 42.128 L 104.126 40.473 L 102.466 59.441 Z M 104.127 40.463 L 123.044 42.118 L 124.704 23.151 L 105.786 21.496 L 104.127 40.463 Z M 163.072 95.392 L 165.058 89.625 L 153.522 85.653 L 151.536 91.42 L 163.072 95.392 Z M 148.6 88.506 L 150.586 82.738 L 146.804 81.436 L 144.818 87.204 L 148.6 88.506 Z M 154.034 83.476 L 160.653 85.755 L 161.629 82.918 L 155.011 80.639 L 154.034 83.476 Z" vector-effect="non-scaling-stroke"/></g></svg>