%TF.GenerationSoftware,KiCad,Pcbnew,(6.0.7-1)-1*%
%TF.CreationDate,2022-09-15T10:51:20-04:00*%
%TF.ProjectId,skyline_pcb_exp_bottom_plate,736b796c-696e-4655-9f70-63625f657870,v1.0.0*%
%TF.SameCoordinates,Original*%
%TF.FileFunction,Legend,Top*%
%TF.FilePolarity,Positive*%
%FSLAX46Y46*%
G04 Gerber Fmt 4.6, Leading zero omitted, Abs format (unit mm)*
G04 Created by KiCad (PCBNEW (6.0.7-1)-1) date 2022-09-15 10:51:20*
%MOMM*%
%LPD*%
G01*
G04 APERTURE LIST*
%ADD10C,0.150000*%
G04 APERTURE END LIST*
D10*
%TO.C,REF\u002A\u002A*%
X122681888Y-230309743D02*
X122348555Y-229833553D01*
X122110460Y-230309743D02*
X122110460Y-229309743D01*
X122491412Y-229309743D01*
X122586650Y-229357363D01*
X122634269Y-229404982D01*
X122681888Y-229500220D01*
X122681888Y-229643077D01*
X122634269Y-229738315D01*
X122586650Y-229785934D01*
X122491412Y-229833553D01*
X122110460Y-229833553D01*
X123110460Y-229785934D02*
X123443793Y-229785934D01*
X123586650Y-230309743D02*
X123110460Y-230309743D01*
X123110460Y-229309743D01*
X123586650Y-229309743D01*
X124348555Y-229785934D02*
X124015222Y-229785934D01*
X124015222Y-230309743D02*
X124015222Y-229309743D01*
X124491412Y-229309743D01*
X125015222Y-229309743D02*
X125015222Y-229547839D01*
X124777126Y-229452601D02*
X125015222Y-229547839D01*
X125253317Y-229452601D01*
X124872364Y-229738315D02*
X125015222Y-229547839D01*
X125158079Y-229738315D01*
X125777126Y-229309743D02*
X125777126Y-229547839D01*
X125539031Y-229452601D02*
X125777126Y-229547839D01*
X126015222Y-229452601D01*
X125634269Y-229738315D02*
X125777126Y-229547839D01*
X125919983Y-229738315D01*
X157330339Y-249347354D02*
X156997006Y-248871164D01*
X156758911Y-249347354D02*
X156758911Y-248347354D01*
X157139863Y-248347354D01*
X157235101Y-248394974D01*
X157282720Y-248442593D01*
X157330339Y-248537831D01*
X157330339Y-248680688D01*
X157282720Y-248775926D01*
X157235101Y-248823545D01*
X157139863Y-248871164D01*
X156758911Y-248871164D01*
X157758911Y-248823545D02*
X158092244Y-248823545D01*
X158235101Y-249347354D02*
X157758911Y-249347354D01*
X157758911Y-248347354D01*
X158235101Y-248347354D01*
X158997006Y-248823545D02*
X158663673Y-248823545D01*
X158663673Y-249347354D02*
X158663673Y-248347354D01*
X159139863Y-248347354D01*
X159663673Y-248347354D02*
X159663673Y-248585450D01*
X159425577Y-248490212D02*
X159663673Y-248585450D01*
X159901768Y-248490212D01*
X159520815Y-248775926D02*
X159663673Y-248585450D01*
X159806530Y-248775926D01*
X160425577Y-248347354D02*
X160425577Y-248585450D01*
X160187482Y-248490212D02*
X160425577Y-248585450D01*
X160663673Y-248490212D01*
X160282720Y-248775926D02*
X160425577Y-248585450D01*
X160568434Y-248775926D01*
X113795790Y-158208057D02*
X113462457Y-157731867D01*
X113224362Y-158208057D02*
X113224362Y-157208057D01*
X113605314Y-157208057D01*
X113700552Y-157255677D01*
X113748171Y-157303296D01*
X113795790Y-157398534D01*
X113795790Y-157541391D01*
X113748171Y-157636629D01*
X113700552Y-157684248D01*
X113605314Y-157731867D01*
X113224362Y-157731867D01*
X114224362Y-157684248D02*
X114557695Y-157684248D01*
X114700552Y-158208057D02*
X114224362Y-158208057D01*
X114224362Y-157208057D01*
X114700552Y-157208057D01*
X115462457Y-157684248D02*
X115129124Y-157684248D01*
X115129124Y-158208057D02*
X115129124Y-157208057D01*
X115605314Y-157208057D01*
X116129124Y-157208057D02*
X116129124Y-157446153D01*
X115891028Y-157350915D02*
X116129124Y-157446153D01*
X116367219Y-157350915D01*
X115986266Y-157636629D02*
X116129124Y-157446153D01*
X116271981Y-157636629D01*
X116891028Y-157208057D02*
X116891028Y-157446153D01*
X116652933Y-157350915D02*
X116891028Y-157446153D01*
X117129124Y-157350915D01*
X116748171Y-157636629D02*
X116891028Y-157446153D01*
X117033885Y-157636629D01*
X197485790Y-165168057D02*
X197152457Y-164691867D01*
X196914362Y-165168057D02*
X196914362Y-164168057D01*
X197295314Y-164168057D01*
X197390552Y-164215677D01*
X197438171Y-164263296D01*
X197485790Y-164358534D01*
X197485790Y-164501391D01*
X197438171Y-164596629D01*
X197390552Y-164644248D01*
X197295314Y-164691867D01*
X196914362Y-164691867D01*
X197914362Y-164644248D02*
X198247695Y-164644248D01*
X198390552Y-165168057D02*
X197914362Y-165168057D01*
X197914362Y-164168057D01*
X198390552Y-164168057D01*
X199152457Y-164644248D02*
X198819124Y-164644248D01*
X198819124Y-165168057D02*
X198819124Y-164168057D01*
X199295314Y-164168057D01*
X199819124Y-164168057D02*
X199819124Y-164406153D01*
X199581028Y-164310915D02*
X199819124Y-164406153D01*
X200057219Y-164310915D01*
X199676266Y-164596629D02*
X199819124Y-164406153D01*
X199961981Y-164596629D01*
X200581028Y-164168057D02*
X200581028Y-164406153D01*
X200342933Y-164310915D02*
X200581028Y-164406153D01*
X200819124Y-164310915D01*
X200438171Y-164596629D02*
X200581028Y-164406153D01*
X200723885Y-164596629D01*
X156885790Y-212868057D02*
X156552457Y-212391867D01*
X156314362Y-212868057D02*
X156314362Y-211868057D01*
X156695314Y-211868057D01*
X156790552Y-211915677D01*
X156838171Y-211963296D01*
X156885790Y-212058534D01*
X156885790Y-212201391D01*
X156838171Y-212296629D01*
X156790552Y-212344248D01*
X156695314Y-212391867D01*
X156314362Y-212391867D01*
X157314362Y-212344248D02*
X157647695Y-212344248D01*
X157790552Y-212868057D02*
X157314362Y-212868057D01*
X157314362Y-211868057D01*
X157790552Y-211868057D01*
X158552457Y-212344248D02*
X158219124Y-212344248D01*
X158219124Y-212868057D02*
X158219124Y-211868057D01*
X158695314Y-211868057D01*
X159219124Y-211868057D02*
X159219124Y-212106153D01*
X158981028Y-212010915D02*
X159219124Y-212106153D01*
X159457219Y-212010915D01*
X159076266Y-212296629D02*
X159219124Y-212106153D01*
X159361981Y-212296629D01*
X159981028Y-211868057D02*
X159981028Y-212106153D01*
X159742933Y-212010915D02*
X159981028Y-212106153D01*
X160219124Y-212010915D01*
X159838171Y-212296629D02*
X159981028Y-212106153D01*
X160123885Y-212296629D01*
X194060506Y-138184369D02*
X193727173Y-137708179D01*
X193489078Y-138184369D02*
X193489078Y-137184369D01*
X193870030Y-137184369D01*
X193965268Y-137231989D01*
X194012887Y-137279608D01*
X194060506Y-137374846D01*
X194060506Y-137517703D01*
X194012887Y-137612941D01*
X193965268Y-137660560D01*
X193870030Y-137708179D01*
X193489078Y-137708179D01*
X194489078Y-137660560D02*
X194822411Y-137660560D01*
X194965268Y-138184369D02*
X194489078Y-138184369D01*
X194489078Y-137184369D01*
X194965268Y-137184369D01*
X195727173Y-137660560D02*
X195393840Y-137660560D01*
X195393840Y-138184369D02*
X195393840Y-137184369D01*
X195870030Y-137184369D01*
X196393840Y-137184369D02*
X196393840Y-137422465D01*
X196155744Y-137327227D02*
X196393840Y-137422465D01*
X196631935Y-137327227D01*
X196250982Y-137612941D02*
X196393840Y-137422465D01*
X196536697Y-137612941D01*
X197155744Y-137184369D02*
X197155744Y-137422465D01*
X196917649Y-137327227D02*
X197155744Y-137422465D01*
X197393840Y-137327227D01*
X197012887Y-137612941D02*
X197155744Y-137422465D01*
X197298601Y-137612941D01*
X133785790Y-198468057D02*
X133452457Y-197991867D01*
X133214362Y-198468057D02*
X133214362Y-197468057D01*
X133595314Y-197468057D01*
X133690552Y-197515677D01*
X133738171Y-197563296D01*
X133785790Y-197658534D01*
X133785790Y-197801391D01*
X133738171Y-197896629D01*
X133690552Y-197944248D01*
X133595314Y-197991867D01*
X133214362Y-197991867D01*
X134214362Y-197944248D02*
X134547695Y-197944248D01*
X134690552Y-198468057D02*
X134214362Y-198468057D01*
X134214362Y-197468057D01*
X134690552Y-197468057D01*
X135452457Y-197944248D02*
X135119124Y-197944248D01*
X135119124Y-198468057D02*
X135119124Y-197468057D01*
X135595314Y-197468057D01*
X136119124Y-197468057D02*
X136119124Y-197706153D01*
X135881028Y-197610915D02*
X136119124Y-197706153D01*
X136357219Y-197610915D01*
X135976266Y-197896629D02*
X136119124Y-197706153D01*
X136261981Y-197896629D01*
X136881028Y-197468057D02*
X136881028Y-197706153D01*
X136642933Y-197610915D02*
X136881028Y-197706153D01*
X137119124Y-197610915D01*
X136738171Y-197896629D02*
X136881028Y-197706153D01*
X137023885Y-197896629D01*
%TD*%
M02*
