M48
; DRILL file {KiCad (6.0.7-1)-1} date Thursday, September 15, 2022 at 11:19:31 AM
; FORMAT={-:-/ absolute / inch / decimal}
; #@! TF.CreationDate,2022-09-15T11:19:31-04:00
; #@! TF.GenerationSoftware,Kicad,Pcbnew,(6.0.7-1)-1
; #@! TF.FileFunction,Plated,1,2,PTH
FMAT,2
INCH
; #@! TA.AperFunction,Plated,PTH,ComponentDrill
T1C0.0320
; #@! TA.AperFunction,Plated,PTH,ComponentDrill
T2C0.0354
; #@! TA.AperFunction,Plated,PTH,ComponentDrill
T3C0.0390
; #@! TA.AperFunction,Plated,PTH,ComponentDrill
T4C0.0394
; #@! TA.AperFunction,Plated,PTH,ComponentDrill
T5C0.0430
; #@! TA.AperFunction,Plated,PTH,ComponentDrill
T6C0.0500
; #@! TA.AperFunction,Plated,PTH,ComponentDrill
T7C0.0512
; #@! TA.AperFunction,Plated,PTH,ComponentDrill
T8C0.1260
%
G90
G05
T1
X6.1208Y-6.2677
X6.1742Y-6.4604
X6.2417Y-6.2349
X6.2952Y-6.4276
T3
X6.0659Y-6.6369
X6.3495Y-6.5392
X6.8825Y-6.4077
X7.1759Y-6.3454
T4
X6.2578Y-5.0568
X6.3556Y-5.036
X6.4534Y-5.0152
X6.5512Y-4.9944
T5
X6.0841Y-5.0031
X6.1049Y-5.1009
X6.1257Y-5.1987
X6.1465Y-5.2965
X6.1673Y-5.3943
X6.1881Y-5.4921
X6.2089Y-5.5899
X6.2297Y-5.6878
X6.2504Y-5.7856
X6.2712Y-5.8834
X6.292Y-5.9812
X6.3128Y-6.079
X6.671Y-4.8783
X6.6918Y-4.9761
X6.7126Y-5.0739
X6.7334Y-5.1718
X6.7542Y-5.2696
X6.775Y-5.3674
X6.7957Y-5.4652
X6.8165Y-5.563
X6.8373Y-5.6608
X6.8581Y-5.7586
X6.8789Y-5.8565
X6.8997Y-5.9543
T6
X5.8845Y-7.2459
X6.0975Y-7.26
X6.6563Y-7.0094
X6.866Y-7.0494
X7.2487Y-4.5548
X7.3071Y-5.2215
X7.3654Y-5.8883
X7.4512Y-6.8688
X7.452Y-4.62
X7.5104Y-5.2867
X7.5687Y-5.9535
X7.6545Y-6.934
X7.9838Y-4.3739
X8.0421Y-5.0406
X8.1005Y-5.7074
X8.1588Y-6.3741
X8.1871Y-4.4391
X8.2454Y-5.1058
X8.3038Y-5.7726
X8.3621Y-6.4393
X8.8221Y-3.6812
X8.8221Y-4.3505
X8.8221Y-5.0198
X9.019Y-3.7639
X9.019Y-4.4332
X9.019Y-5.1025
X9.5337Y-6.1923
X9.5687Y-5.5239
X9.6037Y-4.8555
X9.6387Y-4.1871
X9.7259Y-6.2851
X9.7609Y-5.6168
X9.796Y-4.9484
X9.831Y-4.28
X10.3842Y-6.3101
X10.4541Y-5.6445
X10.5241Y-4.9789
X10.5713Y-6.4129
X10.6412Y-5.7473
X10.7112Y-5.0817
X11.1157Y-6.5058
X11.1857Y-5.8402
X11.2557Y-5.1746
X11.3029Y-6.6086
X11.3728Y-5.943
X11.4428Y-5.2774
T7
X5.9281Y-4.995
X5.9813Y-5.2453
T8
X6.9678Y-5.1182
X7.1027Y-4.0559
X8.5662Y-6.7679
X9.4757Y-6.4293
X10.2627Y-4.8442
T2
G00X5.5135Y-6.5508
M15
G01X5.5358Y-6.5431
M16
G05
G00X5.6251Y-6.5123
M15
G01X5.6475Y-6.5046
M16
G05
G00X5.774Y-6.4611
M15
G01X5.7964Y-6.4534
M16
G05
G00X5.8739Y-6.6182
M15
G01X5.8963Y-6.6105
M16
G05
T0
M30
