%TF.GenerationSoftware,KiCad,Pcbnew,(6.0.7-1)-1*%
%TF.CreationDate,2022-09-15T11:19:35-04:00*%
%TF.ProjectId,skyline_pcb_right,736b796c-696e-4655-9f70-63625f726967,v1.0.0*%
%TF.SameCoordinates,Original*%
%TF.FileFunction,Paste,Bot*%
%TF.FilePolarity,Positive*%
%FSLAX46Y46*%
G04 Gerber Fmt 4.6, Leading zero omitted, Abs format (unit mm)*
G04 Created by KiCad (PCBNEW (6.0.7-1)-1) date 2022-09-15 11:19:35*
%MOMM*%
%LPD*%
G01*
G04 APERTURE LIST*
G04 Aperture macros list*
%AMRotRect*
0 Rectangle, with rotation*
0 The origin of the aperture is its center*
0 $1 length*
0 $2 width*
0 $3 Rotation angle, in degrees counterclockwise*
0 Add horizontal line*
21,1,$1,$2,0,0,$3*%
G04 Aperture macros list end*
%ADD10RotRect,2.600000X2.600000X12.000000*%
%ADD11RotRect,2.600000X2.600000X19.000000*%
%ADD12RotRect,2.600000X2.600000X357.000000*%
%ADD13RotRect,2.600000X2.600000X354.000000*%
%ADD14RotRect,0.900000X1.200000X95.000000*%
%ADD15RotRect,2.600000X2.600000X5.000000*%
%ADD16R,2.600000X2.600000*%
%ADD17RotRect,0.900000X1.200000X84.000000*%
%ADD18RotRect,0.900000X1.200000X12.000000*%
%ADD19R,1.200000X0.900000*%
%ADD20RotRect,0.900000X1.200000X87.000000*%
%ADD21RotRect,0.900000X1.200000X19.000000*%
G04 APERTURE END LIST*
D10*
%TO.C,S43*%
X168729851Y-168144004D03*
X180484862Y-167894548D03*
%TD*%
D11*
%TO.C,S45*%
X147921845Y-174266181D03*
X159558835Y-172586010D03*
%TD*%
D12*
%TO.C,S19*%
X247057013Y-96707156D03*
X258476045Y-99508621D03*
%TD*%
D13*
%TO.C,S1*%
X285074642Y-155731079D03*
X296331407Y-159126331D03*
%TD*%
%TO.C,S11*%
X270046279Y-116947728D03*
X281303044Y-120342980D03*
%TD*%
D14*
%TO.C,D14*%
X181230366Y-122418600D03*
X180942752Y-119131158D03*
%TD*%
D15*
%TO.C,S37*%
X186468321Y-122763140D03*
X198166112Y-123948119D03*
%TD*%
D16*
%TO.C,S23*%
X225807503Y-100753441D03*
X237357503Y-102953441D03*
%TD*%
D17*
%TO.C,D1*%
X280409252Y-154015803D03*
X280754196Y-150733881D03*
%TD*%
D18*
%TO.C,D16*%
X176927966Y-162307598D03*
X180155854Y-161621490D03*
%TD*%
D13*
%TO.C,S5*%
X288628610Y-121917335D03*
X299885375Y-125312587D03*
%TD*%
D15*
%TO.C,S35*%
X187949969Y-139698450D03*
X199647760Y-140883429D03*
%TD*%
D14*
%TO.C,D12*%
X199876192Y-117784712D03*
X199588578Y-114497270D03*
%TD*%
D16*
%TO.C,S25*%
X225807503Y-83753441D03*
X237357503Y-85953441D03*
%TD*%
D15*
%TO.C,S39*%
X184986673Y-105827830D03*
X196684464Y-107012809D03*
%TD*%
D16*
%TO.C,S21*%
X225807503Y-117753441D03*
X237357503Y-119953441D03*
%TD*%
D19*
%TO.C,D8*%
X220271806Y-116738220D03*
X220271806Y-113438220D03*
%TD*%
D12*
%TO.C,S17*%
X246167302Y-113683858D03*
X257586334Y-116485323D03*
%TD*%
D20*
%TO.C,D7*%
X240995417Y-112584894D03*
X241168125Y-109289416D03*
%TD*%
D15*
%TO.C,S31*%
X205138911Y-118168407D03*
X216836702Y-119353386D03*
%TD*%
%TO.C,S27*%
X208102206Y-152039027D03*
X219799997Y-153224006D03*
%TD*%
D21*
%TO.C,D17*%
X156115667Y-167873596D03*
X159235879Y-166799222D03*
%TD*%
D13*
%TO.C,S3*%
X286851626Y-138824207D03*
X298108391Y-142219459D03*
%TD*%
D14*
%TO.C,D11*%
X201431365Y-134608159D03*
X201143751Y-131320717D03*
%TD*%
D15*
%TO.C,S41*%
X190128862Y-164603318D03*
X201826653Y-165788297D03*
%TD*%
D17*
%TO.C,D4*%
X263393404Y-132329433D03*
X263738348Y-129047511D03*
%TD*%
D20*
%TO.C,D6*%
X240324663Y-129502799D03*
X240497371Y-126207321D03*
%TD*%
D14*
%TO.C,D15*%
X188236018Y-159459123D03*
X187948404Y-156171681D03*
%TD*%
D17*
%TO.C,D2*%
X282025458Y-137322824D03*
X282370402Y-134040902D03*
%TD*%
D15*
%TO.C,S29*%
X206620558Y-135103717D03*
X218318349Y-136288696D03*
%TD*%
D12*
%TO.C,S15*%
X245277590Y-130660560D03*
X256696622Y-133462025D03*
%TD*%
D19*
%TO.C,D9*%
X220586513Y-99768303D03*
X220586513Y-96468303D03*
%TD*%
D15*
%TO.C,S33*%
X203657263Y-101233097D03*
X215355054Y-102418076D03*
%TD*%
D17*
%TO.C,D3*%
X261553614Y-149320526D03*
X261898558Y-146038604D03*
%TD*%
D14*
%TO.C,D13*%
X182720931Y-139261977D03*
X182433317Y-135974535D03*
%TD*%
D20*
%TO.C,D5*%
X239430325Y-146495231D03*
X239603033Y-143199753D03*
%TD*%
D13*
%TO.C,S7*%
X266492311Y-150761472D03*
X277749076Y-154156724D03*
%TD*%
D12*
%TO.C,S13*%
X244387879Y-147637263D03*
X255806911Y-150438728D03*
%TD*%
D13*
%TO.C,S9*%
X268269295Y-133854600D03*
X279526060Y-137249852D03*
%TD*%
D14*
%TO.C,D10*%
X202904808Y-151468827D03*
X202617194Y-148181385D03*
%TD*%
M02*
