M48
; DRILL file {KiCad (6.0.7-1)-1} date Thursday, September 15, 2022 at 11:19:31 AM
; FORMAT={-:-/ absolute / inch / decimal}
; #@! TF.CreationDate,2022-09-15T11:19:31-04:00
; #@! TF.GenerationSoftware,Kicad,Pcbnew,(6.0.7-1)-1
; #@! TF.FileFunction,NonPlated,1,2,NPTH
FMAT,2
INCH
; #@! TA.AperFunction,NonPlated,NPTH,ComponentDrill
T1C0.0354
; #@! TA.AperFunction,NonPlated,NPTH,ComponentDrill
T2C0.0591
; #@! TA.AperFunction,NonPlated,NPTH,ComponentDrill
T3C0.0670
; #@! TA.AperFunction,NonPlated,NPTH,ComponentDrill
T4C0.1181
; #@! TA.AperFunction,NonPlated,NPTH,ComponentDrill
T5C0.1350
%
G90
G05
T1
X6.8566Y-4.7458
X6.9721Y-4.7212
T2
X5.4945Y-6.6531
X5.7551Y-6.5633
T3
X5.8171Y-7.1109
X5.8171Y-7.1109
X6.2266Y-6.9699
X6.2266Y-6.9699
X6.6059Y-6.8672
X6.6059Y-6.8672
X7.0295Y-6.7771
X7.0295Y-6.7771
X7.2161Y-4.4074
X7.2161Y-4.4074
X7.2744Y-5.0742
X7.2744Y-5.0742
X7.3328Y-5.7409
X7.3328Y-5.7409
X7.4185Y-6.7214
X7.4185Y-6.7214
X7.6475Y-4.3697
X7.6475Y-4.3697
X7.7058Y-5.0364
X7.7058Y-5.0364
X7.7642Y-5.7032
X7.7642Y-5.7032
X7.85Y-6.6837
X7.85Y-6.6837
X7.9512Y-4.2266
X7.9512Y-4.2266
X8.0095Y-4.8933
X8.0095Y-4.8933
X8.0678Y-5.56
X8.0678Y-5.56
X8.1262Y-6.2268
X8.1262Y-6.2268
X8.3826Y-4.1888
X8.3826Y-4.1888
X8.4409Y-4.8556
X8.4409Y-4.8556
X8.4992Y-5.5223
X8.4992Y-5.5223
X8.5576Y-6.189
X8.5576Y-6.189
X8.8025Y-3.5316
X8.8025Y-3.5316
X8.8025Y-4.2009
X8.8025Y-4.2009
X8.8025Y-4.8702
X8.8025Y-4.8702
X9.2355Y-3.5316
X9.2355Y-3.5316
X9.2355Y-4.2009
X9.2355Y-4.2009
X9.2355Y-4.8702
X9.2355Y-4.8702
X9.5218Y-6.0418
X9.5218Y-6.0418
X9.5569Y-5.3735
X9.5569Y-5.3735
X9.5919Y-4.7051
X9.5919Y-4.7051
X9.6269Y-4.0367
X9.6269Y-4.0367
X9.9543Y-6.0645
X9.9543Y-6.0645
X9.9893Y-5.3961
X9.9893Y-5.3961
X10.0244Y-4.7278
X10.0244Y-4.7278
X10.0594Y-4.0594
X10.0594Y-4.0594
X10.3802Y-6.1593
X10.3802Y-6.1593
X10.4502Y-5.4937
X10.4502Y-5.4937
X10.5201Y-4.8281
X10.5201Y-4.8281
X10.8109Y-6.2046
X10.8109Y-6.2046
X10.8809Y-5.5389
X10.8809Y-5.5389
X10.9508Y-4.8733
X10.9508Y-4.8733
X11.1118Y-6.355
X11.1118Y-6.355
X11.1818Y-5.6893
X11.1818Y-5.6893
X11.2517Y-5.0237
X11.2517Y-5.0237
X11.5425Y-6.4002
X11.5425Y-6.4002
X11.6125Y-5.7346
X11.6125Y-5.7346
X11.6824Y-5.069
X11.6824Y-5.069
T4
X5.9456Y-6.8189
X6.1599Y-6.8367
X6.769Y-6.593
X6.9796Y-6.6368
X7.4114Y-4.1552
X7.4697Y-4.822
X7.5281Y-5.4887
X7.6138Y-6.4692
X7.615Y-4.2243
X7.6734Y-4.8911
X7.7317Y-5.5578
X7.8175Y-6.5383
X8.1464Y-3.9743
X8.2048Y-4.6411
X8.2631Y-5.3078
X8.3214Y-5.9746
X8.3501Y-4.0434
X8.4084Y-4.7102
X8.4668Y-5.3769
X8.5251Y-6.0437
X9.019Y-3.2974
X9.019Y-3.9667
X9.019Y-4.636
X9.2158Y-3.384
X9.2158Y-4.0533
X9.2158Y-4.7226
X9.7503Y-5.8192
X9.7854Y-5.1509
X9.8204Y-4.4825
X9.8554Y-3.8141
X9.9424Y-5.916
X9.9774Y-5.2477
X10.0124Y-4.5793
X10.0475Y-3.9109
X10.6201Y-5.949
X10.69Y-5.2833
X10.76Y-4.6177
X10.8068Y-6.0557
X10.8767Y-5.3901
X10.9467Y-4.7244
X11.3516Y-6.1446
X11.4216Y-5.479
X11.4916Y-4.8134
X11.5384Y-6.2513
X11.6083Y-5.5857
X11.6783Y-4.9201
T5
X6.0219Y-7.0404
X6.0219Y-7.0404
X6.8177Y-6.8222
X6.8177Y-6.8222
X7.4318Y-4.3886
X7.4318Y-4.3886
X7.4901Y-5.0553
X7.4901Y-5.0553
X7.5485Y-5.7221
X7.5485Y-5.7221
X7.6343Y-6.7026
X7.6343Y-6.7026
X8.1669Y-4.2077
X8.1669Y-4.2077
X8.2252Y-4.8744
X8.2252Y-4.8744
X8.2835Y-5.5412
X8.2835Y-5.5412
X8.3419Y-6.2079
X8.3419Y-6.2079
X9.019Y-3.5316
X9.019Y-3.5316
X9.019Y-4.2009
X9.019Y-4.2009
X9.019Y-4.8702
X9.019Y-4.8702
X9.7381Y-6.0532
X9.7381Y-6.0532
X9.7731Y-5.3848
X9.7731Y-5.3848
X9.8081Y-4.7164
X9.8081Y-4.7164
X9.8432Y-4.048
X9.8432Y-4.048
X10.5956Y-6.1819
X10.5956Y-6.1819
X10.6655Y-5.5163
X10.6655Y-5.5163
X10.7355Y-4.8507
X10.7355Y-4.8507
X11.3272Y-6.3776
X11.3272Y-6.3776
X11.3971Y-5.712
X11.3971Y-5.712
X11.4671Y-5.0463
X11.4671Y-5.0463
T0
M30
