%TF.GenerationSoftware,KiCad,Pcbnew,(6.0.7-1)-1*%
%TF.CreationDate,2022-09-15T11:19:35-04:00*%
%TF.ProjectId,skyline_pcb_right,736b796c-696e-4655-9f70-63625f726967,v1.0.0*%
%TF.SameCoordinates,Original*%
%TF.FileFunction,Profile,NP*%
%FSLAX46Y46*%
G04 Gerber Fmt 4.6, Leading zero omitted, Abs format (unit mm)*
G04 Created by KiCad (PCBNEW (6.0.7-1)-1) date 2022-09-15 11:19:35*
%MOMM*%
%LPD*%
G01*
G04 APERTURE LIST*
%TA.AperFunction,Profile*%
%ADD10C,0.150000*%
%TD*%
G04 APERTURE END LIST*
D10*
X141125464Y-178562961D02*
X141220016Y-178530404D01*
X146937292Y-126821945D02*
X153341655Y-156952107D01*
X221396754Y-176925042D02*
G75*
G03*
X223214832Y-174758328I-174254J1992342D01*
G01*
X238882503Y-82703441D02*
X238882503Y-91326634D01*
X148477756Y-124449792D02*
G75*
G03*
X146937292Y-126821945I415844J-1956308D01*
G01*
X238526216Y-134808110D02*
G75*
G03*
X236529013Y-132703441I-1997216J104710D01*
G01*
X220861627Y-147861071D02*
X220948782Y-148857266D01*
X221282503Y-80703441D02*
X236882503Y-80703441D01*
X259434595Y-110357073D02*
X260169047Y-96342888D01*
X177436186Y-102422942D02*
X178645200Y-116242043D01*
X152036497Y-159258971D02*
G75*
G03*
X153341655Y-156952107I-651197J1891071D01*
G01*
X136990748Y-166554875D02*
X141125464Y-178562961D01*
X144833799Y-189025669D02*
G75*
G03*
X147375996Y-190265561I1891101J651269D01*
G01*
X147375996Y-190265561D02*
X164704714Y-184298805D01*
X277321043Y-169948492D02*
X294526272Y-171756834D01*
X164940027Y-184233547D02*
X184234874Y-180132301D01*
X238031446Y-144249950D02*
X238526272Y-134808113D01*
X221718123Y-132703441D02*
X236529013Y-132703441D01*
X302107535Y-118758964D02*
G75*
G03*
X300327601Y-116560869I-1989035J209064D01*
G01*
X164940027Y-184233548D02*
G75*
G03*
X164704714Y-184298805I415473J-1955052D01*
G01*
X238856380Y-166723924D02*
X254331332Y-167534932D01*
X237979110Y-145248580D02*
X238031446Y-144249950D01*
X184236077Y-180146052D02*
X184234874Y-180132301D01*
X221282503Y-80703503D02*
G75*
G03*
X219282503Y-82703441I-103J-1999897D01*
G01*
X238882559Y-82703441D02*
G75*
G03*
X236882503Y-80703441I-1999959J41D01*
G01*
X254435717Y-167543147D02*
G75*
G03*
X254331332Y-167534932I-209217J-1991253D01*
G01*
X259434590Y-110357073D02*
G75*
G03*
X261222797Y-112450788I1997310J-104627D01*
G01*
X179254264Y-100256241D02*
X197185768Y-98687438D01*
X221718124Y-132703428D02*
G75*
G03*
X219725733Y-134877752I76J-2000072D01*
G01*
X177068634Y-118372649D02*
X148477764Y-124449826D01*
X197185768Y-98687438D02*
X197190126Y-98737247D01*
X141220016Y-178530404D02*
X144833822Y-189025661D01*
X238882561Y-91326634D02*
G75*
G03*
X240777831Y-93323893I2000039J34D01*
G01*
X219282503Y-82703441D02*
X219282503Y-94971752D01*
X177068652Y-118372733D02*
G75*
G03*
X178645200Y-116242043I-415752J1956233D01*
G01*
X260169041Y-96342888D02*
G75*
G03*
X258276460Y-94240957I-1997241J104688D01*
G01*
X184236077Y-180146052D02*
X204159971Y-178402937D01*
X261222797Y-112450788D02*
X283122373Y-114752526D01*
X283122373Y-114752527D02*
X300327601Y-116560869D01*
X179254266Y-100256276D02*
G75*
G03*
X177436186Y-102422942I174234J-1992324D01*
G01*
X138230650Y-164012705D02*
G75*
G03*
X136990748Y-166554875I651050J-1890995D01*
G01*
X236963876Y-164621997D02*
G75*
G03*
X238856380Y-166723924I1997224J-104703D01*
G01*
X220948782Y-148857266D02*
X223214832Y-174758328D01*
X197190126Y-98737247D02*
X217456815Y-96964142D01*
X204162585Y-178432823D02*
X204159971Y-178402937D01*
X217456810Y-96964093D02*
G75*
G03*
X219282503Y-94971752I-174310J1992393D01*
G01*
X152036497Y-159258967D02*
X138230649Y-164012702D01*
X236963793Y-164621993D02*
X237979110Y-145248580D01*
X296724372Y-169976847D02*
X302107588Y-118758970D01*
X294526268Y-171756874D02*
G75*
G03*
X296724372Y-169976847I209032J1989074D01*
G01*
X204162585Y-178432823D02*
X221396754Y-176925029D01*
X219725733Y-134877752D02*
X220861627Y-147861071D01*
X240777831Y-93323893D02*
X258276460Y-94240957D01*
X254435717Y-167543147D02*
X277321043Y-169948492D01*
M02*
