%TF.GenerationSoftware,KiCad,Pcbnew,(6.0.7-1)-1*%
%TF.CreationDate,2022-09-15T11:19:35-04:00*%
%TF.ProjectId,skyline_pcb_right,736b796c-696e-4655-9f70-63625f726967,v1.0.0*%
%TF.SameCoordinates,Original*%
%TF.FileFunction,Soldermask,Bot*%
%TF.FilePolarity,Negative*%
%FSLAX46Y46*%
G04 Gerber Fmt 4.6, Leading zero omitted, Abs format (unit mm)*
G04 Created by KiCad (PCBNEW (6.0.7-1)-1) date 2022-09-15 11:19:35*
%MOMM*%
%LPD*%
G01*
G04 APERTURE LIST*
G04 Aperture macros list*
%AMRoundRect*
0 Rectangle with rounded corners*
0 $1 Rounding radius*
0 $2 $3 $4 $5 $6 $7 $8 $9 X,Y pos of 4 corners*
0 Add a 4 corners polygon primitive as box body*
4,1,4,$2,$3,$4,$5,$6,$7,$8,$9,$2,$3,0*
0 Add four circle primitives for the rounded corners*
1,1,$1+$1,$2,$3*
1,1,$1+$1,$4,$5*
1,1,$1+$1,$6,$7*
1,1,$1+$1,$8,$9*
0 Add four rect primitives between the rounded corners*
20,1,$1+$1,$2,$3,$4,$5,0*
20,1,$1+$1,$4,$5,$6,$7,0*
20,1,$1+$1,$6,$7,$8,$9,0*
20,1,$1+$1,$8,$9,$2,$3,0*%
%AMHorizOval*
0 Thick line with rounded ends*
0 $1 width*
0 $2 $3 position (X,Y) of the first rounded end (center of the circle)*
0 $4 $5 position (X,Y) of the second rounded end (center of the circle)*
0 Add line between two ends*
20,1,$1,$2,$3,$4,$5,0*
0 Add two circle primitives to create the rounded ends*
1,1,$1,$2,$3*
1,1,$1,$4,$5*%
G04 Aperture macros list end*
%ADD10C,3.100000*%
%ADD11C,3.529000*%
%ADD12C,1.801800*%
%ADD13RoundRect,0.050000X-1.001307X-1.541877X1.541877X-1.001307X1.001307X1.541877X-1.541877X1.001307X0*%
%ADD14RoundRect,0.050000X-0.805936X-1.652413X1.652413X-0.805936X0.805936X1.652413X-1.652413X0.805936X0*%
%ADD15RoundRect,0.050000X-1.366255X-1.230182X1.230182X-1.366255X1.366255X1.230182X-1.230182X1.366255X0*%
%ADD16RoundRect,0.050000X-1.428765X-1.156991X1.156991X-1.428765X1.428765X1.156991X-1.156991X1.428765X0*%
%ADD17RoundRect,0.050000X0.636937X-0.395994X0.558497X0.500581X-0.636937X0.395994X-0.558497X-0.500581X0*%
%ADD18RoundRect,0.050000X-1.181751X-1.408356X1.408356X-1.181751X1.181751X1.408356X-1.408356X1.181751X0*%
%ADD19RoundRect,0.050000X-1.300000X-1.300000X1.300000X-1.300000X1.300000X1.300000X-1.300000X1.300000X0*%
%ADD20C,1.497000*%
%ADD21C,2.132000*%
%ADD22RoundRect,0.050000X-1.008150X0.654701X-0.654701X-1.008150X1.008150X-0.654701X0.654701X1.008150X0*%
%ADD23HorizOval,1.800000X0.000000X0.000000X0.000000X0.000000X0*%
%ADD24RoundRect,0.050000X0.549675X-0.510252X0.643751X0.384818X-0.549675X0.510252X-0.643751X-0.384818X0*%
%ADD25C,2.005000*%
%ADD26RoundRect,0.050000X-0.315419X-0.680449X0.564913X-0.493328X0.315419X0.680449X-0.564913X0.493328X0*%
%ADD27RoundRect,0.050000X-0.684740X-1.054407X1.054407X-0.684740X0.684740X1.054407X-1.054407X0.684740X0*%
%ADD28C,2.100000*%
%ADD29RoundRect,0.050000X0.600000X-0.450000X0.600000X0.450000X-0.600000X0.450000X-0.600000X-0.450000X0*%
%ADD30RoundRect,0.050000X0.575627X-0.480785X0.622729X0.417982X-0.575627X0.480785X-0.622729X-0.417982X0*%
%ADD31RoundRect,0.050000X-0.230142X-0.713817X0.620824X-0.420805X0.230142X0.713817X-0.620824X0.420805X0*%
%ADD32RoundRect,0.050000X-0.551136X-1.129996X1.129996X-0.551136X0.551136X1.129996X-1.129996X0.551136X0*%
%ADD33C,1.100000*%
%ADD34C,1.600000*%
%ADD35HorizOval,1.700000X0.283656X0.097670X-0.283656X-0.097670X0*%
%ADD36RoundRect,0.050000X-1.039344X0.674958X-0.674958X-1.039344X1.039344X-0.674958X0.674958X1.039344X0*%
%ADD37C,1.852600*%
%ADD38C,3.700000*%
%ADD39C,5.700000*%
G04 APERTURE END LIST*
D10*
%TO.C,S43*%
X171933284Y-167463093D03*
D11*
X173170359Y-173283071D03*
D12*
X167790547Y-174426585D03*
D10*
X177281428Y-168575459D03*
D12*
X178550171Y-172139557D03*
D13*
X168729851Y-168144004D03*
X180484862Y-167894548D03*
%TD*%
D10*
%TO.C,S45*%
X151018418Y-173199945D03*
D11*
X152955549Y-178825781D03*
D12*
X147755197Y-180616406D03*
D10*
X156462261Y-173652246D03*
D12*
X158155901Y-177035156D03*
D14*
X147921845Y-174266181D03*
X159558835Y-172586010D03*
%TD*%
D10*
%TO.C,S19*%
X250327525Y-96878556D03*
X255205534Y-99337221D03*
D12*
X244523664Y-102532554D03*
D11*
X250016126Y-102820402D03*
D12*
X255508588Y-103108250D03*
D15*
X247057013Y-96707156D03*
X258476045Y-99508621D03*
%TD*%
D12*
%TO.C,S1*%
X282239887Y-161415908D03*
D10*
X293074348Y-158784000D03*
X288331701Y-156073410D03*
D12*
X293179627Y-162565722D03*
D11*
X287709757Y-161990815D03*
D16*
X285074642Y-155731079D03*
X296331407Y-159126331D03*
%TD*%
D10*
%TO.C,S11*%
X278045985Y-120000649D03*
D12*
X267211524Y-122632557D03*
D10*
X273303338Y-117290059D03*
D11*
X272681394Y-123207464D03*
D12*
X278151264Y-123782371D03*
D16*
X270046279Y-116947728D03*
X281303044Y-120342980D03*
%TD*%
D17*
%TO.C,D14*%
X181230366Y-122418600D03*
X180942752Y-119131158D03*
%TD*%
D12*
%TO.C,S37*%
X195728506Y-127925706D03*
X184770364Y-128884420D03*
D10*
X189730858Y-122477705D03*
D11*
X190249435Y-128405063D03*
D10*
X194903574Y-124233554D03*
D18*
X186468321Y-122763140D03*
X198166112Y-123948119D03*
%TD*%
D12*
%TO.C,S23*%
X223582503Y-106703441D03*
D10*
X234082503Y-102953441D03*
D11*
X229082503Y-106703441D03*
D10*
X229082503Y-100753441D03*
D12*
X234582503Y-106703441D03*
D19*
X225807503Y-100753441D03*
X237357503Y-102953441D03*
%TD*%
D20*
%TO.C,\u002A\u002A*%
X158539441Y-158366741D03*
X159897011Y-163261983D03*
%TD*%
D12*
%TO.C,S10*%
X265434540Y-139539429D03*
X276374280Y-140689243D03*
D11*
X270904410Y-140114336D03*
D21*
X265534592Y-143370877D03*
X270287692Y-145982015D03*
%TD*%
D12*
%TO.C,S12*%
X267211524Y-122632557D03*
X278151264Y-123782371D03*
D11*
X272681394Y-123207464D03*
D21*
X267311576Y-126464005D03*
X272064676Y-129075143D03*
%TD*%
D22*
%TO.C,REF\u002A\u002A*%
X166401488Y-126858430D03*
D23*
X163916993Y-127386526D03*
X161432498Y-127914621D03*
X158948003Y-128442717D03*
%TD*%
D12*
%TO.C,S2*%
X293179627Y-162565722D03*
D11*
X287709757Y-161990815D03*
D12*
X282239887Y-161415908D03*
D21*
X282339939Y-165247356D03*
X287093039Y-167858494D03*
%TD*%
D24*
%TO.C,D1*%
X280409252Y-154015803D03*
X280754196Y-150733881D03*
%TD*%
D25*
%TO.C,D16*%
X182268652Y-161172400D03*
D26*
X176927966Y-162307598D03*
D27*
X174815168Y-162756688D03*
D26*
X180155854Y-161621490D03*
%TD*%
D12*
%TO.C,S5*%
X285793855Y-127602164D03*
D11*
X291263725Y-128177071D03*
D10*
X296628316Y-124970256D03*
D12*
X296733595Y-128751978D03*
D10*
X291885669Y-122259666D03*
D16*
X288628610Y-121917335D03*
X299885375Y-125312587D03*
%TD*%
D12*
%TO.C,S35*%
X197210154Y-144861016D03*
D10*
X196385222Y-141168864D03*
D11*
X191731083Y-145340373D03*
D12*
X186252012Y-145819730D03*
D10*
X191212506Y-139413015D03*
D18*
X187949969Y-139698450D03*
X199647760Y-140883429D03*
%TD*%
D12*
%TO.C,S22*%
X234582503Y-123703441D03*
D11*
X229082503Y-123703441D03*
D12*
X223582503Y-123703441D03*
D21*
X224082503Y-127503441D03*
X229082503Y-129603441D03*
%TD*%
D12*
%TO.C,S24*%
X223582503Y-106703441D03*
X234582503Y-106703441D03*
D11*
X229082503Y-106703441D03*
D21*
X224082503Y-110503441D03*
X229082503Y-112603441D03*
%TD*%
D17*
%TO.C,D12*%
X199876192Y-117784712D03*
X199588578Y-114497270D03*
%TD*%
D28*
%TO.C,RSW1*%
X150574651Y-126872329D03*
X151926077Y-133230289D03*
%TD*%
D12*
%TO.C,S25*%
X223582503Y-89703441D03*
D11*
X229082503Y-89703441D03*
D12*
X234582503Y-89703441D03*
D10*
X234082503Y-85953441D03*
X229082503Y-83753441D03*
D19*
X225807503Y-83753441D03*
X237357503Y-85953441D03*
%TD*%
D11*
%TO.C,S44*%
X173170359Y-173283071D03*
D12*
X167790547Y-174426585D03*
X178550171Y-172139557D03*
D21*
X169069685Y-178039590D03*
X174397038Y-179054142D03*
%TD*%
D12*
%TO.C,S26*%
X234582503Y-89703441D03*
X223582503Y-89703441D03*
D11*
X229082503Y-89703441D03*
D21*
X224082503Y-93503441D03*
X229082503Y-95603441D03*
%TD*%
D12*
%TO.C,S39*%
X183288716Y-111949110D03*
D11*
X188767787Y-111469753D03*
D10*
X193421926Y-107298244D03*
D12*
X194246858Y-110990396D03*
D10*
X188249210Y-105542395D03*
D18*
X184986673Y-105827830D03*
X196684464Y-107012809D03*
%TD*%
D12*
%TO.C,S21*%
X234582503Y-123703441D03*
D10*
X229082503Y-117753441D03*
D11*
X229082503Y-123703441D03*
D12*
X223582503Y-123703441D03*
D10*
X234082503Y-119953441D03*
D19*
X225807503Y-117753441D03*
X237357503Y-119953441D03*
%TD*%
D29*
%TO.C,D8*%
X220271806Y-116738220D03*
X220271806Y-113438220D03*
%TD*%
D12*
%TO.C,S18*%
X254618877Y-120084952D03*
D11*
X249126415Y-119797104D03*
D12*
X243633953Y-119509256D03*
D21*
X243934391Y-123330216D03*
X248817633Y-125689018D03*
%TD*%
D11*
%TO.C,S8*%
X269127426Y-157021208D03*
D12*
X263657556Y-156446301D03*
X274597296Y-157596115D03*
D21*
X263757608Y-160277749D03*
X268510708Y-162888887D03*
%TD*%
D12*
%TO.C,S14*%
X241854530Y-153462661D03*
D11*
X247346992Y-153750509D03*
D12*
X252839454Y-154038357D03*
D21*
X242154968Y-157283621D03*
X247038210Y-159642423D03*
%TD*%
D10*
%TO.C,S17*%
X249437814Y-113855258D03*
D12*
X254618877Y-120084952D03*
D11*
X249126415Y-119797104D03*
D12*
X243633953Y-119509256D03*
D10*
X254315823Y-116313923D03*
D15*
X246167302Y-113683858D03*
X257586334Y-116485323D03*
%TD*%
D11*
%TO.C,S34*%
X207438377Y-106875020D03*
D12*
X212917448Y-106395663D03*
X201959306Y-107354377D03*
D21*
X202788595Y-111096339D03*
X207952596Y-112752569D03*
%TD*%
D30*
%TO.C,D7*%
X240995417Y-112584894D03*
X241168125Y-109289416D03*
%TD*%
D11*
%TO.C,S31*%
X208920025Y-123810330D03*
D10*
X208401448Y-117882972D03*
D12*
X203440954Y-124289687D03*
D10*
X213574164Y-119638821D03*
D12*
X214399096Y-123330973D03*
D18*
X205138911Y-118168407D03*
X216836702Y-119353386D03*
%TD*%
D11*
%TO.C,S32*%
X208920025Y-123810330D03*
D12*
X214399096Y-123330973D03*
X203440954Y-124289687D03*
D21*
X204270243Y-128031649D03*
X209434244Y-129687879D03*
%TD*%
D12*
%TO.C,S30*%
X204922601Y-141224997D03*
D11*
X210401672Y-140745640D03*
D12*
X215880743Y-140266283D03*
D21*
X205751890Y-144966959D03*
X210915891Y-146623189D03*
%TD*%
D10*
%TO.C,S27*%
X216537459Y-153509441D03*
D12*
X217362391Y-157201593D03*
D10*
X211364743Y-151753592D03*
D11*
X211883320Y-157680950D03*
D12*
X206404249Y-158160307D03*
D18*
X208102206Y-152039027D03*
X219799997Y-153224006D03*
%TD*%
D31*
%TO.C,D17*%
X156115667Y-167873596D03*
D25*
X161278199Y-166095994D03*
D32*
X154073347Y-168576824D03*
D31*
X159235879Y-166799222D03*
%TD*%
D10*
%TO.C,S3*%
X290108685Y-139166538D03*
X294851332Y-141877128D03*
D12*
X284016871Y-144509036D03*
X294956611Y-145658850D03*
D11*
X289486741Y-145083943D03*
D16*
X286851626Y-138824207D03*
X298108391Y-142219459D03*
%TD*%
D12*
%TO.C,S28*%
X206404249Y-158160307D03*
D11*
X211883320Y-157680950D03*
D12*
X217362391Y-157201593D03*
D21*
X207233538Y-161902269D03*
X212397539Y-163558499D03*
%TD*%
D12*
%TO.C,S36*%
X197210154Y-144861016D03*
X186252012Y-145819730D03*
D11*
X191731083Y-145340373D03*
D21*
X187081301Y-149561692D03*
X192245302Y-151217922D03*
%TD*%
D33*
%TO.C,T1*%
X177091140Y-119918878D03*
X174156698Y-120542614D03*
%TD*%
D17*
%TO.C,D11*%
X201431365Y-134608159D03*
X201143751Y-131320717D03*
%TD*%
D12*
%TO.C,S41*%
X188430905Y-170724598D03*
D10*
X193391399Y-164317883D03*
X198564115Y-166073732D03*
D12*
X199389047Y-169765884D03*
D11*
X193909976Y-170245241D03*
D18*
X190128862Y-164603318D03*
X201826653Y-165788297D03*
%TD*%
D11*
%TO.C,S40*%
X188767787Y-111469753D03*
D12*
X183288716Y-111949110D03*
X194246858Y-110990396D03*
D21*
X184118005Y-115691072D03*
X189282006Y-117347302D03*
%TD*%
D34*
%TO.C,REF\u002A\u002A*%
X139561300Y-168987585D03*
X146179931Y-166708608D03*
D35*
X149481637Y-168004266D03*
X146943953Y-164013006D03*
X143161879Y-165315278D03*
X140325323Y-166291983D03*
%TD*%
D24*
%TO.C,D4*%
X263393404Y-132329433D03*
X263738348Y-129047511D03*
%TD*%
D30*
%TO.C,D6*%
X240324663Y-129502799D03*
X240497371Y-126207321D03*
%TD*%
D12*
%TO.C,S38*%
X184770364Y-128884420D03*
D11*
X190249435Y-128405063D03*
D12*
X195728506Y-127925706D03*
D21*
X185599653Y-132626382D03*
X190763654Y-134282612D03*
%TD*%
D36*
%TO.C,MCU1*%
X154536500Y-127077567D03*
D37*
X155064596Y-129562062D03*
X155592691Y-132046557D03*
X156120787Y-134531052D03*
X156648883Y-137015547D03*
X157176978Y-139500042D03*
X157705074Y-141984537D03*
X158233170Y-144469031D03*
X158761266Y-146953526D03*
X159289361Y-149438021D03*
X159817457Y-151922516D03*
X160345553Y-154407011D03*
X169443469Y-123908993D03*
X169971565Y-126393488D03*
X170499661Y-128877983D03*
X171027756Y-131362478D03*
X171555852Y-133846973D03*
X172083948Y-136331467D03*
X172612044Y-138815962D03*
X173140139Y-141300457D03*
X173668235Y-143784952D03*
X174196331Y-146269447D03*
X174724426Y-148753942D03*
X175252522Y-151238437D03*
%TD*%
D17*
%TO.C,D15*%
X188236018Y-159459123D03*
X187948404Y-156171681D03*
%TD*%
D24*
%TO.C,D2*%
X282025458Y-137322824D03*
X282370402Y-134040902D03*
%TD*%
D12*
%TO.C,S46*%
X158155901Y-177035156D03*
X147755197Y-180616406D03*
D11*
X152955549Y-178825781D03*
D21*
X149465115Y-184046592D03*
X154876401Y-184404341D03*
%TD*%
D12*
%TO.C,S29*%
X215880743Y-140266283D03*
D11*
X210401672Y-140745640D03*
D10*
X215055811Y-136574131D03*
D12*
X204922601Y-141224997D03*
D10*
X209883095Y-134818282D03*
D18*
X206620558Y-135103717D03*
X218318349Y-136288696D03*
%TD*%
D12*
%TO.C,S42*%
X199389047Y-169765884D03*
X188430905Y-170724598D03*
D11*
X193909976Y-170245241D03*
D21*
X189260194Y-174466560D03*
X194424195Y-176122790D03*
%TD*%
D11*
%TO.C,S15*%
X248236703Y-136773806D03*
D12*
X253729165Y-137061654D03*
X242744241Y-136485958D03*
D10*
X248548102Y-130831960D03*
X253426111Y-133290625D03*
D15*
X245277590Y-130660560D03*
X256696622Y-133462025D03*
%TD*%
D29*
%TO.C,D9*%
X220586513Y-99768303D03*
X220586513Y-96468303D03*
%TD*%
D11*
%TO.C,S33*%
X207438377Y-106875020D03*
D12*
X212917448Y-106395663D03*
D10*
X212092516Y-102703511D03*
D12*
X201959306Y-107354377D03*
D10*
X206919800Y-100947662D03*
D18*
X203657263Y-101233097D03*
X215355054Y-102418076D03*
%TD*%
D24*
%TO.C,D3*%
X261553614Y-149320526D03*
X261898558Y-146038604D03*
%TD*%
D12*
%TO.C,S6*%
X296733595Y-128751978D03*
D11*
X291263725Y-128177071D03*
D12*
X285793855Y-127602164D03*
D21*
X285893907Y-131433612D03*
X290647007Y-134044750D03*
%TD*%
D38*
%TO.C,REF\u002A\u002A*%
X180407787Y-103019753D03*
D39*
X180407787Y-103019753D03*
%TD*%
D17*
%TO.C,D13*%
X182720931Y-139261977D03*
X182433317Y-135974535D03*
%TD*%
D30*
%TO.C,D5*%
X239430325Y-146495231D03*
X239603033Y-143199753D03*
%TD*%
D20*
%TO.C,\u002A\u002A*%
X155467798Y-159198644D03*
X156825368Y-164093886D03*
%TD*%
D12*
%TO.C,S4*%
X284016871Y-144509036D03*
X294956611Y-145658850D03*
D11*
X289486741Y-145083943D03*
D21*
X284116923Y-148340484D03*
X288870023Y-150951622D03*
%TD*%
D12*
%TO.C,S20*%
X244523664Y-102532554D03*
X255508588Y-103108250D03*
D11*
X250016126Y-102820402D03*
D21*
X244824102Y-106353514D03*
X249707344Y-108712316D03*
%TD*%
D10*
%TO.C,S7*%
X274492017Y-153814393D03*
D12*
X263657556Y-156446301D03*
X274597296Y-157596115D03*
D11*
X269127426Y-157021208D03*
D10*
X269749370Y-151103803D03*
D16*
X266492311Y-150761472D03*
X277749076Y-154156724D03*
%TD*%
D11*
%TO.C,S13*%
X247346992Y-153750509D03*
D10*
X252536400Y-150267328D03*
D12*
X241854530Y-153462661D03*
X252839454Y-154038357D03*
D10*
X247658391Y-147808663D03*
D15*
X244387879Y-147637263D03*
X255806911Y-150438728D03*
%TD*%
D12*
%TO.C,S9*%
X276374280Y-140689243D03*
D11*
X270904410Y-140114336D03*
D10*
X271526354Y-134196931D03*
X276269001Y-136907521D03*
D12*
X265434540Y-139539429D03*
D16*
X268269295Y-133854600D03*
X279526060Y-137249852D03*
%TD*%
D17*
%TO.C,D10*%
X202904808Y-151468827D03*
X202617194Y-148181385D03*
%TD*%
D12*
%TO.C,S16*%
X242744241Y-136485958D03*
D11*
X248236703Y-136773806D03*
D12*
X253729165Y-137061654D03*
D21*
X243044679Y-140306918D03*
X247927921Y-142665720D03*
%TD*%
D39*
%TO.C,REF\u002A\u002A*%
X240682503Y-163303441D03*
D38*
X240682503Y-163303441D03*
%TD*%
%TO.C,REF\u002A\u002A*%
X217582503Y-171903441D03*
D39*
X217582503Y-171903441D03*
%TD*%
D38*
%TO.C,REF\u002A\u002A*%
X260672503Y-123043441D03*
D39*
X260672503Y-123043441D03*
%TD*%
%TO.C,REF\u002A\u002A*%
X176982503Y-130003441D03*
D38*
X176982503Y-130003441D03*
%TD*%
M02*
