%TF.GenerationSoftware,KiCad,Pcbnew,(6.0.7-1)-1*%
%TF.CreationDate,2022-09-15T11:19:35-04:00*%
%TF.ProjectId,skyline_pcb_right,736b796c-696e-4655-9f70-63625f726967,v1.0.0*%
%TF.SameCoordinates,Original*%
%TF.FileFunction,Copper,L1,Top*%
%TF.FilePolarity,Positive*%
%FSLAX46Y46*%
G04 Gerber Fmt 4.6, Leading zero omitted, Abs format (unit mm)*
G04 Created by KiCad (PCBNEW (6.0.7-1)-1) date 2022-09-15 11:19:35*
%MOMM*%
%LPD*%
G01*
G04 APERTURE LIST*
G04 Aperture macros list*
%AMHorizOval*
0 Thick line with rounded ends*
0 $1 width*
0 $2 $3 position (X,Y) of the first rounded end (center of the circle)*
0 $4 $5 position (X,Y) of the second rounded end (center of the circle)*
0 Add line between two ends*
20,1,$1,$2,$3,$4,$5,0*
0 Add two circle primitives to create the rounded ends*
1,1,$1,$2,$3*
1,1,$1,$4,$5*%
%AMRotRect*
0 Rectangle, with rotation*
0 The origin of the aperture is its center*
0 $1 length*
0 $2 width*
0 $3 Rotation angle, in degrees counterclockwise*
0 Add horizontal line*
21,1,$1,$2,0,0,$3*%
G04 Aperture macros list end*
%TA.AperFunction,ComponentPad*%
%ADD10C,1.397000*%
%TD*%
%TA.AperFunction,ComponentPad*%
%ADD11C,2.032000*%
%TD*%
%TA.AperFunction,ComponentPad*%
%ADD12RotRect,1.700000X1.700000X282.000000*%
%TD*%
%TA.AperFunction,ComponentPad*%
%ADD13HorizOval,1.700000X0.000000X0.000000X0.000000X0.000000X0*%
%TD*%
%TA.AperFunction,ComponentPad*%
%ADD14C,1.905000*%
%TD*%
%TA.AperFunction,ComponentPad*%
%ADD15RotRect,1.778000X1.778000X12.000000*%
%TD*%
%TA.AperFunction,ComponentPad*%
%ADD16C,2.000000*%
%TD*%
%TA.AperFunction,ComponentPad*%
%ADD17RotRect,1.778000X1.778000X19.000000*%
%TD*%
%TA.AperFunction,SMDPad,CuDef*%
%ADD18RotRect,1.600000X0.850000X102.000000*%
%TD*%
%TA.AperFunction,SMDPad,CuDef*%
%ADD19RotRect,0.900000X0.900000X12.000000*%
%TD*%
%TA.AperFunction,WasherPad*%
%ADD20C,1.000000*%
%TD*%
%TA.AperFunction,SMDPad,CuDef*%
%ADD21RotRect,0.900000X1.250000X12.000000*%
%TD*%
%TA.AperFunction,ComponentPad*%
%ADD22HorizOval,1.600000X0.283656X0.097670X-0.283656X-0.097670X0*%
%TD*%
%TA.AperFunction,ComponentPad*%
%ADD23RotRect,1.752600X1.752600X282.000000*%
%TD*%
%TA.AperFunction,ComponentPad*%
%ADD24C,1.752600*%
%TD*%
%TA.AperFunction,ComponentPad*%
%ADD25C,3.600000*%
%TD*%
%TA.AperFunction,ConnectorPad*%
%ADD26C,5.600000*%
%TD*%
%TA.AperFunction,Conductor*%
%ADD27C,0.250000*%
%TD*%
%TA.AperFunction,Conductor*%
%ADD28C,0.400000*%
%TD*%
G04 APERTURE END LIST*
D10*
%TO.P,\u002A\u002A,3*%
%TO.N,P3*%
X158539441Y-158366741D03*
%TO.P,\u002A\u002A,4*%
%TO.N,VCC*%
X159897011Y-163261983D03*
%TD*%
D11*
%TO.P,S10,1*%
%TO.N,P5*%
X265534592Y-143370877D03*
%TO.P,S10,2*%
%TO.N,P20*%
X270287692Y-145982015D03*
%TD*%
%TO.P,S12,1*%
%TO.N,P5*%
X267311576Y-126464005D03*
%TO.P,S12,2*%
%TO.N,P21*%
X272064676Y-129075143D03*
%TD*%
D12*
%TO.P,REF\u002A\u002A,1*%
%TO.N,VCC*%
X166401488Y-126858430D03*
D13*
%TO.P,REF\u002A\u002A,2*%
%TO.N,P0*%
X163916993Y-127386526D03*
%TO.P,REF\u002A\u002A,3*%
%TO.N,P1*%
X161432498Y-127914621D03*
%TO.P,REF\u002A\u002A,4*%
%TO.N,GND*%
X158948003Y-128442717D03*
%TD*%
D11*
%TO.P,S2,1*%
%TO.N,P4*%
X282339939Y-165247356D03*
%TO.P,S2,2*%
%TO.N,P19*%
X287093039Y-167858494D03*
%TD*%
D14*
%TO.P,D16,1*%
%TO.N,P7*%
X182268652Y-161172400D03*
D15*
%TO.P,D16,2*%
X174815168Y-162756688D03*
%TD*%
D11*
%TO.P,S22,1*%
%TO.N,P7*%
X224082503Y-127503441D03*
%TO.P,S22,2*%
%TO.N,P19*%
X229082503Y-129603441D03*
%TD*%
%TO.P,S24,1*%
%TO.N,P7*%
X224082503Y-110503441D03*
%TO.P,S24,2*%
%TO.N,P20*%
X229082503Y-112603441D03*
%TD*%
D16*
%TO.P,RSW1,1*%
%TO.N,GND*%
X150574651Y-126872329D03*
%TO.P,RSW1,2*%
%TO.N,RST*%
X151926077Y-133230289D03*
%TD*%
D11*
%TO.P,S44,1*%
%TO.N,P7*%
X169069685Y-178039590D03*
%TO.P,S44,2*%
%TO.N,P18*%
X174397038Y-179054142D03*
%TD*%
%TO.P,S26,1*%
%TO.N,P7*%
X224082503Y-93503441D03*
%TO.P,S26,2*%
%TO.N,P21*%
X229082503Y-95603441D03*
%TD*%
%TO.P,S18,1*%
%TO.N,P6*%
X243934391Y-123330216D03*
%TO.P,S18,2*%
%TO.N,P20*%
X248817633Y-125689018D03*
%TD*%
%TO.P,S8,1*%
%TO.N,P5*%
X263757608Y-160277749D03*
%TO.P,S8,2*%
%TO.N,P19*%
X268510708Y-162888887D03*
%TD*%
%TO.P,S14,1*%
%TO.N,P6*%
X242154968Y-157283621D03*
%TO.P,S14,2*%
%TO.N,P18*%
X247038210Y-159642423D03*
%TD*%
%TO.P,S34,1*%
%TO.N,P8*%
X202788595Y-111096339D03*
%TO.P,S34,2*%
%TO.N,P21*%
X207952596Y-112752569D03*
%TD*%
%TO.P,S32,1*%
%TO.N,P8*%
X204270243Y-128031649D03*
%TO.P,S32,2*%
%TO.N,P20*%
X209434244Y-129687879D03*
%TD*%
%TO.P,S30,1*%
%TO.N,P8*%
X205751890Y-144966959D03*
%TO.P,S30,2*%
%TO.N,P19*%
X210915891Y-146623189D03*
%TD*%
D14*
%TO.P,D17,1*%
%TO.N,P5*%
X161278199Y-166095994D03*
D17*
%TO.P,D17,2*%
X154073347Y-168576824D03*
%TD*%
D18*
%TO.P,REF\u002A\u002A,DIN*%
%TO.N,P15*%
X168175957Y-146833094D03*
%TO.P,REF\u002A\u002A,DOUT*%
%TO.N,N/C*%
X167191889Y-150620456D03*
%TO.P,REF\u002A\u002A,GND*%
%TO.N,GND*%
X168903648Y-150256611D03*
%TO.P,REF\u002A\u002A,VCC*%
%TO.N,VCC*%
X166464198Y-147196939D03*
%TD*%
D11*
%TO.P,S28,1*%
%TO.N,P8*%
X207233538Y-161902269D03*
%TO.P,S28,2*%
%TO.N,P18*%
X212397539Y-163558499D03*
%TD*%
%TO.P,S36,1*%
%TO.N,P9*%
X187081301Y-149561692D03*
%TO.P,S36,2*%
%TO.N,P19*%
X192245302Y-151217922D03*
%TD*%
D19*
%TO.P,T1,*%
%TO.N,*%
X171776070Y-119924057D03*
D20*
X177091140Y-119918878D03*
D19*
X179471768Y-120537435D03*
D20*
X174156698Y-120542614D03*
D19*
X172233476Y-122075982D03*
X179014362Y-118385510D03*
D21*
%TO.P,T1,1*%
%TO.N,undefined*%
X178256168Y-121792601D03*
%TO.P,T1,2*%
X175321725Y-122416336D03*
%TO.P,T1,3*%
%TO.N,N/C*%
X173854504Y-122728204D03*
%TD*%
D11*
%TO.P,S40,1*%
%TO.N,P9*%
X184118005Y-115691072D03*
%TO.P,S40,2*%
%TO.N,P21*%
X189282006Y-117347302D03*
%TD*%
D22*
%TO.P,REF\u002A\u002A,1*%
%TO.N,GND*%
X149481637Y-168004266D03*
%TO.P,REF\u002A\u002A,2*%
%TO.N,P3*%
X146943953Y-164013006D03*
%TO.P,REF\u002A\u002A,3*%
%TO.N,P2*%
X143161879Y-165315278D03*
%TO.P,REF\u002A\u002A,4*%
%TO.N,VCC*%
X140325323Y-166291983D03*
%TD*%
D11*
%TO.P,S38,1*%
%TO.N,P9*%
X185599653Y-132626382D03*
%TO.P,S38,2*%
%TO.N,P20*%
X190763654Y-134282612D03*
%TD*%
D23*
%TO.P,MCU1,1*%
%TO.N,RAW*%
X154536500Y-127077567D03*
D24*
%TO.P,MCU1,2*%
%TO.N,GND*%
X155064596Y-129562062D03*
%TO.P,MCU1,3*%
%TO.N,RST*%
X155592691Y-132046557D03*
%TO.P,MCU1,4*%
%TO.N,VCC*%
X156120787Y-134531052D03*
%TO.P,MCU1,5*%
%TO.N,P21*%
X156648883Y-137015547D03*
%TO.P,MCU1,6*%
%TO.N,P20*%
X157176978Y-139500042D03*
%TO.P,MCU1,7*%
%TO.N,P19*%
X157705074Y-141984537D03*
%TO.P,MCU1,8*%
%TO.N,P18*%
X158233170Y-144469031D03*
%TO.P,MCU1,9*%
%TO.N,P15*%
X158761266Y-146953526D03*
%TO.P,MCU1,10*%
%TO.N,P14*%
X159289361Y-149438021D03*
%TO.P,MCU1,11*%
%TO.N,P16*%
X159817457Y-151922516D03*
%TO.P,MCU1,12*%
%TO.N,P10*%
X160345553Y-154407011D03*
%TO.P,MCU1,13*%
%TO.N,P1*%
X169443469Y-123908993D03*
%TO.P,MCU1,14*%
%TO.N,P0*%
X169971565Y-126393488D03*
%TO.P,MCU1,15*%
%TO.N,GND*%
X170499661Y-128877983D03*
%TO.P,MCU1,16*%
X171027756Y-131362478D03*
%TO.P,MCU1,17*%
%TO.N,P2*%
X171555852Y-133846973D03*
%TO.P,MCU1,18*%
%TO.N,P3*%
X172083948Y-136331467D03*
%TO.P,MCU1,19*%
%TO.N,P4*%
X172612044Y-138815962D03*
%TO.P,MCU1,20*%
%TO.N,P5*%
X173140139Y-141300457D03*
%TO.P,MCU1,21*%
%TO.N,P6*%
X173668235Y-143784952D03*
%TO.P,MCU1,22*%
%TO.N,P7*%
X174196331Y-146269447D03*
%TO.P,MCU1,23*%
%TO.N,P8*%
X174724426Y-148753942D03*
%TO.P,MCU1,24*%
%TO.N,P9*%
X175252522Y-151238437D03*
%TD*%
D11*
%TO.P,S46,1*%
%TO.N,P5*%
X149465115Y-184046592D03*
%TO.P,S46,2*%
%TO.N,P18*%
X154876401Y-184404341D03*
%TD*%
%TO.P,S42,1*%
%TO.N,P9*%
X189260194Y-174466560D03*
%TO.P,S42,2*%
%TO.N,P18*%
X194424195Y-176122790D03*
%TD*%
%TO.P,S6,1*%
%TO.N,P4*%
X285893907Y-131433612D03*
%TO.P,S6,2*%
%TO.N,P21*%
X290647007Y-134044750D03*
%TD*%
D25*
%TO.P,REF\u002A\u002A,1*%
%TO.N,N/C*%
X180407787Y-103019753D03*
D26*
X180407787Y-103019753D03*
%TD*%
D10*
%TO.P,\u002A\u002A,2*%
%TO.N,P2*%
X155467798Y-159198644D03*
%TO.P,\u002A\u002A,4*%
%TO.N,VCC*%
X156825368Y-164093886D03*
%TD*%
D11*
%TO.P,S4,1*%
%TO.N,P4*%
X284116923Y-148340484D03*
%TO.P,S4,2*%
%TO.N,P20*%
X288870023Y-150951622D03*
%TD*%
%TO.P,S20,1*%
%TO.N,P6*%
X244824102Y-106353514D03*
%TO.P,S20,2*%
%TO.N,P21*%
X249707344Y-108712316D03*
%TD*%
%TO.P,S16,1*%
%TO.N,P6*%
X243044679Y-140306918D03*
%TO.P,S16,2*%
%TO.N,P19*%
X247927921Y-142665720D03*
%TD*%
D26*
%TO.P,REF\u002A\u002A,1*%
%TO.N,N/C*%
X240682503Y-163303441D03*
D25*
X240682503Y-163303441D03*
%TD*%
D26*
%TO.P,REF\u002A\u002A,1*%
%TO.N,N/C*%
X217582503Y-171903441D03*
D25*
X217582503Y-171903441D03*
%TD*%
%TO.P,REF\u002A\u002A,1*%
%TO.N,N/C*%
X260672503Y-123043441D03*
D26*
X260672503Y-123043441D03*
%TD*%
%TO.P,REF\u002A\u002A,1*%
%TO.N,N/C*%
X176982503Y-130003441D03*
D25*
X176982503Y-130003441D03*
%TD*%
D27*
%TO.N,P4*%
X188492947Y-138815962D02*
X202215053Y-125093856D01*
X202215053Y-125093856D02*
X202215053Y-123583587D01*
X202215053Y-123583587D02*
X204284818Y-121513822D01*
X243482736Y-121746911D02*
X247408383Y-121746911D01*
X271317693Y-144098734D02*
X279998417Y-152779458D01*
X279998417Y-152779458D02*
X279998417Y-162905834D01*
X247408383Y-121746911D02*
X264032960Y-138371488D01*
X242904390Y-122325257D02*
X243482736Y-121746911D01*
X264032960Y-138371488D02*
X264032960Y-139964800D01*
X231894468Y-121513822D02*
X232705903Y-122325257D01*
X204284818Y-121513822D02*
X231894468Y-121513822D01*
X232705903Y-122325257D02*
X242904390Y-122325257D01*
X172612044Y-138815962D02*
X188492947Y-138815962D01*
X264032960Y-139964800D02*
X268166894Y-144098734D01*
X279998417Y-162905834D02*
X282339939Y-165247356D01*
X268166894Y-144098734D02*
X271317693Y-144098734D01*
%TO.N,P5*%
X214596156Y-144355782D02*
X214596156Y-167837814D01*
X171854988Y-142386821D02*
X172941352Y-141300457D01*
X204946219Y-177487751D02*
X172669956Y-177487751D01*
X221222626Y-131429565D02*
X217727068Y-134925123D01*
X158298463Y-164351708D02*
X161954951Y-164351708D01*
X236866588Y-131429565D02*
X221222626Y-131429565D01*
X214596156Y-167837814D02*
X204946219Y-177487751D01*
X161954951Y-164351708D02*
X171854988Y-154451671D01*
X217727068Y-134925123D02*
X217727068Y-141224870D01*
X172669956Y-177487751D02*
X161278199Y-166095994D01*
X154073347Y-168576824D02*
X158298463Y-164351708D01*
X240137068Y-157551266D02*
X240137068Y-134700045D01*
X171854988Y-154451671D02*
X171854988Y-142386821D01*
X263757608Y-160277749D02*
X259686883Y-164348474D01*
X246934276Y-164348474D02*
X240137068Y-157551266D01*
X259686883Y-164348474D02*
X246934276Y-164348474D01*
X217727068Y-141224870D02*
X214596156Y-144355782D01*
X172941352Y-141300457D02*
X173140139Y-141300457D01*
X240137068Y-134700045D02*
X236866588Y-131429565D01*
%TO.N,P6*%
X230055929Y-126162441D02*
X201782864Y-126162441D01*
X182877158Y-145068147D02*
X174951430Y-145068147D01*
X242154968Y-158932770D02*
X247120672Y-163898474D01*
X201782864Y-126162441D02*
X182877158Y-145068147D01*
X242154968Y-157283621D02*
X242154968Y-158932770D01*
X257467068Y-159543469D02*
X257467068Y-132441992D01*
X253112063Y-163898474D02*
X257467068Y-159543469D01*
X174951430Y-145068147D02*
X173668235Y-143784952D01*
X257467068Y-132441992D02*
X252295236Y-127270160D01*
X247120672Y-163898474D02*
X253112063Y-163898474D01*
X252295236Y-127270160D02*
X231163648Y-127270160D01*
X231163648Y-127270160D02*
X230055929Y-126162441D01*
%TO.N,P18*%
X245217068Y-135958474D02*
X245217068Y-158818474D01*
X245217068Y-158818474D02*
X246041017Y-159642423D01*
X217277068Y-133200242D02*
X219497745Y-130979565D01*
X213972821Y-144342721D02*
X217277068Y-141038474D01*
X212397539Y-163558499D02*
X213972821Y-161983217D01*
X246041017Y-159642423D02*
X247038210Y-159642423D01*
X240238159Y-130979565D02*
X245217068Y-135958474D01*
X217277068Y-141038474D02*
X217277068Y-133200242D01*
X213972821Y-161983217D02*
X213972821Y-144342721D01*
X219497745Y-130979565D02*
X240238159Y-130979565D01*
%TO.N,P7*%
X173003692Y-160945212D02*
X174815168Y-162756688D01*
X174196331Y-146269447D02*
X173003692Y-147462086D01*
X182268652Y-161172400D02*
X186983142Y-161172400D01*
X220652101Y-127503441D02*
X224082503Y-127503441D01*
X173003692Y-147462086D02*
X173003692Y-160945212D01*
X186983142Y-161172400D02*
X220652101Y-127503441D01*
%TO.N,P8*%
X178703246Y-159988735D02*
X181495288Y-162780777D01*
X178703246Y-152732762D02*
X178703246Y-159988735D01*
X174724426Y-148753942D02*
X178703246Y-152732762D01*
X186253273Y-161902269D02*
X207233538Y-161902269D01*
X181495288Y-162780777D02*
X185374765Y-162780777D01*
X185374765Y-162780777D02*
X186253273Y-161902269D01*
%TO.N,P9*%
X175252522Y-151238437D02*
X175252522Y-158060943D01*
X186189435Y-171395801D02*
X189260194Y-174466560D01*
X186189435Y-168997856D02*
X186189435Y-171395801D01*
X175252522Y-158060943D02*
X186189435Y-168997856D01*
D28*
%TO.N,GND*%
X153993232Y-158503428D02*
X153993232Y-130633426D01*
D27*
X156183941Y-128442717D02*
X155064596Y-129562062D01*
D28*
X153993232Y-130633426D02*
X155064596Y-129562062D01*
X170043099Y-149117160D02*
X170043099Y-132347135D01*
X168903648Y-150256611D02*
X170043099Y-149117160D01*
X149481637Y-163015023D02*
X153993232Y-158503428D01*
D27*
X158948003Y-128442717D02*
X156183941Y-128442717D01*
D28*
X149481637Y-168004266D02*
X149481637Y-163015023D01*
X170043099Y-132347135D02*
X171027756Y-131362478D01*
%TO.N,VCC*%
X166401488Y-128414054D02*
X160284490Y-134531052D01*
X166464198Y-147196939D02*
X166464198Y-144874463D01*
X166401488Y-126858430D02*
X166401488Y-128414054D01*
X160284490Y-134531052D02*
X156120787Y-134531052D01*
X166464198Y-144874463D02*
X156120787Y-134531052D01*
D27*
%TO.N,P15*%
X168175957Y-147559896D02*
X166975003Y-148760850D01*
X160568590Y-148760850D02*
X158761266Y-146953526D01*
X168175957Y-146833094D02*
X168175957Y-147559896D01*
X166975003Y-148760850D02*
X160568590Y-148760850D01*
%TO.N,P1*%
X165438126Y-123908993D02*
X169443469Y-123908993D01*
X161432498Y-127914621D02*
X165438126Y-123908993D01*
%TO.N,P0*%
X163916993Y-127386526D02*
X163916993Y-126184445D01*
X169103357Y-125525280D02*
X169971565Y-126393488D01*
X164576158Y-125525280D02*
X169103357Y-125525280D01*
X163916993Y-126184445D02*
X164576158Y-125525280D01*
%TO.N,P2*%
X157351273Y-157315169D02*
X167718698Y-157315169D01*
X170493099Y-154540768D02*
X170493099Y-134909726D01*
X170493099Y-134909726D02*
X171555852Y-133846973D01*
X167718698Y-157315169D02*
X170493099Y-154540768D01*
X155467798Y-159198644D02*
X157351273Y-157315169D01*
%TO.N,P3*%
X171174043Y-154496220D02*
X167303522Y-158366741D01*
X167303522Y-158366741D02*
X158539441Y-158366741D01*
X172083948Y-136331467D02*
X171174043Y-137241372D01*
X171174043Y-137241372D02*
X171174043Y-154496220D01*
%TD*%
M02*
