0
SECTION
2
HEADER
9
$INSUNITS
70
4
0
ENDSEC
0
SECTION
2
TABLES
0
TABLE
2
LTYPE
0
LTYPE
72
65
70
64
2
CONTINUOUS
3
______
73
0
40
0
0
ENDTAB
0
TABLE
2
LAYER
0
ENDTAB
0
ENDSEC
0
SECTION
2
ENTITIES
0
LINE
8
0
10
-8.0328921
20
-9.3860838
11
9.8088307
21
-7.5108432
0
LINE
8
0
10
9.8088307
20
-7.5108432
11
8.0328921
21
9.3860838
0
LINE
8
0
10
8.0328921
20
9.3860838
11
-9.8088307
21
7.5108432
0
LINE
8
0
10
-9.8088307
20
7.5108432
11
-8.0328921
21
-9.3860838
0
LINE
8
0
10
-9.809876
20
7.5207884
11
8.0318468
21
9.396029
0
LINE
8
0
10
8.0318468
20
9.396029
11
6.2559082
21
26.292956
0
LINE
8
0
10
6.2559082
20
26.292956
11
-11.5858146
21
24.4177154
0
LINE
8
0
10
-11.5858146
20
24.4177154
11
-9.809876
21
7.5207884
0
LINE
8
0
10
-11.5868599
20
24.4276606
11
6.2548629
21
26.3029012
0
LINE
8
0
10
6.2548629
20
26.3029012
11
4.4789243
21
43.1998282
0
LINE
8
0
10
4.4789243
20
43.1998282
11
-13.3627985
21
41.3245876
0
LINE
8
0
10
-13.3627985
20
41.3245876
11
-11.5868599
21
24.4276606
0
LINE
8
0
10
10.5494385
20
-4.4164773
11
28.3911613
21
-2.5412367
0
LINE
8
0
10
28.3911613
20
-2.5412367
11
26.6152227
21
14.3556903
0
LINE
8
0
10
26.6152227
20
14.3556903
11
8.7734999
21
12.4804497
0
LINE
8
0
10
8.7734999
20
12.4804497
11
10.5494385
21
-4.4164773
0
LINE
8
0
10
8.7724546
20
12.4903949
11
26.6141774
21
14.3656355
0
LINE
8
0
10
26.6141774
20
14.3656355
11
24.8382388
21
31.2625625
0
LINE
8
0
10
24.8382388
20
31.2625625
11
6.996516
21
29.3873219
0
LINE
8
0
10
6.996516
20
29.3873219
11
8.7724546
21
12.4903949
0
LINE
8
0
10
6.9954708
20
29.3972671
11
24.8371936
21
31.2725077
0
LINE
8
0
10
24.8371936
20
31.2725077
11
23.061255
21
48.1694347
0
LINE
8
0
10
23.061255
20
48.1694347
11
5.2195322
21
46.2941941
0
LINE
8
0
10
5.2195322
20
46.2941941
11
6.9954708
21
29.3972671
0
LINE
8
0
10
31.849652
20
-0.7125049
11
49.7650659
21
0.2264021
0
LINE
8
0
10
49.7650659
20
0.2264021
11
48.875878
21
17.1931179
0
LINE
8
0
10
48.875878
20
17.1931179
11
30.9604641
21
16.2542109
0
LINE
8
0
10
30.9604641
20
16.2542109
11
31.849652
21
-0.7125049
0
LINE
8
0
10
30.9599407
20
16.2641972
11
48.8753546
21
17.2031042
0
LINE
8
0
10
48.8753546
20
17.2031042
11
47.9861667
21
34.16982
0
LINE
8
0
10
47.9861667
20
34.16982
11
30.0707528
21
33.230913
0
LINE
8
0
10
30.0707528
20
33.230913
11
30.9599407
21
16.2641972
0
LINE
8
0
10
30.0702294
20
33.2408992
11
47.9856433
21
34.1798062
0
LINE
8
0
10
47.9856433
20
34.1798062
11
47.0964554
21
51.146522
0
LINE
8
0
10
47.0964554
20
51.146522
11
29.1810415
21
50.207615
0
LINE
8
0
10
29.1810415
20
50.207615
11
30.0702294
21
33.2408992
0
LINE
8
0
10
29.1805182
20
50.2176013
11
47.0959321
21
51.1565083
0
LINE
8
0
10
47.0959321
20
51.1565083
11
46.2067442
21
68.1232241
0
LINE
8
0
10
46.2067442
20
68.1232241
11
28.2913303
21
67.1843171
0
LINE
8
0
10
28.2913303
20
67.1843171
11
29.1805182
21
50.2176013
0
LINE
8
0
10
49.6572537
20
29.7923743
11
67.5972537
21
29.7923743
0
LINE
8
0
10
67.5972537
20
29.7923743
11
67.5972537
21
46.7823743
0
LINE
8
0
10
67.5972537
20
46.7823743
11
49.6572537
21
46.7823743
0
LINE
8
0
10
49.6572537
20
46.7823743
11
49.6572537
21
29.7923743
0
LINE
8
0
10
49.6572537
20
46.7923743
11
67.5972537
21
46.7923743
0
LINE
8
0
10
67.5972537
20
46.7923743
11
67.5972537
21
63.7823743
0
LINE
8
0
10
67.5972537
20
63.7823743
11
49.6572537
21
63.7823743
0
LINE
8
0
10
49.6572537
20
63.7823743
11
49.6572537
21
46.7923743
0
LINE
8
0
10
49.6572538
20
63.7923744
11
67.5972538
21
63.7923744
0
LINE
8
0
10
67.5972538
20
63.7923744
11
67.5972538
21
80.7823744
0
LINE
8
0
10
67.5972538
20
80.7823744
11
49.6572538
21
80.7823744
0
LINE
8
0
10
49.6572538
20
80.7823744
11
49.6572538
21
63.7923744
0
LINE
8
0
10
66.1501822
20
-3.3710215
11
84.0219151
21
-4.9345956
0
LINE
8
0
10
84.0219151
20
-4.9345956
11
85.5026912
21
11.9907523
0
LINE
8
0
10
85.5026912
20
11.9907523
11
67.6309583
21
13.5543264
0
LINE
8
0
10
67.6309583
20
13.5543264
11
66.1501822
21
-3.3710215
0
LINE
8
0
10
67.63183
20
13.5642884
11
85.5035629
21
12.0007143
0
LINE
8
0
10
85.5035629
20
12.0007143
11
86.984339
21
28.9260622
0
LINE
8
0
10
86.984339
20
28.9260622
11
69.1126061
21
30.4896363
0
LINE
8
0
10
69.1126061
20
30.4896363
11
67.63183
21
13.5642884
0
LINE
8
0
10
69.1134777
20
30.4995982
11
86.9852106
21
28.9360241
0
LINE
8
0
10
86.9852106
20
28.9360241
11
88.4659867
21
45.861372
0
LINE
8
0
10
88.4659867
20
45.861372
11
70.5942538
21
47.4249461
0
LINE
8
0
10
70.5942538
20
47.4249461
11
69.1134777
21
30.4995982
0
LINE
8
0
10
70.5951252
20
47.4349081
11
88.4668581
21
45.871334
0
LINE
8
0
10
88.4668581
20
45.871334
11
89.9476342
21
62.7966819
0
LINE
8
0
10
89.9476342
20
62.7966819
11
72.0759013
21
64.360256
0
LINE
8
0
10
72.0759013
20
64.360256
11
70.5951252
21
47.4349081
0
LINE
8
0
10
86.3024198
20
8.9695549
11
104.1741527
21
7.4059808
0
LINE
8
0
10
104.1741527
20
7.4059808
11
105.6549288
21
24.3313287
0
LINE
8
0
10
105.6549288
20
24.3313287
11
87.7831959
21
25.8949028
0
LINE
8
0
10
87.7831959
20
25.8949028
11
86.3024198
21
8.9695549
0
LINE
8
0
10
87.7840675
20
25.9048647
11
105.6558004
21
24.3412906
0
LINE
8
0
10
105.6558004
20
24.3412906
11
107.1365765
21
41.2666385
0
LINE
8
0
10
107.1365765
20
41.2666385
11
89.2648436
21
42.8302126
0
LINE
8
0
10
89.2648436
20
42.8302126
11
87.7840675
21
25.9048647
0
LINE
8
0
10
89.265715
20
42.8401746
11
107.1374479
21
41.2766005
0
LINE
8
0
10
107.1374479
20
41.2766005
11
108.618224
21
58.2019484
0
LINE
8
0
10
108.618224
20
58.2019484
11
90.7464911
21
59.7655225
0
LINE
8
0
10
90.7464911
20
59.7655225
11
89.265715
21
42.8401746
0
LINE
8
0
10
84.1235262
20
-15.9353126
11
101.9952591
21
-17.4988867
0
LINE
8
0
10
101.9952591
20
-17.4988867
11
103.4760352
21
-0.5735388
0
LINE
8
0
10
103.4760352
20
-0.5735388
11
85.6043023
21
0.9900353
0
LINE
8
0
10
85.6043023
20
0.9900353
11
84.1235262
21
-15.9353126
0
LINE
8
0
10
103.9992046
20
-17.7366518
11
121.5471726
21
-21.4665875
0
LINE
8
0
10
121.5471726
20
-21.4665875
11
125.0795922
21
-4.8478598
0
LINE
8
0
10
125.0795922
20
-4.8478598
11
107.5316242
21
-1.1179241
0
LINE
8
0
10
107.5316242
20
-1.1179241
11
103.9992046
21
-17.7366518
0
LINE
8
0
10
123.5072046
20
-21.9467999
11
140.4698079
21
-27.7874925
0
LINE
8
0
10
140.4698079
20
-27.7874925
11
146.0012108
21
-11.7231319
0
LINE
8
0
10
146.0012108
20
-11.7231319
11
129.0386075
21
-5.8824393
0
LINE
8
0
10
129.0386075
20
-5.8824393
11
123.5072046
21
-21.9467999
0
LINE
8
0
10
128.5830641
20
6.6806531
11
135.2362382
21
37.9813763
0
LINE
8
0
10
135.2362382
20
37.9813763
11
117.6295814
21
41.7237868
0
LINE
8
0
10
117.6295814
20
41.7237868
11
115.4465086
21
31.4532369
0
LINE
8
0
10
114.8227735
20
28.5187941
11
110.9764073
21
10.4230635
0
LINE
8
0
10
110.9764073
20
10.4230635
11
128.5830641
21
6.6806531
0
LINE
8
0
10
149.1594003
20
-8.7863371
11
151.145366
21
-3.0186738
0
LINE
8
0
10
151.145366
20
-3.0186738
11
139.6100394
21
0.9532577
0
LINE
8
0
10
139.6100394
20
0.9532577
11
137.6240737
21
-4.8144056
0
LINE
8
0
10
137.6240737
20
-4.8144056
11
149.1594003
21
-8.7863371
0
LINE
8
0
10
111.3803911
20
19.5382595
11
112.6486524
21
25.5049599
0
LINE
8
0
10
112.6486524
20
25.5049599
11
108.736062
21
26.3366066
0
LINE
8
0
10
108.736062
20
26.3366066
11
107.4678007
21
20.3699063
0
LINE
8
0
10
107.4678007
20
20.3699063
11
111.3803911
21
19.5382595
0
LINE
8
0
10
108.4648141
20
29.8702201
11
114.8227735
21
28.5187941
0
LINE
8
0
10
115.4465086
20
31.4532369
11
109.0885492
21
32.8046629
0
LINE
8
0
10
109.0885492
20
32.8046629
11
108.4648141
21
29.8702201
0
ENDSEC
0
EOF