0
SECTION
2
HEADER
9
$INSUNITS
70
4
0
ENDSEC
0
SECTION
2
TABLES
0
TABLE
2
LTYPE
0
LTYPE
72
65
70
64
2
CONTINUOUS
3
______
73
0
40
0
0
ENDTAB
0
TABLE
2
LAYER
0
ENDTAB
0
ENDSEC
0
SECTION
2
ENTITIES
0
LINE
8
0
10
-6.229954
20
-7.6933525
11
7.6933525
21
-6.229954
0
LINE
8
0
10
7.6933525
20
-6.229954
11
6.229954
21
7.6933525
0
LINE
8
0
10
6.229954
20
7.6933525
11
-7.6933525
21
6.229954
0
LINE
8
0
10
-7.6933525
20
6.229954
11
-6.229954
21
-7.6933525
0
LINE
8
0
10
-8.0069379
20
9.2135197
11
5.9163686
21
10.6769182
0
LINE
8
0
10
5.9163686
20
10.6769182
11
4.4529701
21
24.6002247
0
LINE
8
0
10
4.4529701
20
24.6002247
11
-9.4703364
21
23.1368262
0
LINE
8
0
10
-9.4703364
20
23.1368262
11
-8.0069379
21
9.2135197
0
LINE
8
0
10
-9.7839218
20
26.1203919
11
4.1393847
21
27.5837904
0
LINE
8
0
10
4.1393847
20
27.5837904
11
2.6759862
21
41.5070969
0
LINE
8
0
10
2.6759862
20
41.5070969
11
-11.2473203
21
40.0436984
0
LINE
8
0
10
-11.2473203
20
40.0436984
11
-9.7839218
21
26.1203919
0
LINE
8
0
10
12.3523766
20
-2.723746
11
26.2756831
21
-1.2603475
0
LINE
8
0
10
26.2756831
20
-1.2603475
11
24.8122846
21
12.662959
0
LINE
8
0
10
24.8122846
20
12.662959
11
10.8889781
21
11.1995605
0
LINE
8
0
10
10.8889781
20
11.1995605
11
12.3523766
21
-2.723746
0
LINE
8
0
10
10.5753927
20
14.1831262
11
24.4986992
21
15.6465247
0
LINE
8
0
10
24.4986992
20
15.6465247
11
23.0353007
21
29.5698312
0
LINE
8
0
10
23.0353007
20
29.5698312
11
9.1119942
21
28.1064327
0
LINE
8
0
10
9.1119942
20
28.1064327
11
10.5753927
21
14.1831262
0
LINE
8
0
10
8.7984089
20
31.0899984
11
22.7217154
21
32.5533969
0
LINE
8
0
10
22.7217154
20
32.5533969
11
21.2583169
21
46.4767034
0
LINE
8
0
10
21.2583169
20
46.4767034
11
7.3350104
21
45.0133049
0
LINE
8
0
10
7.3350104
20
45.0133049
11
8.7984089
21
31.0899984
0
LINE
8
0
10
33.73871
20
0.8835481
11
47.7195234
21
1.6162515
0
LINE
8
0
10
47.7195234
20
1.6162515
11
46.98682
21
15.5970649
0
LINE
8
0
10
46.98682
20
15.5970649
11
33.0060066
21
14.8643615
0
LINE
8
0
10
33.0060066
20
14.8643615
11
33.73871
21
0.8835481
0
LINE
8
0
10
32.8489987
20
17.8602502
11
46.8298121
21
18.5929536
0
LINE
8
0
10
46.8298121
20
18.5929536
11
46.0971087
21
32.573767
0
LINE
8
0
10
46.0971087
20
32.573767
11
32.1162953
21
31.8410636
0
LINE
8
0
10
32.1162953
20
31.8410636
11
32.8489987
21
17.8602502
0
LINE
8
0
10
31.9592874
20
34.8369522
11
45.9401008
21
35.5696556
0
LINE
8
0
10
45.9401008
20
35.5696556
11
45.2073974
21
49.550469
0
LINE
8
0
10
45.2073974
20
49.550469
11
31.226584
21
48.8177656
0
LINE
8
0
10
31.226584
20
48.8177656
11
31.9592874
21
34.8369522
0
LINE
8
0
10
31.0695762
20
51.8136543
11
45.0503896
21
52.5463577
0
LINE
8
0
10
45.0503896
20
52.5463577
11
44.3176862
21
66.5271711
0
LINE
8
0
10
44.3176862
20
66.5271711
11
30.3368728
21
65.7944677
0
LINE
8
0
10
30.3368728
20
65.7944677
11
31.0695762
21
51.8136543
0
LINE
8
0
10
51.6272537
20
31.2873743
11
65.6272537
21
31.2873743
0
LINE
8
0
10
65.6272537
20
31.2873743
11
65.6272537
21
45.2873743
0
LINE
8
0
10
65.6272537
20
45.2873743
11
51.6272537
21
45.2873743
0
LINE
8
0
10
51.6272537
20
45.2873743
11
51.6272537
21
31.2873743
0
LINE
8
0
10
51.6272537
20
48.2873743
11
65.6272537
21
48.2873743
0
LINE
8
0
10
65.6272537
20
48.2873743
11
65.6272537
21
62.2873743
0
LINE
8
0
10
65.6272537
20
62.2873743
11
51.6272537
21
62.2873743
0
LINE
8
0
10
51.6272537
20
62.2873743
11
51.6272537
21
48.2873743
0
LINE
8
0
10
51.6272538
20
65.2873744
11
65.6272538
21
65.2873744
0
LINE
8
0
10
65.6272538
20
65.2873744
11
65.6272538
21
79.2873744
0
LINE
8
0
10
65.6272538
20
79.2873744
11
51.6272538
21
79.2873744
0
LINE
8
0
10
51.6272538
20
79.2873744
11
51.6272538
21
65.2873744
0
LINE
8
0
10
68.2429836
20
-2.0534073
11
82.1897094
21
-3.2735877
0
LINE
8
0
10
82.1897094
20
-3.2735877
11
83.4098898
21
10.6731381
0
LINE
8
0
10
83.4098898
20
10.6731381
11
69.463164
21
11.8933185
0
LINE
8
0
10
69.463164
20
11.8933185
11
68.2429836
21
-2.0534073
0
LINE
8
0
10
69.7246314
20
14.8819026
11
83.6713572
21
13.6617222
0
LINE
8
0
10
83.6713572
20
13.6617222
11
84.8915376
21
27.608448
0
LINE
8
0
10
84.8915376
20
27.608448
11
70.9448118
21
28.8286284
0
LINE
8
0
10
70.9448118
20
28.8286284
11
69.7246314
21
14.8819026
0
LINE
8
0
10
71.2062791
20
31.8172124
11
85.1530049
21
30.597032
0
LINE
8
0
10
85.1530049
20
30.597032
11
86.3731853
21
44.5437578
0
LINE
8
0
10
86.3731853
20
44.5437578
11
72.4264595
21
45.7639382
0
LINE
8
0
10
72.4264595
20
45.7639382
11
71.2062791
21
31.8172124
0
LINE
8
0
10
72.6879266
20
48.7525223
11
86.6346524
21
47.5323419
0
LINE
8
0
10
86.6346524
20
47.5323419
11
87.8548328
21
61.4790677
0
LINE
8
0
10
87.8548328
20
61.4790677
11
73.908107
21
62.6992481
0
LINE
8
0
10
73.908107
20
62.6992481
11
72.6879266
21
48.7525223
0
LINE
8
0
10
88.3952212
20
10.2871691
11
102.341947
21
9.0669887
0
LINE
8
0
10
102.341947
20
9.0669887
11
103.5621274
21
23.0137145
0
LINE
8
0
10
103.5621274
20
23.0137145
11
89.6154016
21
24.2338949
0
LINE
8
0
10
89.6154016
20
24.2338949
11
88.3952212
21
10.2871691
0
LINE
8
0
10
89.8768689
20
27.2224789
11
103.8235947
21
26.0022985
0
LINE
8
0
10
103.8235947
20
26.0022985
11
105.0437751
21
39.9490243
0
LINE
8
0
10
105.0437751
20
39.9490243
11
91.0970493
21
41.1692047
0
LINE
8
0
10
91.0970493
20
41.1692047
11
89.8768689
21
27.2224789
0
LINE
8
0
10
91.3585164
20
44.1577888
11
105.3052422
21
42.9376084
0
LINE
8
0
10
105.3052422
20
42.9376084
11
106.5254226
21
56.8843342
0
LINE
8
0
10
106.5254226
20
56.8843342
11
92.5786968
21
58.1045146
0
LINE
8
0
10
92.5786968
20
58.1045146
11
91.3585164
21
44.1577888
0
LINE
8
0
10
86.2163276
20
-14.6176984
11
100.1630534
21
-15.8378788
0
LINE
8
0
10
100.1630534
20
-15.8378788
11
101.3832338
21
-1.891153
0
LINE
8
0
10
101.3832338
20
-1.891153
11
87.436508
21
-0.6709726
0
LINE
8
0
10
87.436508
20
-0.6709726
11
86.2163276
21
-14.6176984
0
LINE
8
0
10
106.2369834
20
-16.6839072
11
119.9310498
21
-19.5946708
0
LINE
8
0
10
119.9310498
20
-19.5946708
11
122.8418134
21
-5.9006044
0
LINE
8
0
10
122.8418134
20
-5.9006044
11
109.147747
21
-2.9898408
0
LINE
8
0
10
109.147747
20
-2.9898408
11
106.2369834
21
-16.6839072
0
LINE
8
0
10
125.8566006
20
-21.1746188
11
139.0938606
21
-25.732573
0
LINE
8
0
10
139.0938606
20
-25.732573
11
143.6518148
21
-12.495313
0
LINE
8
0
10
143.6518148
20
-12.495313
11
130.4145548
21
-7.9373588
0
LINE
8
0
10
130.4145548
20
-7.9373588
11
125.8566006
21
-21.1746188
0
LINE
8
0
10
-6.8165146
20
-9.7660191
11
10.3887142
21
-7.9576767
0
LINE
8
0
10
-14.3978313
20
43.2318454
11
-9.0146153
21
-7.9860323
0
LINE
8
0
10
-12.6178445
20
45.4299461
11
4.5873844
21
47.2382885
0
LINE
8
0
10
10.3887142
20
-7.9576766
11
33.2740396
21
-5.5523321
0
LINE
8
0
10
4.5873845
20
47.2382885
11
26.4869603
21
49.5400267
0
LINE
8
0
10
49.6783108
20
17.7408647
11
49.7306467
21
16.7422352
0
LINE
8
0
10
49.7306467
20
16.7422352
11
50.7459644
21
-2.6311778
0
LINE
8
0
10
33.3784245
20
-5.5441168
11
48.8533773
21
-4.7331088
0
LINE
8
0
10
49.183485
20
27.1827024
11
49.6783108
21
17.7408647
0
LINE
8
0
10
29.4332972
20
67.749858
11
46.9319258
21
68.6669223
0
LINE
8
0
10
27.5407101
20
65.647927
11
28.2751624
21
51.6337423
0
LINE
8
0
10
51.1807441
20
29.2873743
11
65.9916343
21
29.2873743
0
LINE
8
0
10
50.8272538
20
81.2873744
11
66.4272538
21
81.2873744
0
LINE
8
0
10
68.4272538
20
67.0190627
11
68.4272538
21
79.2873744
0
LINE
8
0
10
48.8272538
20
70.6641814
11
48.8272538
21
79.2873744
0
LINE
8
0
10
65.0989648
20
-5.86331
11
66.7609748
21
13.1335493
0
LINE
8
0
10
66.7609748
20
13.1335493
11
66.8481303
21
14.129744
0
LINE
8
0
10
66.8481303
20
14.129744
11
67.9840237
21
27.1130628
0
LINE
8
0
10
70.2529423
20
65.0266733
11
90.519631
21
63.2535677
0
LINE
8
0
10
107.2231203
20
24.7010588
11
107.1359646
21
23.704864
0
LINE
8
0
10
105.2096859
20
1.6873983
11
107.1359646
21
23.704864
0
LINE
8
0
10
108.704768
20
41.6363686
11
108.6176121
21
40.6401739
0
LINE
8
0
10
108.6176121
20
40.6401739
11
107.9203663
21
32.6706163
0
LINE
8
0
10
107.9203663
20
32.6706163
11
107.2231203
21
24.7010588
0
LINE
8
0
10
90.5239888
20
63.3033774
11
108.4554933
21
61.7345741
0
LINE
8
0
10
110.2735712
20
59.5678733
11
109.4020138
21
49.6059262
0
LINE
8
0
10
109.4020138
20
49.6059262
11
108.704768
21
41.6363686
0
LINE
8
0
10
90.519631
20
63.2535677
11
90.5239888
21
63.3033774
0
LINE
8
0
10
103.4748833
20
-18.1414858
11
103.4736802
21
-18.1552372
0
LINE
8
0
10
87.2251633
20
-16.7336761
11
103.4736802
21
-18.1552372
0
LINE
8
0
10
106.7862519
20
-0.4432083
11
127.4627453
21
-4.8381327
0
LINE
8
0
10
103.4748833
20
-18.1414858
11
122.7697309
21
-22.2427323
0
LINE
8
0
10
127.4727205
20
-4.8091627
11
146.1939883
21
-11.2554121
0
LINE
8
0
10
142.8759349
20
-27.0348458
11
147.4338891
21
-13.7975856
0
LINE
8
0
10
123.0050438
20
-22.3079905
11
140.3337613
21
-28.2747465
0
LINE
8
0
10
127.4627453
20
-4.8381327
11
127.4727205
21
-4.8091627
0
ARC
8
0
10
58.6272537
20
-33.1126257
40
25.1
50
93.4732318
51
358.0518227
0
LINE
8
0
10
63.2112474
20
-7.6862576
11
57.1038941
21
-8.0063304
0
LINE
8
0
10
57.1038941
20
-8.0063304
11
57.1066402
21
-8.0587291
0
LINE
8
0
10
83.7192
20
-33.8595939
11
85.0584625
21
-18.551754
0
ARC
8
0
10
33.4830966
20
-7.5413758
40
2
50
93.0000026
51
96.0000021
0
ARC
8
0
10
48.7487053
20
-2.7358497
40
2
50
273.0000026
51
2.9999992
0
ARC
8
0
10
51.1807441
20
27.2873743
40
2
50
90
51
182.9999992
0
ARC
8
0
10
65.9916343
20
27.2873743
40
2
50
354.9999988
51
90
0
ARC
8
0
10
63.1065754
20
-5.6889985
40
2
50
273.0000026
51
354.9999988
0
ARC
8
0
10
85.7115895
20
-34.0339053
40
2
50
175.0000024
51
178.0518227
0
ARC
8
0
10
87.0508519
20
-18.7260655
40
2
50
85.0000024
51
174.9999988
0
ARC
8
0
10
122.3539075
20
-24.1990275
40
2
50
70.999998
51
77.9999995
0
ARC
8
0
10
140.9848977
20
-26.3837094
40
2
50
250.999998
51
340.999998
0
ARC
8
0
10
145.5428519
20
-13.1464493
40
2
50
340.999999
51
70.999998
0
ARC
8
0
10
107.2020753
20
1.5130869
40
2
50
175.0000024
51
257.9999995
0
ARC
8
0
10
108.2811818
20
59.7421847
40
2
50
355.0000024
51
84.9999988
0
ARC
8
0
10
70.4272538
20
67.0190627
40
2
50
180
51
264.9999988
0
ARC
8
0
10
66.4272538
20
79.2873744
40
2
50
0
51
90
0
ARC
8
0
10
50.8272538
20
79.2873744
40
2
50
90
51
180
0
ARC
8
0
10
46.8272538
20
70.6641814
40
2
50
273.0000026
51
0
0
ARC
8
0
10
29.5379692
20
65.7525989
40
2
50
93.0000026
51
182.9999992
0
ARC
8
0
10
26.2779033
20
51.5290704
40
2
50
276.0000021
51
2.9999992
0
ARC
8
0
10
-12.4087875
20
43.4409023
40
2
50
96.0000021
51
186.0000005
0
ARC
8
0
10
-7.0255715
20
-7.7769753
40
2
50
186.0000021
51
276.0000005
0
ARC
8
0
10
50.4463755
20
-2.6468786
40
0.3
50
2.9999992
51
3.0000026
0
ARC
8
0
10
49.4830739
20
27.1984032
40
0.3
50
182.9999992
51
183.0000026
0
ARC
8
0
10
67.6851653
20
27.1392095
40
0.3
50
354.9999967
51
354.9999988
0
ARC
8
0
10
67.0598332
20
13.1074026
40
0.3
50
175.0000024
51
175.0000139
0
ARC
8
0
10
64.8001064
20
-5.8371633
40
0.3
50
354.9999988
51
355.0000024
0
ARC
8
0
10
85.3573209
20
-18.5779007
40
0.3
50
174.9999988
51
175.0000024
0
ARC
8
0
10
147.1502335
20
-13.6999152
40
0.3
50
340.999998
51
340.999999
0
ARC
8
0
10
108.4293466
20
61.4357157
40
0.3
50
84.9999988
51
85.0000024
0
ARC
8
0
10
70.279089
20
65.3255317
40
0.3
50
264.9999988
51
265.0000024
0
ARC
8
0
10
27.840299
20
65.6636278
40
0.3
50
182.9999992
51
183.0000026
0
ARC
8
0
10
27.9755735
20
51.6180415
40
0.3
50
2.9999992
51
3.0000026
0
ARC
8
0
10
-14.0994747
20
43.2632039
40
0.3
50
186.0000005
51
186.0000021
0
ARC
8
0
10
-6.8478731
20
-9.4676625
40
0.3
50
276.0000005
51
276.0000021
0
ARC
8
0
10
58.6272537
20
-33.1126257
40
20.1
50
94.2797832
51
445.7202168
0
LINE
8
0
10
60.1272537
20
-13.068674
11
60.1272537
21
-11.6126257
0
LINE
8
0
10
60.1272537
20
-11.6126257
11
57.1272537
21
-11.6126257
0
LINE
8
0
10
57.1272537
20
-11.6126257
11
57.1272537
21
-13.068674
0
ENDSEC
0
EOF