0
SECTION
2
HEADER
9
$INSUNITS
70
4
0
ENDSEC
0
SECTION
2
TABLES
0
TABLE
2
LTYPE
0
LTYPE
72
65
70
64
2
CONTINUOUS
3
______
73
0
40
0
0
ENDTAB
0
TABLE
2
LAYER
0
ENDTAB
0
ENDSEC
0
SECTION
2
ENTITIES
0
LINE
8
0
10
-8.8055584
20
-9.975076
11
10.3887142
21
-7.9576767
0
LINE
8
0
10
-14.6068882
20
45.2208892
11
-8.8055584
21
-9.975076
0
LINE
8
0
10
-14.6068882
20
45.2208892
11
4.5873844
21
47.2382885
0
LINE
8
0
10
10.3887142
20
-7.9576766
11
33.326125
21
-5.5468577
0
LINE
8
0
10
4.5873845
20
47.2382885
11
28.3744923
21
49.7384143
0
LINE
8
0
10
49.6783108
20
17.7408647
11
49.7306467
21
16.7422352
0
LINE
8
0
10
49.7306467
20
16.7422352
11
50.8506363
21
-4.6284369
0
LINE
8
0
10
33.326125
20
-5.5468577
11
50.8506363
21
-4.6284369
0
LINE
8
0
10
49.0731838
20
29.2873743
11
49.6783108
21
17.7408647
0
LINE
8
0
10
27.4360382
20
67.6451861
11
48.8272538
21
68.7662523
0
LINE
8
0
10
27.4360382
20
67.6451861
11
28.3744923
21
49.7384143
0
LINE
8
0
10
49.0731838
20
29.2873743
11
68.1742513
21
29.2873743
0
LINE
8
0
10
48.8272538
20
81.2873744
11
68.4272538
21
81.2873744
0
LINE
8
0
10
68.4272538
20
65.1864003
11
68.4272538
21
81.2873744
0
LINE
8
0
10
48.8272538
20
68.7662523
11
48.8272538
21
81.2873744
0
LINE
8
0
10
64.9474382
20
-7.5952676
11
66.7609748
21
13.1335493
0
LINE
8
0
10
66.7609748
20
13.1335493
11
66.8481303
21
14.129744
0
LINE
8
0
10
66.8481303
20
14.129744
11
68.1742513
21
29.2873743
0
LINE
8
0
10
68.4272538
20
65.1864003
11
90.519631
21
63.2535677
0
LINE
8
0
10
107.2231203
20
24.7010588
11
107.1359646
21
23.704864
0
LINE
8
0
10
105.0554681
20
-0.0753188
11
107.1359646
21
23.704864
0
LINE
8
0
10
108.704768
20
41.6363686
11
108.6176121
21
40.6401739
0
LINE
8
0
10
108.6176121
20
40.6401739
11
107.9203663
21
32.6706163
0
LINE
8
0
10
107.9203663
20
32.6706163
11
107.2231203
21
24.7010588
0
LINE
8
0
10
90.5239888
20
63.3033774
11
110.4478827
21
61.5602626
0
LINE
8
0
10
110.4478827
20
61.5602626
11
109.4020138
21
49.6059262
0
LINE
8
0
10
109.4020138
20
49.6059262
11
108.704768
21
41.6363686
0
LINE
8
0
10
90.519631
20
63.2535677
11
90.5239888
21
63.3033774
0
LINE
8
0
10
103.4748833
20
-18.1414858
11
103.4736802
21
-18.1552372
0
LINE
8
0
10
85.232774
20
-16.5593646
11
103.4736802
21
-18.1552372
0
LINE
8
0
10
105.0554681
20
-0.0753188
11
127.4627453
21
-4.8381327
0
LINE
8
0
10
103.4748833
20
-18.1414858
11
122.8893826
21
-22.2681651
0
LINE
8
0
10
127.4727205
20
-4.8091627
11
148.0850254
21
-11.9065484
0
LINE
8
0
10
142.2247986
20
-28.9258828
11
148.0850254
21
-11.9065484
0
LINE
8
0
10
122.8893826
20
-22.2681651
11
142.2247986
21
-28.9258828
0
LINE
8
0
10
127.4627453
20
-4.8381327
11
127.4727205
21
-4.8091627
0
ARC
8
0
10
58.6272537
20
-33.1126257
40
25.1
50
93.4732318
51
358.171109
0
LINE
8
0
10
64.9474382
20
-7.5952676
11
57.1038941
21
-8.0063304
0
LINE
8
0
10
57.1038941
20
-8.0063304
11
57.1066402
21
-8.0587291
0
LINE
8
0
10
83.7144676
20
-33.9136859
11
85.232774
21
-16.5593646
0
ENDSEC
0
EOF