0
SECTION
2
HEADER
9
$INSUNITS
70
4
0
ENDSEC
0
SECTION
2
TABLES
0
TABLE
2
LTYPE
0
LTYPE
72
65
70
64
2
CONTINUOUS
3
______
73
0
40
0
0
ENDTAB
0
TABLE
2
LAYER
0
ENDTAB
0
ENDSEC
0
SECTION
2
ENTITIES
0
LINE
8
0
10
-8.8055584
20
-9.975076
11
10.3887142
21
-7.9576767
0
LINE
8
0
10
-14.6068882
20
45.2208892
11
-8.8055584
21
-9.975076
0
LINE
8
0
10
-14.6068882
20
45.2208892
11
4.5873844
21
47.2382885
0
LINE
8
0
10
10.3887142
20
-7.9576766
11
33.326125
21
-5.5468577
0
LINE
8
0
10
4.5873845
20
47.2382885
11
28.3744923
21
49.7384143
0
LINE
8
0
10
49.6783108
20
17.7408647
11
49.7306467
21
16.7422352
0
LINE
8
0
10
49.7306467
20
16.7422352
11
50.8506363
21
-4.6284369
0
LINE
8
0
10
33.326125
20
-5.5468577
11
50.8506363
21
-4.6284369
0
LINE
8
0
10
49.0731838
20
29.2873743
11
49.6783108
21
17.7408647
0
LINE
8
0
10
27.4360382
20
67.6451861
11
48.8272538
21
68.7662523
0
LINE
8
0
10
27.4360382
20
67.6451861
11
28.3744923
21
49.7384143
0
LINE
8
0
10
49.0731838
20
29.2873743
11
68.1742513
21
29.2873743
0
LINE
8
0
10
48.8272538
20
81.2873744
11
68.4272538
21
81.2873744
0
LINE
8
0
10
68.4272538
20
65.1864003
11
68.4272538
21
81.2873744
0
LINE
8
0
10
48.8272538
20
68.7662523
11
48.8272538
21
81.2873744
0
LINE
8
0
10
83.5497863
20
-16.4121223
11
83.5471715
21
-16.4420081
0
LINE
8
0
10
64.3206138
20
-14.7599023
11
83.5471715
21
-16.4420081
0
LINE
8
0
10
64.3206138
20
-14.7599023
11
66.7609748
21
13.1335493
0
LINE
8
0
10
66.7609748
20
13.1335493
11
66.8481303
21
14.129744
0
LINE
8
0
10
66.8481303
20
14.129744
11
68.1742513
21
29.2873743
0
LINE
8
0
10
68.4272538
20
65.1864003
11
90.519631
21
63.2535677
0
LINE
8
0
10
90.5239888
20
63.3033774
11
110.4478827
21
61.5602626
0
LINE
8
0
10
108.9103389
20
43.9860552
11
110.4478827
21
61.5602626
0
LINE
8
0
10
90.519631
20
63.2535677
11
90.5239888
21
63.3033774
0
LINE
8
0
10
103.4748833
20
-18.1414858
11
103.4736802
21
-18.1552372
0
LINE
8
0
10
83.5497863
20
-16.4121223
11
103.4736802
21
-18.1552372
0
LINE
8
0
10
103.4748833
20
-18.1414858
11
122.8893826
21
-22.2681651
0
LINE
8
0
10
142.2247986
20
-28.9258828
11
146.4897415
21
-16.5395894
0
LINE
8
0
10
122.8893826
20
-22.2681651
11
142.2247986
21
-28.9258828
0
LINE
8
0
10
146.4897415
20
-16.5395894
11
146.5842934
21
-16.5721462
0
LINE
8
0
10
146.5842934
20
-16.5721462
11
151.3701452
21
-2.6730231
0
LINE
8
0
10
151.3701452
20
-2.6730231
11
134.0002121
21
3.3079245
0
LINE
8
0
10
134.0002121
20
3.3079245
11
141.1882885
21
37.1251652
0
LINE
8
0
10
141.1882885
20
37.1251652
11
108.9103389
21
43.9860552
0
ENDSEC
0
EOF