0
SECTION
2
HEADER
9
$INSUNITS
70
4
0
ENDSEC
0
SECTION
2
TABLES
0
TABLE
2
LTYPE
0
LTYPE
72
65
70
64
2
CONTINUOUS
3
______
73
0
40
0
0
ENDTAB
0
TABLE
2
LAYER
0
ENDTAB
0
ENDSEC
0
SECTION
2
ENTITIES
0
LINE
8
0
10
-6.8165145
20
-9.7660191
11
10.3887142
21
-7.9576767
0
LINE
8
0
10
-14.3978313
20
43.2318453
11
-9.0146153
21
-7.9860323
0
LINE
8
0
10
-12.6178445
20
45.4299461
11
4.5873844
21
47.2382885
0
LINE
8
0
10
10.3887142
20
-7.9576766
11
33.2740396
21
-5.5523321
0
LINE
8
0
10
4.5873845
20
47.2382885
11
26.4869603
21
49.5400267
0
LINE
8
0
10
49.6783108
20
17.7408647
11
49.7306467
21
16.7422352
0
LINE
8
0
10
49.7306467
20
16.7422352
11
50.7459644
21
-2.6311777
0
LINE
8
0
10
33.3784245
20
-5.5441168
11
48.8533773
21
-4.7331088
0
LINE
8
0
10
49.183485
20
27.1827023
11
49.6783108
21
17.7408647
0
LINE
8
0
10
29.4332972
20
67.749858
11
46.9319258
21
68.6669223
0
LINE
8
0
10
27.5407101
20
65.6479269
11
28.2751624
21
51.6337425
0
LINE
8
0
10
51.1807441
20
29.2873743
11
65.9916343
21
29.2873743
0
LINE
8
0
10
50.8272538
20
81.2873744
11
66.4272538
21
81.2873744
0
LINE
8
0
10
68.4272538
20
67.0190627
11
68.4272538
21
79.2873744
0
LINE
8
0
10
48.8272538
20
70.6641814
11
48.8272538
21
79.2873744
0
LINE
8
0
10
83.5497863
20
-16.4121223
11
83.5471715
21
-16.4420081
0
LINE
8
0
10
66.3130033
20
-14.9342138
11
83.5471715
21
-16.4420081
0
LINE
8
0
10
64.4949253
20
-12.767513
11
66.7609748
21
13.1335493
0
LINE
8
0
10
66.7609748
20
13.1335493
11
66.8481303
21
14.129744
0
LINE
8
0
10
66.8481303
20
14.129744
11
67.9840237
21
27.1130627
0
LINE
8
0
10
70.2529424
20
65.0266732
11
90.519631
21
63.2535677
0
LINE
8
0
10
90.5239888
20
63.3033774
11
108.4554932
21
61.7345741
0
LINE
8
0
10
109.0645567
20
45.7487723
11
110.2735712
21
59.5678733
0
LINE
8
0
10
90.519631
20
63.2535677
11
90.5239888
21
63.3033774
0
LINE
8
0
10
103.4748833
20
-18.1414858
11
103.4736802
21
-18.1552372
0
LINE
8
0
10
83.5497863
20
-16.4121223
11
103.4736802
21
-18.1552372
0
LINE
8
0
10
103.4748833
20
-18.1414858
11
122.7697309
21
-22.2427323
0
LINE
8
0
10
142.8759349
20
-27.0348458
11
146.4897415
21
-16.5395894
0
LINE
8
0
10
123.0050438
20
-22.3079905
11
140.3337613
21
-28.2747465
0
LINE
8
0
10
146.4897415
20
-16.5395894
11
146.5842934
21
-16.5721462
0
LINE
8
0
10
146.5842934
20
-16.5721462
11
150.7190089
21
-4.5640602
0
LINE
8
0
10
149.4791081
20
-2.0218868
11
135.6732603
21
2.7318478
0
LINE
8
0
10
134.3681015
20
5.0387084
11
140.7724651
21
35.16887
0
LINE
8
0
10
139.2319933
20
37.5409886
11
110.6411227
21
43.6181657
0
ARC
8
0
10
33.4830966
20
-7.5413758
40
2
50
93.0000026
51
96.0000021
0
ARC
8
0
10
48.7487053
20
-2.7358497
40
2
50
273.0000026
51
3.0000026
0
ARC
8
0
10
51.1807441
20
27.2873743
40
2
50
90
51
183.0000026
0
ARC
8
0
10
65.9916343
20
27.2873743
40
2
50
354.9999967
51
90
0
ARC
8
0
10
66.4873147
20
-12.9418244
40
2
50
175.0000024
51
265.0000024
0
ARC
8
0
10
122.3539075
20
-24.1990275
40
2
50
70.999998
51
77.9999995
0
ARC
8
0
10
140.9848977
20
-26.3837094
40
2
50
250.999998
51
340.999998
0
ARC
8
0
10
148.8279717
20
-3.912924
40
2
50
341.0000034
51
70.999998
0
ARC
8
0
10
136.3243967
20
4.622885
40
2
50
167.9999995
51
250.999998
0
ARC
8
0
10
138.8161699
20
35.5846934
40
2
50
347.9999995
51
77.9999995
0
ARC
8
0
10
111.0569461
20
45.5744609
40
2
50
175.0000024
51
257.9999995
0
ARC
8
0
10
108.2811818
20
59.7421847
40
2
50
355.0000024
51
85.0000024
0
ARC
8
0
10
70.4272538
20
67.0190627
40
2
50
180
51
265.0000024
0
ARC
8
0
10
66.4272538
20
79.2873744
40
2
50
0
51
90
0
ARC
8
0
10
50.8272538
20
79.2873744
40
2
50
90
51
180
0
ARC
8
0
10
46.8272538
20
70.6641814
40
2
50
273.0000026
51
0
0
ARC
8
0
10
29.5379692
20
65.7525989
40
2
50
93.0000026
51
183.0000026
0
ARC
8
0
10
26.2779033
20
51.5290704
40
2
50
276.0000021
51
3.0000026
0
ARC
8
0
10
-12.4087875
20
43.4409023
40
2
50
96.0000021
51
186.0000021
0
ARC
8
0
10
-7.0255715
20
-7.7769753
40
2
50
186.0000021
51
276.0000021
0
ENDSEC
0
EOF