0
SECTION
2
HEADER
9
$INSUNITS
70
4
0
ENDSEC
0
SECTION
2
TABLES
0
TABLE
2
LTYPE
0
LTYPE
72
65
70
64
2
CONTINUOUS
3
______
73
0
40
0
0
ENDTAB
0
TABLE
2
LAYER
0
ENDTAB
0
ENDSEC
0
SECTION
2
ENTITIES
0
LINE
8
0
10
-6.8165145
20
-9.7660191
11
10.3887142
21
-7.9576767
0
LINE
8
0
10
-14.3978313
20
43.2318453
11
-9.0146153
21
-7.9860323
0
LINE
8
0
10
-12.6178445
20
45.4299461
11
4.5873844
21
47.2382885
0
LINE
8
0
10
10.3887142
20
-7.9576766
11
33.2740396
21
-5.5523321
0
LINE
8
0
10
4.5873845
20
47.2382885
11
26.4869603
21
49.5400267
0
LINE
8
0
10
49.6783108
20
17.7408647
11
49.7306467
21
16.7422352
0
LINE
8
0
10
49.7306467
20
16.7422352
11
50.7459644
21
-2.6311777
0
LINE
8
0
10
33.3784245
20
-5.5441168
11
48.8533773
21
-4.7331088
0
LINE
8
0
10
49.183485
20
27.1827023
11
49.6783108
21
17.7408647
0
LINE
8
0
10
29.4332972
20
67.749858
11
46.9319258
21
68.6669223
0
LINE
8
0
10
27.5407101
20
65.6479269
11
28.2751624
21
51.6337425
0
LINE
8
0
10
51.1807441
20
29.2873743
11
65.9916343
21
29.2873743
0
LINE
8
0
10
50.8272538
20
81.2873744
11
66.4272538
21
81.2873744
0
LINE
8
0
10
68.4272538
20
67.0190627
11
68.4272538
21
79.2873744
0
LINE
8
0
10
48.8272538
20
70.6641814
11
48.8272538
21
79.2873744
0
LINE
8
0
10
83.5497863
20
-16.4121223
11
83.5471715
21
-16.4420081
0
LINE
8
0
10
66.3130033
20
-14.9342138
11
83.5471715
21
-16.4420081
0
LINE
8
0
10
64.4949253
20
-12.767513
11
66.7609748
21
13.1335493
0
LINE
8
0
10
66.7609748
20
13.1335493
11
66.8481303
21
14.129744
0
LINE
8
0
10
66.8481303
20
14.129744
11
67.9840237
21
27.1130627
0
LINE
8
0
10
70.2529424
20
65.0266732
11
90.519631
21
63.2535677
0
LINE
8
0
10
90.5239888
20
63.3033774
11
108.4554932
21
61.7345741
0
LINE
8
0
10
109.0645567
20
45.7487723
11
110.2735712
21
59.5678733
0
LINE
8
0
10
90.519631
20
63.2535677
11
90.5239888
21
63.3033774
0
LINE
8
0
10
103.4748833
20
-18.1414858
11
103.4736802
21
-18.1552372
0
LINE
8
0
10
83.5497863
20
-16.4121223
11
103.4736802
21
-18.1552372
0
LINE
8
0
10
103.4748833
20
-18.1414858
11
122.7697309
21
-22.2427323
0
LINE
8
0
10
142.8759349
20
-27.0348458
11
146.4897415
21
-16.5395894
0
LINE
8
0
10
123.0050438
20
-22.3079905
11
140.3337613
21
-28.2747465
0
LINE
8
0
10
146.4897415
20
-16.5395894
11
146.5842934
21
-16.5721462
0
LINE
8
0
10
146.5842934
20
-16.5721462
11
150.7190089
21
-4.5640602
0
LINE
8
0
10
149.4791081
20
-2.0218868
11
135.6732603
21
2.7318478
0
LINE
8
0
10
134.3681015
20
5.0387084
11
140.7724651
21
35.16887
0
LINE
8
0
10
139.2319933
20
37.5409886
11
110.6411227
21
43.6181657
0
ARC
8
0
10
33.4830966
20
-7.5413758
40
2
50
93.0000026
51
96.0000021
0
ARC
8
0
10
48.7487053
20
-2.7358497
40
2
50
273.0000026
51
3.0000026
0
ARC
8
0
10
51.1807441
20
27.2873743
40
2
50
90
51
183.0000026
0
ARC
8
0
10
65.9916343
20
27.2873743
40
2
50
354.9999967
51
90
0
ARC
8
0
10
66.4873147
20
-12.9418244
40
2
50
175.0000024
51
265.0000024
0
ARC
8
0
10
122.3539075
20
-24.1990275
40
2
50
70.999998
51
77.9999995
0
ARC
8
0
10
140.9848977
20
-26.3837094
40
2
50
250.999998
51
340.999998
0
ARC
8
0
10
148.8279717
20
-3.912924
40
2
50
341.0000034
51
70.999998
0
ARC
8
0
10
136.3243967
20
4.622885
40
2
50
167.9999995
51
250.999998
0
ARC
8
0
10
138.8161699
20
35.5846934
40
2
50
347.9999995
51
77.9999995
0
ARC
8
0
10
111.0569461
20
45.5744609
40
2
50
175.0000024
51
257.9999995
0
ARC
8
0
10
108.2811818
20
59.7421847
40
2
50
355.0000024
51
85.0000024
0
ARC
8
0
10
70.4272538
20
67.0190627
40
2
50
180
51
265.0000024
0
ARC
8
0
10
66.4272538
20
79.2873744
40
2
50
0
51
90
0
ARC
8
0
10
50.8272538
20
79.2873744
40
2
50
90
51
180
0
ARC
8
0
10
46.8272538
20
70.6641814
40
2
50
273.0000026
51
0
0
ARC
8
0
10
29.5379692
20
65.7525989
40
2
50
93.0000026
51
183.0000026
0
ARC
8
0
10
26.2779033
20
51.5290704
40
2
50
276.0000021
51
3.0000026
0
ARC
8
0
10
-12.4087875
20
43.4409023
40
2
50
96.0000021
51
186.0000021
0
ARC
8
0
10
-7.0255715
20
-7.7769753
40
2
50
186.0000021
51
276.0000021
0
LINE
8
0
10
-8.0328921
20
-9.3860838
11
9.8088307
21
-7.5108432
0
LINE
8
0
10
9.8088307
20
-7.5108432
11
8.0328921
21
9.3860838
0
LINE
8
0
10
8.0328921
20
9.3860838
11
-9.8088307
21
7.5108432
0
LINE
8
0
10
-9.8088307
20
7.5108432
11
-8.0328921
21
-9.3860838
0
LINE
8
0
10
-9.809876
20
7.5207884
11
8.0318468
21
9.396029
0
LINE
8
0
10
8.0318468
20
9.396029
11
6.2559082
21
26.292956
0
LINE
8
0
10
6.2559082
20
26.292956
11
-11.5858146
21
24.4177154
0
LINE
8
0
10
-11.5858146
20
24.4177154
11
-9.809876
21
7.5207884
0
LINE
8
0
10
-11.5868599
20
24.4276606
11
6.2548629
21
26.3029012
0
LINE
8
0
10
6.2548629
20
26.3029012
11
4.4789243
21
43.1998282
0
LINE
8
0
10
4.4789243
20
43.1998282
11
-13.3627985
21
41.3245876
0
LINE
8
0
10
-13.3627985
20
41.3245876
11
-11.5868599
21
24.4276606
0
LINE
8
0
10
10.5494385
20
-4.4164773
11
28.3911613
21
-2.5412367
0
LINE
8
0
10
28.3911613
20
-2.5412367
11
26.6152227
21
14.3556903
0
LINE
8
0
10
26.6152227
20
14.3556903
11
8.7734999
21
12.4804497
0
LINE
8
0
10
8.7734999
20
12.4804497
11
10.5494385
21
-4.4164773
0
LINE
8
0
10
8.7724546
20
12.4903949
11
26.6141774
21
14.3656355
0
LINE
8
0
10
26.6141774
20
14.3656355
11
24.8382388
21
31.2625625
0
LINE
8
0
10
24.8382388
20
31.2625625
11
6.996516
21
29.3873219
0
LINE
8
0
10
6.996516
20
29.3873219
11
8.7724546
21
12.4903949
0
LINE
8
0
10
6.9954708
20
29.3972671
11
24.8371936
21
31.2725077
0
LINE
8
0
10
24.8371936
20
31.2725077
11
23.061255
21
48.1694347
0
LINE
8
0
10
23.061255
20
48.1694347
11
5.2195322
21
46.2941941
0
LINE
8
0
10
5.2195322
20
46.2941941
11
6.9954708
21
29.3972671
0
LINE
8
0
10
31.849652
20
-0.7125049
11
49.7650659
21
0.2264021
0
LINE
8
0
10
49.7650659
20
0.2264021
11
48.875878
21
17.1931179
0
LINE
8
0
10
48.875878
20
17.1931179
11
30.9604641
21
16.2542109
0
LINE
8
0
10
30.9604641
20
16.2542109
11
31.849652
21
-0.7125049
0
LINE
8
0
10
30.9599407
20
16.2641972
11
48.8753546
21
17.2031042
0
LINE
8
0
10
48.8753546
20
17.2031042
11
47.9861667
21
34.16982
0
LINE
8
0
10
47.9861667
20
34.16982
11
30.0707528
21
33.230913
0
LINE
8
0
10
30.0707528
20
33.230913
11
30.9599407
21
16.2641972
0
LINE
8
0
10
30.0702294
20
33.2408992
11
47.9856433
21
34.1798062
0
LINE
8
0
10
47.9856433
20
34.1798062
11
47.0964554
21
51.146522
0
LINE
8
0
10
47.0964554
20
51.146522
11
29.1810415
21
50.207615
0
LINE
8
0
10
29.1810415
20
50.207615
11
30.0702294
21
33.2408992
0
LINE
8
0
10
29.1805182
20
50.2176013
11
47.0959321
21
51.1565083
0
LINE
8
0
10
47.0959321
20
51.1565083
11
46.2067442
21
68.1232241
0
LINE
8
0
10
46.2067442
20
68.1232241
11
28.2913303
21
67.1843171
0
LINE
8
0
10
28.2913303
20
67.1843171
11
29.1805182
21
50.2176013
0
LINE
8
0
10
49.6572537
20
29.7923743
11
67.5972537
21
29.7923743
0
LINE
8
0
10
67.5972537
20
29.7923743
11
67.5972537
21
46.7823743
0
LINE
8
0
10
67.5972537
20
46.7823743
11
49.6572537
21
46.7823743
0
LINE
8
0
10
49.6572537
20
46.7823743
11
49.6572537
21
29.7923743
0
LINE
8
0
10
49.6572537
20
46.7923743
11
67.5972537
21
46.7923743
0
LINE
8
0
10
67.5972537
20
46.7923743
11
67.5972537
21
63.7823743
0
LINE
8
0
10
67.5972537
20
63.7823743
11
49.6572537
21
63.7823743
0
LINE
8
0
10
49.6572537
20
63.7823743
11
49.6572537
21
46.7923743
0
LINE
8
0
10
49.6572538
20
63.7923744
11
67.5972538
21
63.7923744
0
LINE
8
0
10
67.5972538
20
63.7923744
11
67.5972538
21
80.7823744
0
LINE
8
0
10
67.5972538
20
80.7823744
11
49.6572538
21
80.7823744
0
LINE
8
0
10
49.6572538
20
80.7823744
11
49.6572538
21
63.7923744
0
LINE
8
0
10
66.1501822
20
-3.3710215
11
84.0219151
21
-4.9345956
0
LINE
8
0
10
84.0219151
20
-4.9345956
11
85.5026912
21
11.9907523
0
LINE
8
0
10
85.5026912
20
11.9907523
11
67.6309583
21
13.5543264
0
LINE
8
0
10
67.6309583
20
13.5543264
11
66.1501822
21
-3.3710215
0
LINE
8
0
10
67.63183
20
13.5642884
11
85.5035629
21
12.0007143
0
LINE
8
0
10
85.5035629
20
12.0007143
11
86.984339
21
28.9260622
0
LINE
8
0
10
86.984339
20
28.9260622
11
69.1126061
21
30.4896363
0
LINE
8
0
10
69.1126061
20
30.4896363
11
67.63183
21
13.5642884
0
LINE
8
0
10
69.1134777
20
30.4995982
11
86.9852106
21
28.9360241
0
LINE
8
0
10
86.9852106
20
28.9360241
11
88.4659867
21
45.861372
0
LINE
8
0
10
88.4659867
20
45.861372
11
70.5942538
21
47.4249461
0
LINE
8
0
10
70.5942538
20
47.4249461
11
69.1134777
21
30.4995982
0
LINE
8
0
10
70.5951252
20
47.4349081
11
88.4668581
21
45.871334
0
LINE
8
0
10
88.4668581
20
45.871334
11
89.9476342
21
62.7966819
0
LINE
8
0
10
89.9476342
20
62.7966819
11
72.0759013
21
64.360256
0
LINE
8
0
10
72.0759013
20
64.360256
11
70.5951252
21
47.4349081
0
LINE
8
0
10
86.3024198
20
8.9695549
11
104.1741527
21
7.4059808
0
LINE
8
0
10
104.1741527
20
7.4059808
11
105.6549288
21
24.3313287
0
LINE
8
0
10
105.6549288
20
24.3313287
11
87.7831959
21
25.8949028
0
LINE
8
0
10
87.7831959
20
25.8949028
11
86.3024198
21
8.9695549
0
LINE
8
0
10
87.7840675
20
25.9048647
11
105.6558004
21
24.3412906
0
LINE
8
0
10
105.6558004
20
24.3412906
11
107.1365765
21
41.2666385
0
LINE
8
0
10
107.1365765
20
41.2666385
11
89.2648436
21
42.8302126
0
LINE
8
0
10
89.2648436
20
42.8302126
11
87.7840675
21
25.9048647
0
LINE
8
0
10
89.265715
20
42.8401746
11
107.1374479
21
41.2766005
0
LINE
8
0
10
107.1374479
20
41.2766005
11
108.618224
21
58.2019484
0
LINE
8
0
10
108.618224
20
58.2019484
11
90.7464911
21
59.7655225
0
LINE
8
0
10
90.7464911
20
59.7655225
11
89.265715
21
42.8401746
0
LINE
8
0
10
84.1235262
20
-15.9353126
11
101.9952591
21
-17.4988867
0
LINE
8
0
10
101.9952591
20
-17.4988867
11
103.4760352
21
-0.5735388
0
LINE
8
0
10
103.4760352
20
-0.5735388
11
85.6043023
21
0.9900353
0
LINE
8
0
10
85.6043023
20
0.9900353
11
84.1235262
21
-15.9353126
0
LINE
8
0
10
103.9992046
20
-17.7366518
11
121.5471726
21
-21.4665875
0
LINE
8
0
10
121.5471726
20
-21.4665875
11
125.0795922
21
-4.8478598
0
LINE
8
0
10
125.0795922
20
-4.8478598
11
107.5316242
21
-1.1179241
0
LINE
8
0
10
107.5316242
20
-1.1179241
11
103.9992046
21
-17.7366518
0
LINE
8
0
10
123.5072046
20
-21.9467999
11
140.4698079
21
-27.7874925
0
LINE
8
0
10
140.4698079
20
-27.7874925
11
146.0012108
21
-11.7231319
0
LINE
8
0
10
146.0012108
20
-11.7231319
11
129.0386075
21
-5.8824393
0
LINE
8
0
10
129.0386075
20
-5.8824393
11
123.5072046
21
-21.9467999
0
LINE
8
0
10
128.5830641
20
6.6806531
11
135.2362382
21
37.9813763
0
LINE
8
0
10
135.2362382
20
37.9813763
11
117.6295814
21
41.7237868
0
LINE
8
0
10
117.6295814
20
41.7237868
11
115.4465086
21
31.4532369
0
LINE
8
0
10
114.8227735
20
28.5187941
11
110.9764073
21
10.4230635
0
LINE
8
0
10
110.9764073
20
10.4230635
11
128.5830641
21
6.6806531
0
LINE
8
0
10
149.1594003
20
-8.7863371
11
151.145366
21
-3.0186738
0
LINE
8
0
10
151.145366
20
-3.0186738
11
139.6100394
21
0.9532577
0
LINE
8
0
10
139.6100394
20
0.9532577
11
137.6240737
21
-4.8144056
0
LINE
8
0
10
137.6240737
20
-4.8144056
11
149.1594003
21
-8.7863371
0
LINE
8
0
10
111.3803911
20
19.5382595
11
112.6486524
21
25.5049599
0
LINE
8
0
10
112.6486524
20
25.5049599
11
108.736062
21
26.3366066
0
LINE
8
0
10
108.736062
20
26.3366066
11
107.4678007
21
20.3699063
0
LINE
8
0
10
107.4678007
20
20.3699063
11
111.3803911
21
19.5382595
0
LINE
8
0
10
108.4648141
20
29.8702201
11
114.8227735
21
28.5187941
0
LINE
8
0
10
115.4465086
20
31.4532369
11
109.0885492
21
32.8046629
0
LINE
8
0
10
109.0885492
20
32.8046629
11
108.4648141
21
29.8702201
0
ENDSEC
0
EOF