%TF.GenerationSoftware,KiCad,Pcbnew,(6.0.7-1)-1*%
%TF.CreationDate,2022-09-15T11:20:02-04:00*%
%TF.ProjectId,skyline_pcb_left,736b796c-696e-4655-9f70-63625f6c6566,v1.0.0*%
%TF.SameCoordinates,Original*%
%TF.FileFunction,Profile,NP*%
%FSLAX46Y46*%
G04 Gerber Fmt 4.6, Leading zero omitted, Abs format (unit mm)*
G04 Created by KiCad (PCBNEW (6.0.7-1)-1) date 2022-09-15 11:20:02*
%MOMM*%
%LPD*%
G01*
G04 APERTURE LIST*
%TA.AperFunction,Profile*%
%ADD10C,0.150000*%
%TD*%
G04 APERTURE END LIST*
D10*
X208017393Y-153168472D02*
X209153287Y-140185153D01*
X275537356Y-162259506D02*
G75*
G03*
X276842524Y-164566368I1956344J-415794D01*
G01*
X284045198Y-194333062D02*
X287659004Y-183837805D01*
X244644146Y-185439702D02*
X263938993Y-189540948D01*
X189996517Y-96634035D02*
X189996517Y-88010842D01*
X168709973Y-101650289D02*
X169444425Y-115664474D01*
X205664272Y-180065736D02*
G75*
G03*
X207482267Y-182232430I1992328J-174364D01*
G01*
X205664188Y-180065729D02*
X207930238Y-154164667D01*
X190899910Y-150555981D02*
X191915227Y-169929394D01*
X209153362Y-140185160D02*
G75*
G03*
X207160896Y-138010841I-1992562J174160D01*
G01*
X190352748Y-140115514D02*
X190847574Y-149557351D01*
X192350007Y-138010910D02*
G75*
G03*
X190352748Y-140115514I-7J-1999990D01*
G01*
X167656224Y-117758199D02*
G75*
G03*
X169444424Y-115664474I-209124J1989099D01*
G01*
X174547688Y-172842333D02*
X190022640Y-172031325D01*
X207482266Y-182232430D02*
X224716435Y-183740224D01*
X250233810Y-121549443D02*
G75*
G03*
X251810386Y-123680050I1992190J-174457D01*
G01*
X231688894Y-104044648D02*
X231693252Y-103994839D01*
X209596517Y-100279153D02*
X209596517Y-88010842D01*
X291888262Y-171862273D02*
G75*
G03*
X290648371Y-169320103I-1890962J651173D01*
G01*
X126771432Y-124066371D02*
X132154648Y-175284248D01*
X287753556Y-183870362D02*
X291888272Y-171862276D01*
X224719049Y-183710338D02*
X244642943Y-185453453D01*
X264174306Y-189606206D02*
X281503024Y-195572962D01*
X244644146Y-185439702D02*
X244642943Y-185453453D01*
X281941752Y-132129351D02*
G75*
G03*
X280401256Y-129757228I-1956252J415851D01*
G01*
X251442850Y-107730344D02*
G75*
G03*
X249624757Y-105563642I-1992350J174344D01*
G01*
X170602560Y-99548358D02*
X188101189Y-98631294D01*
X145756647Y-120059927D02*
X167656223Y-117758189D01*
X207930238Y-154164667D02*
X208017393Y-153168472D01*
X151557977Y-175255893D02*
X174443303Y-172850548D01*
X211422205Y-102271543D02*
X231688894Y-104044648D01*
X132154666Y-175284246D02*
G75*
G03*
X134352748Y-177064234I1989034J209046D01*
G01*
X281503045Y-195572900D02*
G75*
G03*
X284045198Y-194333062I651155J1891000D01*
G01*
X224719049Y-183710338D02*
X224716435Y-183740224D01*
X174547688Y-172842333D02*
G75*
G03*
X174443303Y-172850548I104612J-1996567D01*
G01*
X231693252Y-103994839D02*
X249624756Y-105563642D01*
X280401256Y-129757227D02*
X251810386Y-123680050D01*
X128551419Y-121868270D02*
X145756647Y-120059928D01*
X134352748Y-177064235D02*
X151557977Y-175255893D01*
X275537365Y-162259508D02*
X281941728Y-132129346D01*
X190847574Y-149557351D02*
X190899910Y-150555981D01*
X188101188Y-98631270D02*
G75*
G03*
X189996517Y-96634035I-104788J1997370D01*
G01*
X191996517Y-86010842D02*
X207596517Y-86010842D01*
X170602561Y-99548381D02*
G75*
G03*
X168709973Y-101650289I104739J-1997319D01*
G01*
X192350007Y-138010842D02*
X207160897Y-138010842D01*
X191996517Y-86010817D02*
G75*
G03*
X189996517Y-88010842I-117J-1999883D01*
G01*
X250233820Y-121549444D02*
X251442834Y-107730343D01*
X264174307Y-189606204D02*
G75*
G03*
X263938993Y-189540948I-651107J-1890996D01*
G01*
X287659004Y-183837805D02*
X287753556Y-183870362D01*
X190022640Y-172031320D02*
G75*
G03*
X191915227Y-169929394I-104740J1997320D01*
G01*
X209596458Y-88010842D02*
G75*
G03*
X207596517Y-86010842I-1999958J42D01*
G01*
X128551415Y-121868233D02*
G75*
G03*
X126771432Y-124066371I209085J-1989067D01*
G01*
X290648371Y-169320103D02*
X276842523Y-164566368D01*
X209596540Y-100279153D02*
G75*
G03*
X211422206Y-102271542I2000060J53D01*
G01*
M02*
