%TF.GenerationSoftware,KiCad,Pcbnew,(6.0.7-1)-1*%
%TF.CreationDate,2022-09-15T11:20:02-04:00*%
%TF.ProjectId,skyline_pcb_left,736b796c-696e-4655-9f70-63625f6c6566,v1.0.0*%
%TF.SameCoordinates,Original*%
%TF.FileFunction,Soldermask,Top*%
%TF.FilePolarity,Negative*%
%FSLAX46Y46*%
G04 Gerber Fmt 4.6, Leading zero omitted, Abs format (unit mm)*
G04 Created by KiCad (PCBNEW (6.0.7-1)-1) date 2022-09-15 11:20:02*
%MOMM*%
%LPD*%
G01*
G04 APERTURE LIST*
G04 Aperture macros list*
%AMRoundRect*
0 Rectangle with rounded corners*
0 $1 Rounding radius*
0 $2 $3 $4 $5 $6 $7 $8 $9 X,Y pos of 4 corners*
0 Add a 4 corners polygon primitive as box body*
4,1,4,$2,$3,$4,$5,$6,$7,$8,$9,$2,$3,0*
0 Add four circle primitives for the rounded corners*
1,1,$1+$1,$2,$3*
1,1,$1+$1,$4,$5*
1,1,$1+$1,$6,$7*
1,1,$1+$1,$8,$9*
0 Add four rect primitives between the rounded corners*
20,1,$1+$1,$2,$3,$4,$5,0*
20,1,$1+$1,$4,$5,$6,$7,0*
20,1,$1+$1,$6,$7,$8,$9,0*
20,1,$1+$1,$8,$9,$2,$3,0*%
%AMHorizOval*
0 Thick line with rounded ends*
0 $1 width*
0 $2 $3 position (X,Y) of the first rounded end (center of the circle)*
0 $4 $5 position (X,Y) of the second rounded end (center of the circle)*
0 Add line between two ends*
20,1,$1,$2,$3,$4,$5,0*
0 Add two circle primitives to create the rounded ends*
1,1,$1,$2,$3*
1,1,$1,$4,$5*%
G04 Aperture macros list end*
%ADD10RoundRect,0.050000X-0.533727X-0.346606X0.346606X-0.533727X0.533727X0.346606X-0.346606X0.533727X0*%
%ADD11C,1.100000*%
%ADD12RoundRect,0.050000X-0.570111X-0.517782X0.310222X-0.704903X0.570111X0.517782X-0.310222X0.704903X0*%
%ADD13C,3.529000*%
%ADD14C,3.100000*%
%ADD15C,1.801800*%
%ADD16C,5.700000*%
%ADD17C,3.700000*%
%ADD18C,1.497000*%
%ADD19C,2.132000*%
%ADD20RoundRect,0.050000X-0.674958X1.039344X-1.039344X-0.674958X0.674958X-1.039344X1.039344X0.674958X0*%
%ADD21C,1.852600*%
%ADD22RoundRect,0.050000X0.249383X-0.870881X0.582042X0.694156X-0.249383X0.870881X-0.582042X-0.694156X0*%
%ADD23C,2.005000*%
%ADD24RoundRect,0.050000X1.054407X0.684740X-0.684740X1.054407X-1.054407X-0.684740X0.684740X-1.054407X0*%
%ADD25C,1.600000*%
%ADD26HorizOval,1.700000X-0.283656X0.097670X0.283656X-0.097670X0*%
%ADD27RoundRect,0.050000X-0.654701X1.008150X-1.008150X-0.654701X0.654701X-1.008150X1.008150X0.654701X0*%
%ADD28HorizOval,1.800000X0.000000X0.000000X0.000000X0.000000X0*%
%ADD29RoundRect,0.050000X1.129996X0.551136X-0.551136X1.129996X-1.129996X-0.551136X0.551136X-1.129996X0*%
G04 APERTURE END LIST*
D10*
%TO.C,T1*%
X250804314Y-123795789D03*
D11*
X255661978Y-125952893D03*
D10*
X257585200Y-127486261D03*
D11*
X252727536Y-125329157D03*
D10*
X250346908Y-125947714D03*
X258042606Y-125334336D03*
D12*
X255964172Y-128138483D03*
X253029730Y-127514748D03*
X251562508Y-127202880D03*
%TD*%
D13*
%TO.C,S13*%
X181532028Y-159057910D03*
D14*
X186328916Y-155051369D03*
D15*
X176039566Y-159345758D03*
X187024490Y-158770062D03*
D14*
X181220629Y-153116064D03*
%TD*%
D16*
%TO.C,REF\u002A\u002A*%
X248471233Y-108327154D03*
D17*
X248471233Y-108327154D03*
%TD*%
D14*
%TO.C,S45*%
X277860602Y-178507346D03*
X281871944Y-182215328D03*
D15*
X270723119Y-182342557D03*
D13*
X275923471Y-184133182D03*
D15*
X281123823Y-185923807D03*
%TD*%
D18*
%TO.C,\u002A\u002A*%
X270339579Y-163674142D03*
X268982009Y-168569384D03*
%TD*%
D15*
%TO.C,S26*%
X205296517Y-95010842D03*
X194296517Y-95010842D03*
D13*
X199796517Y-95010842D03*
D19*
X194796517Y-98810842D03*
X199796517Y-100910842D03*
%TD*%
D17*
%TO.C,REF\u002A\u002A*%
X168206517Y-128350842D03*
D16*
X168206517Y-128350842D03*
%TD*%
D15*
%TO.C,S42*%
X240448115Y-176031999D03*
X229489973Y-175073285D03*
D13*
X234969044Y-175552642D03*
D19*
X229656879Y-178902403D03*
X234454825Y-181430191D03*
%TD*%
D13*
%TO.C,S31*%
X219958995Y-129117731D03*
D14*
X220477572Y-123190373D03*
D15*
X214479924Y-128638374D03*
D14*
X225266803Y-125817780D03*
D15*
X225438066Y-129597088D03*
%TD*%
D13*
%TO.C,S34*%
X221440643Y-112182421D03*
D15*
X226919714Y-112661778D03*
X215961572Y-111703064D03*
D19*
X216128478Y-115532182D03*
X220926424Y-118059970D03*
%TD*%
D13*
%TO.C,S40*%
X240111233Y-116777154D03*
D15*
X234632162Y-116297797D03*
X245590304Y-117256511D03*
D19*
X234799068Y-120126915D03*
X239597014Y-122654703D03*
%TD*%
D15*
%TO.C,S22*%
X205296517Y-129010842D03*
D13*
X199796517Y-129010842D03*
D15*
X194296517Y-129010842D03*
D19*
X194796517Y-132810842D03*
X199796517Y-134910842D03*
%TD*%
D15*
%TO.C,S28*%
X211516629Y-162508994D03*
D13*
X216995700Y-162988351D03*
D15*
X222474771Y-163467708D03*
D19*
X211683535Y-166338112D03*
X216481481Y-168865900D03*
%TD*%
D15*
%TO.C,S4*%
X133922409Y-150966251D03*
X144862149Y-149816437D03*
D13*
X139392279Y-150391344D03*
D19*
X134816878Y-154693170D03*
X140008997Y-156259023D03*
%TD*%
D15*
%TO.C,S39*%
X234632162Y-116297797D03*
D13*
X240111233Y-116777154D03*
D14*
X245419041Y-113477203D03*
D15*
X245590304Y-117256511D03*
D14*
X240629810Y-110849796D03*
%TD*%
D13*
%TO.C,S10*%
X157974610Y-145421737D03*
D15*
X152504740Y-145996644D03*
X163444480Y-144846830D03*
D19*
X153399209Y-149723563D03*
X158591328Y-151289416D03*
%TD*%
D14*
%TO.C,S19*%
X183659782Y-104121262D03*
D13*
X178862894Y-108127803D03*
D15*
X184355356Y-107839955D03*
X173370432Y-108415651D03*
D14*
X178551495Y-102185957D03*
%TD*%
D20*
%TO.C,MCU1*%
X259435551Y-129216394D03*
D21*
X258907455Y-131700889D03*
X258379359Y-134185384D03*
X257851264Y-136669879D03*
X257323168Y-139154374D03*
X256795072Y-141638868D03*
X256266976Y-144123363D03*
X255738881Y-146607858D03*
X255210785Y-149092353D03*
X254682689Y-151576848D03*
X254154594Y-154061343D03*
X253626498Y-156545838D03*
X274342520Y-132384968D03*
X273814424Y-134869463D03*
X273286329Y-137353958D03*
X272758233Y-139838453D03*
X272230137Y-142322948D03*
X271702042Y-144807443D03*
X271173946Y-147291938D03*
X270645850Y-149776432D03*
X270117754Y-152260927D03*
X269589659Y-154745422D03*
X269061563Y-157229917D03*
X268533467Y-159714412D03*
%TD*%
D15*
%TO.C,S21*%
X205296517Y-129010842D03*
D14*
X199796517Y-123060842D03*
D13*
X199796517Y-129010842D03*
D15*
X194296517Y-129010842D03*
D14*
X204796517Y-125260842D03*
%TD*%
D15*
%TO.C,S25*%
X194296517Y-95010842D03*
D13*
X199796517Y-95010842D03*
D15*
X205296517Y-95010842D03*
D14*
X204796517Y-91260842D03*
X199796517Y-89060842D03*
%TD*%
D13*
%TO.C,S23*%
X199796517Y-112010842D03*
D15*
X194296517Y-112010842D03*
D14*
X199796517Y-106060842D03*
D15*
X205296517Y-112010842D03*
D14*
X204796517Y-108260842D03*
%TD*%
%TO.C,S3*%
X138770335Y-144473939D03*
X143972907Y-146139245D03*
D15*
X133922409Y-150966251D03*
X144862149Y-149816437D03*
D13*
X139392279Y-150391344D03*
%TD*%
D14*
%TO.C,S7*%
X164332222Y-158076510D03*
D15*
X154281724Y-162903516D03*
X165221464Y-161753702D03*
D13*
X159751594Y-162328609D03*
D14*
X159129650Y-156411204D03*
%TD*%
D22*
%TO.C,REF\u002A\u002A*%
X263441524Y-152619695D03*
X261002074Y-155679367D03*
X262713833Y-156043212D03*
X261729765Y-152255850D03*
%TD*%
D13*
%TO.C,S37*%
X238629585Y-133712464D03*
D14*
X239148162Y-127785106D03*
D15*
X244108656Y-134191821D03*
X233150514Y-133233107D03*
D14*
X243937393Y-130412513D03*
%TD*%
D16*
%TO.C,REF\u002A\u002A*%
X251896517Y-135310842D03*
D17*
X251896517Y-135310842D03*
%TD*%
D18*
%TO.C,\u002A\u002A*%
X273411222Y-164506045D03*
X272053652Y-169401287D03*
%TD*%
D13*
%TO.C,S43*%
X255708661Y-178590472D03*
D14*
X261379068Y-175961977D03*
X256945736Y-172770494D03*
D15*
X261088473Y-179733986D03*
X250328849Y-177446958D03*
%TD*%
D14*
%TO.C,S27*%
X222303508Y-159688400D03*
D15*
X222474771Y-163467708D03*
D14*
X217514277Y-157060993D03*
D13*
X216995700Y-162988351D03*
D15*
X211516629Y-162508994D03*
%TD*%
D13*
%TO.C,S17*%
X179752605Y-125104505D03*
D15*
X174260143Y-125392353D03*
X185245067Y-124816657D03*
D14*
X184549493Y-121097964D03*
X179441206Y-119162659D03*
%TD*%
D13*
%TO.C,S24*%
X199796517Y-112010842D03*
D15*
X205296517Y-112010842D03*
X194296517Y-112010842D03*
D19*
X194796517Y-115810842D03*
X199796517Y-117910842D03*
%TD*%
D23*
%TO.C,D16*%
X246610368Y-166479801D03*
D24*
X254063852Y-168064089D03*
%TD*%
D13*
%TO.C,S15*%
X180642317Y-142081207D03*
D15*
X186134779Y-141793359D03*
X175149855Y-142369055D03*
D14*
X180330918Y-136139361D03*
X185439205Y-138074666D03*
%TD*%
D15*
%TO.C,S12*%
X150727756Y-129089772D03*
D13*
X156197626Y-128514865D03*
D15*
X161667496Y-127939958D03*
D19*
X151622225Y-132816691D03*
X156814344Y-134382544D03*
%TD*%
D15*
%TO.C,S2*%
X146639133Y-166723309D03*
D13*
X141169263Y-167298216D03*
D15*
X135699393Y-167873123D03*
D19*
X136593862Y-171600042D03*
X141785981Y-173165895D03*
%TD*%
D17*
%TO.C,REF\u002A\u002A*%
X188196517Y-168610842D03*
D16*
X188196517Y-168610842D03*
%TD*%
D15*
%TO.C,S29*%
X223956419Y-146532398D03*
D13*
X218477348Y-146053041D03*
D14*
X223785156Y-142753090D03*
D15*
X212998277Y-145573684D03*
D14*
X218995925Y-140125683D03*
%TD*%
D15*
%TO.C,S14*%
X176039566Y-159345758D03*
X187024490Y-158770062D03*
D13*
X181532028Y-159057910D03*
D19*
X176737757Y-163114382D03*
X181840810Y-164949824D03*
%TD*%
D14*
%TO.C,S5*%
X142195923Y-129232373D03*
D13*
X137615295Y-133484472D03*
D15*
X143085165Y-132909565D03*
D14*
X136993351Y-127567067D03*
D15*
X132145425Y-134059379D03*
%TD*%
%TO.C,S18*%
X174260143Y-125392353D03*
X185245067Y-124816657D03*
D13*
X179752605Y-125104505D03*
D19*
X174958334Y-129160977D03*
X180061387Y-130996419D03*
%TD*%
D15*
%TO.C,S38*%
X233150514Y-133233107D03*
D13*
X238629585Y-133712464D03*
D15*
X244108656Y-134191821D03*
D19*
X233317420Y-137062225D03*
X238115366Y-139590013D03*
%TD*%
D15*
%TO.C,S9*%
X163444480Y-144846830D03*
D13*
X157974610Y-145421737D03*
D14*
X157352666Y-139504332D03*
X162555238Y-141169638D03*
D15*
X152504740Y-145996644D03*
%TD*%
D25*
%TO.C,REF\u002A\u002A*%
X289564640Y-173388951D03*
X282946010Y-171109974D03*
D26*
X281141917Y-168056247D03*
X280684374Y-172763758D03*
X284466448Y-174066030D03*
X287303004Y-175042735D03*
%TD*%
D15*
%TO.C,S11*%
X150727756Y-129089772D03*
D14*
X155575682Y-122597460D03*
D13*
X156197626Y-128514865D03*
D15*
X161667496Y-127939958D03*
D14*
X160778254Y-124262766D03*
%TD*%
D15*
%TO.C,S16*%
X175149855Y-142369055D03*
D13*
X180642317Y-142081207D03*
D15*
X186134779Y-141793359D03*
D19*
X175848046Y-146137679D03*
X180951099Y-147973121D03*
%TD*%
D15*
%TO.C,S20*%
X173370432Y-108415651D03*
X184355356Y-107839955D03*
D13*
X178862894Y-108127803D03*
D19*
X174068623Y-112184275D03*
X179171676Y-114019717D03*
%TD*%
D15*
%TO.C,S8*%
X165221464Y-161753702D03*
D13*
X159751594Y-162328609D03*
D15*
X154281724Y-162903516D03*
D19*
X155176193Y-166630435D03*
X160368312Y-168196288D03*
%TD*%
D15*
%TO.C,S6*%
X143085165Y-132909565D03*
D13*
X137615295Y-133484472D03*
D15*
X132145425Y-134059379D03*
D19*
X133039894Y-137786298D03*
X138232013Y-139352151D03*
%TD*%
D14*
%TO.C,S1*%
X145749891Y-163046117D03*
D15*
X146639133Y-166723309D03*
D14*
X140547319Y-161380811D03*
D13*
X141169263Y-167298216D03*
D15*
X135699393Y-167873123D03*
%TD*%
%TO.C,S35*%
X231668866Y-150168417D03*
X242627008Y-151127131D03*
D14*
X237666514Y-144720416D03*
X242455745Y-147347823D03*
D13*
X237147937Y-150647774D03*
%TD*%
D27*
%TO.C,REF\u002A\u002A*%
X270482307Y-133943202D03*
D28*
X267997812Y-133415106D03*
X265513317Y-132887011D03*
X263028822Y-132358915D03*
%TD*%
D13*
%TO.C,S36*%
X237147937Y-150647774D03*
D15*
X242627008Y-151127131D03*
X231668866Y-150168417D03*
D19*
X231835772Y-153997535D03*
X236633718Y-156525323D03*
%TD*%
D13*
%TO.C,S46*%
X275923471Y-184133182D03*
D15*
X270723119Y-182342557D03*
X281123823Y-185923807D03*
D19*
X269958719Y-186098312D03*
X274002619Y-189711742D03*
%TD*%
D17*
%TO.C,REF\u002A\u002A*%
X211296517Y-177210842D03*
D16*
X211296517Y-177210842D03*
%TD*%
D23*
%TO.C,D17*%
X267600821Y-171403395D03*
D29*
X274805673Y-173884225D03*
%TD*%
D15*
%TO.C,S32*%
X214479924Y-128638374D03*
X225438066Y-129597088D03*
D13*
X219958995Y-129117731D03*
D19*
X214646830Y-132467492D03*
X219444776Y-134995280D03*
%TD*%
D13*
%TO.C,S30*%
X218477348Y-146053041D03*
D15*
X212998277Y-145573684D03*
X223956419Y-146532398D03*
D19*
X213165183Y-149402802D03*
X217963129Y-151930590D03*
%TD*%
D14*
%TO.C,S33*%
X226748451Y-108882470D03*
D15*
X226919714Y-112661778D03*
X215961572Y-111703064D03*
D13*
X221440643Y-112182421D03*
D14*
X221959220Y-106255063D03*
%TD*%
D13*
%TO.C,S44*%
X255708661Y-178590472D03*
D15*
X261088473Y-179733986D03*
X250328849Y-177446958D03*
D19*
X250027859Y-181267874D03*
X254481982Y-184361543D03*
%TD*%
D14*
%TO.C,S41*%
X235487621Y-169625284D03*
X240276852Y-172252691D03*
D15*
X240448115Y-176031999D03*
D13*
X234969044Y-175552642D03*
D15*
X229489973Y-175073285D03*
%TD*%
M02*
