%TF.GenerationSoftware,KiCad,Pcbnew,(6.0.7-1)-1*%
%TF.CreationDate,2022-09-15T11:20:02-04:00*%
%TF.ProjectId,skyline_pcb_left,736b796c-696e-4655-9f70-63625f6c6566,v1.0.0*%
%TF.SameCoordinates,Original*%
%TF.FileFunction,Copper,L2,Bot*%
%TF.FilePolarity,Positive*%
%FSLAX46Y46*%
G04 Gerber Fmt 4.6, Leading zero omitted, Abs format (unit mm)*
G04 Created by KiCad (PCBNEW (6.0.7-1)-1) date 2022-09-15 11:20:02*
%MOMM*%
%LPD*%
G01*
G04 APERTURE LIST*
G04 Aperture macros list*
%AMHorizOval*
0 Thick line with rounded ends*
0 $1 width*
0 $2 $3 position (X,Y) of the first rounded end (center of the circle)*
0 $4 $5 position (X,Y) of the second rounded end (center of the circle)*
0 Add line between two ends*
20,1,$1,$2,$3,$4,$5,0*
0 Add two circle primitives to create the rounded ends*
1,1,$1,$2,$3*
1,1,$1,$4,$5*%
%AMRotRect*
0 Rectangle, with rotation*
0 The origin of the aperture is its center*
0 $1 length*
0 $2 width*
0 $3 Rotation angle, in degrees counterclockwise*
0 Add horizontal line*
21,1,$1,$2,0,0,$3*%
G04 Aperture macros list end*
%TA.AperFunction,WasherPad*%
%ADD10C,1.000000*%
%TD*%
%TA.AperFunction,SMDPad,CuDef*%
%ADD11RotRect,2.600000X2.600000X3.000000*%
%TD*%
%TA.AperFunction,ComponentPad*%
%ADD12C,3.600000*%
%TD*%
%TA.AperFunction,ConnectorPad*%
%ADD13C,5.600000*%
%TD*%
%TA.AperFunction,SMDPad,CuDef*%
%ADD14RotRect,2.600000X2.600000X341.000000*%
%TD*%
%TA.AperFunction,ComponentPad*%
%ADD15C,1.397000*%
%TD*%
%TA.AperFunction,ComponentPad*%
%ADD16C,2.032000*%
%TD*%
%TA.AperFunction,SMDPad,CuDef*%
%ADD17RotRect,0.900000X1.200000X85.000000*%
%TD*%
%TA.AperFunction,SMDPad,CuDef*%
%ADD18RotRect,0.900000X1.200000X93.000000*%
%TD*%
%TA.AperFunction,SMDPad,CuDef*%
%ADD19RotRect,0.900000X1.200000X96.000000*%
%TD*%
%TA.AperFunction,SMDPad,CuDef*%
%ADD20RotRect,2.600000X2.600000X355.000000*%
%TD*%
%TA.AperFunction,ComponentPad*%
%ADD21RotRect,1.752600X1.752600X258.000000*%
%TD*%
%TA.AperFunction,ComponentPad*%
%ADD22C,1.752600*%
%TD*%
%TA.AperFunction,SMDPad,CuDef*%
%ADD23R,2.600000X2.600000*%
%TD*%
%TA.AperFunction,SMDPad,CuDef*%
%ADD24RotRect,2.600000X2.600000X6.000000*%
%TD*%
%TA.AperFunction,SMDPad,CuDef*%
%ADD25R,1.200000X0.900000*%
%TD*%
%TA.AperFunction,SMDPad,CuDef*%
%ADD26RotRect,2.600000X2.600000X348.000000*%
%TD*%
%TA.AperFunction,ComponentPad*%
%ADD27C,1.905000*%
%TD*%
%TA.AperFunction,SMDPad,CuDef*%
%ADD28RotRect,0.900000X1.200000X168.000000*%
%TD*%
%TA.AperFunction,ComponentPad*%
%ADD29RotRect,1.778000X1.778000X168.000000*%
%TD*%
%TA.AperFunction,ComponentPad*%
%ADD30HorizOval,1.600000X-0.283656X0.097670X0.283656X-0.097670X0*%
%TD*%
%TA.AperFunction,ComponentPad*%
%ADD31C,2.000000*%
%TD*%
%TA.AperFunction,ComponentPad*%
%ADD32RotRect,1.700000X1.700000X258.000000*%
%TD*%
%TA.AperFunction,ComponentPad*%
%ADD33HorizOval,1.700000X0.000000X0.000000X0.000000X0.000000X0*%
%TD*%
%TA.AperFunction,SMDPad,CuDef*%
%ADD34RotRect,0.900000X1.200000X161.000000*%
%TD*%
%TA.AperFunction,ComponentPad*%
%ADD35RotRect,1.778000X1.778000X161.000000*%
%TD*%
%TA.AperFunction,Conductor*%
%ADD36C,0.250000*%
%TD*%
%TA.AperFunction,Conductor*%
%ADD37C,0.400000*%
%TD*%
G04 APERTURE END LIST*
D10*
%TO.P,T1,*%
%TO.N,*%
X255661978Y-125952893D03*
X252727536Y-125329157D03*
%TD*%
D11*
%TO.P,S13,1*%
%TO.N,P6*%
X177950117Y-153287465D03*
%TO.P,S13,2*%
%TO.N,P18*%
X189599428Y-154879969D03*
%TD*%
D12*
%TO.P,REF\u002A\u002A,1*%
%TO.N,N/C*%
X248471233Y-108327154D03*
D13*
X248471233Y-108327154D03*
%TD*%
D14*
%TO.P,S45,1*%
%TO.N,P5*%
X274764028Y-177441111D03*
%TO.P,S45,2*%
%TO.N,P18*%
X284968518Y-183281564D03*
%TD*%
D15*
%TO.P,\u002A\u002A,3*%
%TO.N,P3*%
X270339579Y-163674142D03*
%TO.P,\u002A\u002A,4*%
%TO.N,VCC*%
X268982009Y-168569384D03*
%TD*%
D16*
%TO.P,S26,1*%
%TO.N,P7*%
X194796517Y-98810842D03*
%TO.P,S26,2*%
%TO.N,P21*%
X199796517Y-100910842D03*
%TD*%
D17*
%TO.P,D12,1*%
%TO.N,P8*%
X211590260Y-121509395D03*
%TO.P,D12,2*%
X211877874Y-118221953D03*
%TD*%
D18*
%TO.P,D5,1*%
%TO.N,P6*%
X172185861Y-152688321D03*
%TO.P,D5,2*%
X172013153Y-149392843D03*
%TD*%
D12*
%TO.P,REF\u002A\u002A,1*%
%TO.N,N/C*%
X168206517Y-128350842D03*
D13*
X168206517Y-128350842D03*
%TD*%
D16*
%TO.P,S42,1*%
%TO.N,P9*%
X229656879Y-178902403D03*
%TO.P,S42,2*%
%TO.N,P18*%
X234454825Y-181430191D03*
%TD*%
D19*
%TO.P,D3,1*%
%TO.N,P5*%
X150084877Y-156456891D03*
%TO.P,D3,2*%
X149739933Y-153174969D03*
%TD*%
D20*
%TO.P,S31,1*%
%TO.N,P8*%
X217215034Y-122904937D03*
%TO.P,S31,2*%
%TO.N,P20*%
X228529340Y-126103215D03*
%TD*%
D16*
%TO.P,S34,1*%
%TO.N,P8*%
X216128478Y-115532182D03*
%TO.P,S34,2*%
%TO.N,P21*%
X220926424Y-118059970D03*
%TD*%
%TO.P,S40,1*%
%TO.N,P9*%
X234799068Y-120126915D03*
%TO.P,S40,2*%
%TO.N,P21*%
X239597014Y-122654703D03*
%TD*%
%TO.P,S22,1*%
%TO.N,P7*%
X194796517Y-132810842D03*
%TO.P,S22,2*%
%TO.N,P19*%
X199796517Y-134910842D03*
%TD*%
D19*
%TO.P,D4,1*%
%TO.N,P5*%
X148307893Y-139550018D03*
%TO.P,D4,2*%
X147962949Y-136268096D03*
%TD*%
D18*
%TO.P,D6,1*%
%TO.N,P6*%
X171296149Y-135711619D03*
%TO.P,D6,2*%
X171123441Y-132416141D03*
%TD*%
D16*
%TO.P,S28,1*%
%TO.N,P8*%
X211683535Y-166338112D03*
%TO.P,S28,2*%
%TO.N,P18*%
X216481481Y-168865900D03*
%TD*%
%TO.P,S4,1*%
%TO.N,P4*%
X134816878Y-154693170D03*
%TO.P,S4,2*%
%TO.N,P20*%
X140008997Y-156259023D03*
%TD*%
D20*
%TO.P,S39,1*%
%TO.N,P9*%
X237367272Y-110564360D03*
%TO.P,S39,2*%
%TO.N,P21*%
X248681578Y-113762638D03*
%TD*%
D16*
%TO.P,S10,1*%
%TO.N,P5*%
X153399209Y-149723563D03*
%TO.P,S10,2*%
%TO.N,P20*%
X158591328Y-151289416D03*
%TD*%
D11*
%TO.P,S19,1*%
%TO.N,P6*%
X175280983Y-102357358D03*
%TO.P,S19,2*%
%TO.N,P21*%
X186930294Y-103949862D03*
%TD*%
D21*
%TO.P,MCU1,1*%
%TO.N,RAW*%
X259435551Y-129216394D03*
D22*
%TO.P,MCU1,2*%
%TO.N,GND*%
X258907455Y-131700889D03*
%TO.P,MCU1,3*%
%TO.N,RST*%
X258379359Y-134185384D03*
%TO.P,MCU1,4*%
%TO.N,VCC*%
X257851264Y-136669879D03*
%TO.P,MCU1,5*%
%TO.N,P21*%
X257323168Y-139154374D03*
%TO.P,MCU1,6*%
%TO.N,P20*%
X256795072Y-141638868D03*
%TO.P,MCU1,7*%
%TO.N,P19*%
X256266976Y-144123363D03*
%TO.P,MCU1,8*%
%TO.N,P18*%
X255738881Y-146607858D03*
%TO.P,MCU1,9*%
%TO.N,P15*%
X255210785Y-149092353D03*
%TO.P,MCU1,10*%
%TO.N,P14*%
X254682689Y-151576848D03*
%TO.P,MCU1,11*%
%TO.N,P16*%
X254154594Y-154061343D03*
%TO.P,MCU1,12*%
%TO.N,P10*%
X253626498Y-156545838D03*
%TO.P,MCU1,13*%
%TO.N,P1*%
X274342520Y-132384968D03*
%TO.P,MCU1,14*%
%TO.N,P0*%
X273814424Y-134869463D03*
%TO.P,MCU1,15*%
%TO.N,GND*%
X273286329Y-137353958D03*
%TO.P,MCU1,16*%
X272758233Y-139838453D03*
%TO.P,MCU1,17*%
%TO.N,P2*%
X272230137Y-142322948D03*
%TO.P,MCU1,18*%
%TO.N,P3*%
X271702042Y-144807443D03*
%TO.P,MCU1,19*%
%TO.N,P4*%
X271173946Y-147291938D03*
%TO.P,MCU1,20*%
%TO.N,P5*%
X270645850Y-149776432D03*
%TO.P,MCU1,21*%
%TO.N,P6*%
X270117754Y-152260927D03*
%TO.P,MCU1,22*%
%TO.N,P7*%
X269589659Y-154745422D03*
%TO.P,MCU1,23*%
%TO.N,P8*%
X269061563Y-157229917D03*
%TO.P,MCU1,24*%
%TO.N,P9*%
X268533467Y-159714412D03*
%TD*%
D23*
%TO.P,S21,1*%
%TO.N,P7*%
X196521517Y-123060842D03*
%TO.P,S21,2*%
%TO.N,P19*%
X208071517Y-125260842D03*
%TD*%
%TO.P,S25,1*%
%TO.N,P7*%
X196521517Y-89060842D03*
%TO.P,S25,2*%
%TO.N,P21*%
X208071517Y-91260842D03*
%TD*%
%TO.P,S23,1*%
%TO.N,P7*%
X196521517Y-106060842D03*
%TO.P,S23,2*%
%TO.N,P20*%
X208071517Y-108260842D03*
%TD*%
D24*
%TO.P,S3,1*%
%TO.N,P4*%
X135513275Y-144816269D03*
%TO.P,S3,2*%
%TO.N,P20*%
X147229966Y-145796914D03*
%TD*%
%TO.P,S7,1*%
%TO.N,P5*%
X155872590Y-156753534D03*
%TO.P,S7,2*%
%TO.N,P19*%
X167589281Y-157734179D03*
%TD*%
D20*
%TO.P,S37,1*%
%TO.N,P9*%
X235885624Y-127499670D03*
%TO.P,S37,2*%
%TO.N,P20*%
X247199930Y-130697948D03*
%TD*%
D25*
%TO.P,D9,1*%
%TO.N,P7*%
X190796517Y-105160842D03*
%TO.P,D9,2*%
X190796517Y-101860842D03*
%TD*%
D13*
%TO.P,REF\u002A\u002A,1*%
%TO.N,N/C*%
X251896517Y-135310842D03*
D12*
X251896517Y-135310842D03*
%TD*%
D15*
%TO.P,\u002A\u002A,2*%
%TO.N,P2*%
X273411222Y-164506045D03*
%TO.P,\u002A\u002A,4*%
%TO.N,VCC*%
X272053652Y-169401287D03*
%TD*%
D26*
%TO.P,S43,1*%
%TO.N,P7*%
X253742302Y-172089583D03*
%TO.P,S43,2*%
%TO.N,P18*%
X264582501Y-176642888D03*
%TD*%
D20*
%TO.P,S27,1*%
%TO.N,P8*%
X214251739Y-156775557D03*
%TO.P,S27,2*%
%TO.N,P18*%
X225566045Y-159973835D03*
%TD*%
D11*
%TO.P,S17,1*%
%TO.N,P6*%
X176170694Y-119334060D03*
%TO.P,S17,2*%
%TO.N,P20*%
X187820005Y-120926564D03*
%TD*%
D17*
%TO.P,D14,1*%
%TO.N,P9*%
X231099503Y-126199977D03*
%TO.P,D14,2*%
X231387117Y-122912535D03*
%TD*%
D16*
%TO.P,S24,1*%
%TO.N,P7*%
X194796517Y-115810842D03*
%TO.P,S24,2*%
%TO.N,P20*%
X199796517Y-117910842D03*
%TD*%
D27*
%TO.P,D16,1*%
%TO.N,P7*%
X246610368Y-166479801D03*
D28*
X251951054Y-167614999D03*
%TO.P,D16,2*%
X248723166Y-166928891D03*
D29*
X254063852Y-168064089D03*
%TD*%
D11*
%TO.P,S15,1*%
%TO.N,P6*%
X177060406Y-136310762D03*
%TO.P,S15,2*%
%TO.N,P19*%
X188709717Y-137903266D03*
%TD*%
D16*
%TO.P,S12,1*%
%TO.N,P5*%
X151622225Y-132816691D03*
%TO.P,S12,2*%
%TO.N,P21*%
X156814344Y-134382544D03*
%TD*%
%TO.P,S2,1*%
%TO.N,P4*%
X136593862Y-171600042D03*
%TO.P,S2,2*%
%TO.N,P19*%
X141785981Y-173165895D03*
%TD*%
D12*
%TO.P,REF\u002A\u002A,1*%
%TO.N,N/C*%
X188196517Y-168610842D03*
D13*
X188196517Y-168610842D03*
%TD*%
D20*
%TO.P,S29,1*%
%TO.N,P8*%
X215733387Y-139840247D03*
%TO.P,S29,2*%
%TO.N,P19*%
X227047693Y-143038525D03*
%TD*%
D16*
%TO.P,S14,1*%
%TO.N,P6*%
X176737757Y-163114382D03*
%TO.P,S14,2*%
%TO.N,P18*%
X181840810Y-164949824D03*
%TD*%
D24*
%TO.P,S5,1*%
%TO.N,P4*%
X133736291Y-127909397D03*
%TO.P,S5,2*%
%TO.N,P21*%
X145452982Y-128890042D03*
%TD*%
D16*
%TO.P,S18,1*%
%TO.N,P6*%
X174958334Y-129160977D03*
%TO.P,S18,2*%
%TO.N,P20*%
X180061387Y-130996419D03*
%TD*%
%TO.P,S38,1*%
%TO.N,P9*%
X233317420Y-137062225D03*
%TO.P,S38,2*%
%TO.N,P20*%
X238115366Y-139590013D03*
%TD*%
D18*
%TO.P,D7,1*%
%TO.N,P6*%
X170470481Y-120438388D03*
%TO.P,D7,2*%
X170297773Y-117142910D03*
%TD*%
D24*
%TO.P,S9,1*%
%TO.N,P5*%
X154095606Y-139846662D03*
%TO.P,S9,2*%
%TO.N,P20*%
X165812297Y-140827307D03*
%TD*%
D17*
%TO.P,D13,1*%
%TO.N,P9*%
X229726740Y-143039210D03*
%TO.P,D13,2*%
X230014354Y-139751768D03*
%TD*%
D30*
%TO.P,REF\u002A\u002A,1*%
%TO.N,GND*%
X281141917Y-168056247D03*
%TO.P,REF\u002A\u002A,2*%
%TO.N,P3*%
X280684374Y-172763758D03*
%TO.P,REF\u002A\u002A,3*%
%TO.N,P2*%
X284466448Y-174066030D03*
%TO.P,REF\u002A\u002A,4*%
%TO.N,VCC*%
X287303004Y-175042735D03*
%TD*%
D17*
%TO.P,D11,1*%
%TO.N,P8*%
X210108612Y-138444705D03*
%TO.P,D11,2*%
X210396226Y-135157263D03*
%TD*%
D24*
%TO.P,S11,1*%
%TO.N,P5*%
X152318622Y-122939790D03*
%TO.P,S11,2*%
%TO.N,P21*%
X164035313Y-123920435D03*
%TD*%
D16*
%TO.P,S16,1*%
%TO.N,P6*%
X175848046Y-146137679D03*
%TO.P,S16,2*%
%TO.N,P19*%
X180951099Y-147973121D03*
%TD*%
D31*
%TO.P,RSW1,1*%
%TO.N,RST*%
X277060244Y-138357905D03*
%TO.P,RSW1,2*%
%TO.N,GND*%
X278411670Y-131999945D03*
%TD*%
D16*
%TO.P,S20,1*%
%TO.N,P6*%
X174068623Y-112184275D03*
%TO.P,S20,2*%
%TO.N,P21*%
X179171676Y-114019717D03*
%TD*%
%TO.P,S8,1*%
%TO.N,P5*%
X155176193Y-166630435D03*
%TO.P,S8,2*%
%TO.N,P19*%
X160368312Y-168196288D03*
%TD*%
D17*
%TO.P,D10,1*%
%TO.N,P8*%
X208626964Y-155380015D03*
%TO.P,D10,2*%
X208914578Y-152092573D03*
%TD*%
D16*
%TO.P,S6,1*%
%TO.N,P4*%
X133039894Y-137786298D03*
%TO.P,S6,2*%
%TO.N,P21*%
X138232013Y-139352151D03*
%TD*%
D24*
%TO.P,S1,1*%
%TO.N,P4*%
X137290259Y-161723141D03*
%TO.P,S1,2*%
%TO.N,P19*%
X149006950Y-162703786D03*
%TD*%
D20*
%TO.P,S35,1*%
%TO.N,P9*%
X234403976Y-144434980D03*
%TO.P,S35,2*%
%TO.N,P19*%
X245718282Y-147633258D03*
%TD*%
D32*
%TO.P,REF\u002A\u002A,1*%
%TO.N,VCC*%
X270482307Y-133943202D03*
D33*
%TO.P,REF\u002A\u002A,2*%
%TO.N,P0*%
X267997812Y-133415106D03*
%TO.P,REF\u002A\u002A,3*%
%TO.N,P1*%
X265513317Y-132887011D03*
%TO.P,REF\u002A\u002A,4*%
%TO.N,GND*%
X263028822Y-132358915D03*
%TD*%
D25*
%TO.P,D8,1*%
%TO.N,P7*%
X190796517Y-122160842D03*
%TO.P,D8,2*%
X190796517Y-118860842D03*
%TD*%
D16*
%TO.P,S36,1*%
%TO.N,P9*%
X231835772Y-153997535D03*
%TO.P,S36,2*%
%TO.N,P19*%
X236633718Y-156525323D03*
%TD*%
%TO.P,S46,1*%
%TO.N,P5*%
X269958719Y-186098312D03*
%TO.P,S46,2*%
%TO.N,P18*%
X274002619Y-189711742D03*
%TD*%
D12*
%TO.P,REF\u002A\u002A,1*%
%TO.N,N/C*%
X211296517Y-177210842D03*
D13*
X211296517Y-177210842D03*
%TD*%
D27*
%TO.P,D17,1*%
%TO.N,P5*%
X267600821Y-171403395D03*
D34*
X272763353Y-173180997D03*
D35*
%TO.P,D17,2*%
X274805673Y-173884225D03*
D34*
X269643141Y-172106623D03*
%TD*%
D16*
%TO.P,S32,1*%
%TO.N,P8*%
X214646830Y-132467492D03*
%TO.P,S32,2*%
%TO.N,P20*%
X219444776Y-134995280D03*
%TD*%
%TO.P,S30,1*%
%TO.N,P8*%
X213165183Y-149402802D03*
%TO.P,S30,2*%
%TO.N,P19*%
X217963129Y-151930590D03*
%TD*%
D20*
%TO.P,S33,1*%
%TO.N,P8*%
X218696682Y-105969627D03*
%TO.P,S33,2*%
%TO.N,P21*%
X230010988Y-109167905D03*
%TD*%
D16*
%TO.P,S44,1*%
%TO.N,P7*%
X250027859Y-181267874D03*
%TO.P,S44,2*%
%TO.N,P18*%
X254481982Y-184361543D03*
%TD*%
D17*
%TO.P,D15,1*%
%TO.N,P9*%
X229308380Y-164176173D03*
%TO.P,D15,2*%
X229595994Y-160888731D03*
%TD*%
D20*
%TO.P,S41,1*%
%TO.N,P9*%
X232225083Y-169339848D03*
%TO.P,S41,2*%
%TO.N,P18*%
X243539389Y-172538126D03*
%TD*%
D19*
%TO.P,D2,1*%
%TO.N,P4*%
X129725562Y-144519625D03*
%TO.P,D2,2*%
X129380618Y-141237703D03*
%TD*%
%TO.P,D1,1*%
%TO.N,P4*%
X131502546Y-161426497D03*
%TO.P,D1,2*%
X131157602Y-158144575D03*
%TD*%
D36*
%TO.N,P4*%
X136593862Y-171600042D02*
X137940863Y-170253041D01*
X137940863Y-163766539D02*
X137290259Y-163115935D01*
X137940863Y-170253041D02*
X137940863Y-163766539D01*
X131502546Y-161426497D02*
X136993615Y-161426497D01*
X129588489Y-141237703D02*
X133039894Y-137786298D01*
X134816878Y-154693170D02*
X135513275Y-153996773D01*
X133736291Y-129302191D02*
X133736291Y-127909397D01*
X129380618Y-141237703D02*
X129588489Y-141237703D01*
X136993615Y-161426497D02*
X137290259Y-161723141D01*
X135513275Y-153996773D02*
X135513275Y-144816269D01*
X134386895Y-136439297D02*
X134386895Y-129952795D01*
X135216631Y-144519625D02*
X135513275Y-144816269D01*
X131365473Y-158144575D02*
X134816878Y-154693170D01*
X137290259Y-163115935D02*
X137290259Y-161723141D01*
X134386895Y-129952795D02*
X133736291Y-129302191D01*
X129725562Y-144519625D02*
X135216631Y-144519625D01*
X133039894Y-137786298D02*
X134386895Y-136439297D01*
X131157602Y-158144575D02*
X131365473Y-158144575D01*
%TO.N,P19*%
X227047693Y-143038525D02*
X227872589Y-142213629D01*
X236633718Y-156525323D02*
X240696187Y-156525323D01*
X227872589Y-142213629D02*
X240544676Y-142213629D01*
X191336637Y-134910842D02*
X189429263Y-136818216D01*
X149821472Y-168196288D02*
X160368312Y-168196288D01*
X227047693Y-141416646D02*
X222449263Y-136818216D01*
X160368312Y-168196288D02*
X162246249Y-168196288D01*
X180951099Y-147973121D02*
X183422388Y-147973121D01*
X143222821Y-173165895D02*
X149006950Y-167381766D01*
X188709717Y-142685792D02*
X188709717Y-137903266D01*
X245718282Y-147387235D02*
X245718282Y-147633258D01*
X252549251Y-144123363D02*
X256266976Y-144123363D01*
X174685452Y-151370904D02*
X178083235Y-147973121D01*
X149006950Y-167381766D02*
X149006950Y-162703786D01*
X167589281Y-157734179D02*
X167589281Y-153578198D01*
X240544676Y-142213629D02*
X245718282Y-147387235D01*
X183422388Y-147973121D02*
X188709717Y-142685792D01*
X209749263Y-136818216D02*
X208071517Y-135140470D01*
X199796517Y-134910842D02*
X191336637Y-134910842D01*
X221531867Y-151930590D02*
X227047693Y-146414764D01*
X199796517Y-134910842D02*
X202863888Y-134910842D01*
X222449263Y-136818216D02*
X209749263Y-136818216D01*
X169796575Y-151370904D02*
X174685452Y-151370904D01*
X208071517Y-129703213D02*
X208071517Y-125260842D01*
X149006950Y-167381766D02*
X149821472Y-168196288D01*
X167589281Y-162853256D02*
X167589281Y-157734179D01*
X141785981Y-173165895D02*
X143222821Y-173165895D01*
X162246249Y-168196288D02*
X167589281Y-162853256D01*
X202863888Y-134910842D02*
X208071517Y-129703213D01*
X251743246Y-143317358D02*
X252549251Y-144123363D01*
X245780029Y-147633258D02*
X250095929Y-143317358D01*
X227047693Y-146414764D02*
X227047693Y-143038525D01*
X240696187Y-156525323D02*
X245718282Y-151503228D01*
X227047693Y-143038525D02*
X227047693Y-141416646D01*
X178083235Y-147973121D02*
X180951099Y-147973121D01*
X208071517Y-135140470D02*
X208071517Y-125260842D01*
X245718282Y-151503228D02*
X245718282Y-147633258D01*
X167589281Y-153578198D02*
X169796575Y-151370904D01*
X245718282Y-147633258D02*
X245780029Y-147633258D01*
X250095929Y-143317358D02*
X251743246Y-143317358D01*
X217963129Y-151930590D02*
X221531867Y-151930590D01*
%TO.N,P20*%
X155558280Y-154322464D02*
X158591328Y-151289416D01*
X147284012Y-156259023D02*
X148877499Y-154665536D01*
X228529340Y-126103215D02*
X222162900Y-119736775D01*
X174593935Y-133982566D02*
X177580082Y-130996419D01*
X142048456Y-156259023D02*
X147229966Y-151077513D01*
X247199930Y-136168883D02*
X252929263Y-141898216D01*
X180061387Y-130996419D02*
X182551060Y-130996419D01*
X160469265Y-151289416D02*
X165812297Y-145946384D01*
X187820005Y-120926564D02*
X196780795Y-120926564D01*
X223824366Y-134995280D02*
X219444776Y-134995280D01*
X208071517Y-108260842D02*
X208071517Y-112703213D01*
X238115366Y-139590013D02*
X243778800Y-139590013D01*
X204689821Y-119736775D02*
X202863888Y-117910842D01*
X229519297Y-125113258D02*
X228529340Y-126103215D01*
X243778800Y-139590013D02*
X247199930Y-136168883D01*
X247199930Y-130697948D02*
X247199930Y-136168883D01*
X158591328Y-151289416D02*
X160469265Y-151289416D01*
X222162900Y-119736775D02*
X204689821Y-119736775D01*
X169468951Y-133982566D02*
X174593935Y-133982566D01*
X208071517Y-112703213D02*
X202863888Y-117910842D01*
X165812297Y-137639220D02*
X169468951Y-133982566D01*
X148877499Y-154665536D02*
X155558280Y-154665536D01*
X241615240Y-125113258D02*
X229519297Y-125113258D01*
X155558280Y-154665536D02*
X155558280Y-154322464D01*
X140008997Y-156259023D02*
X147284012Y-156259023D01*
X177580082Y-130996419D02*
X180061387Y-130996419D01*
X187820005Y-125727474D02*
X187820005Y-120926564D01*
X140008997Y-156259023D02*
X142048456Y-156259023D01*
X196780795Y-120926564D02*
X199796517Y-117910842D01*
X182551060Y-130996419D02*
X187820005Y-125727474D01*
X247199930Y-130697948D02*
X241615240Y-125113258D01*
X165812297Y-145946384D02*
X165812297Y-140827307D01*
X228529340Y-126103215D02*
X228529340Y-130290306D01*
X202863888Y-117910842D02*
X199796517Y-117910842D01*
X253188611Y-141638868D02*
X256795072Y-141638868D01*
X228529340Y-130290306D02*
X223824366Y-134995280D01*
X147229966Y-151077513D02*
X147229966Y-145796914D01*
X165812297Y-140827307D02*
X165812297Y-137639220D01*
X252929263Y-141898216D02*
X253188611Y-141638868D01*
%TO.N,P21*%
X203190040Y-98954158D02*
X208071517Y-94072682D01*
X159546150Y-119431272D02*
X153910965Y-119431272D01*
X248681578Y-113762638D02*
X243196475Y-108277535D01*
X206190317Y-98954158D02*
X203190040Y-98954158D01*
X248681578Y-126809086D02*
X255469263Y-133596771D01*
X158692281Y-134382544D02*
X164035313Y-129039512D01*
X239597014Y-122654703D02*
X248195201Y-122654703D01*
X232724970Y-106453923D02*
X230967991Y-104696944D01*
X179171676Y-114019717D02*
X176667762Y-114019717D01*
X149243568Y-120529483D02*
X145452982Y-124320069D01*
X153910965Y-119431272D02*
X152812754Y-120529483D01*
X168917532Y-119038216D02*
X164035313Y-123920435D01*
X185720799Y-109136427D02*
X185720799Y-105159357D01*
X164035313Y-123920435D02*
X159546150Y-119431272D01*
X230967991Y-104696944D02*
X223834221Y-104696944D01*
X232840677Y-106338216D02*
X232724970Y-106453923D01*
X171649263Y-119038216D02*
X168917532Y-119038216D01*
X140109950Y-139352151D02*
X145452982Y-134009119D01*
X248195201Y-122654703D02*
X248681578Y-122168326D01*
X241995772Y-108277535D02*
X240056453Y-106338216D01*
X138232013Y-139352151D02*
X140109950Y-139352151D01*
X179171676Y-114019717D02*
X180837509Y-114019717D01*
X208071517Y-94072682D02*
X208071517Y-91260842D01*
X243196475Y-108277535D02*
X241995772Y-108277535D01*
X228221769Y-118059970D02*
X230010988Y-116270751D01*
X201233357Y-100910842D02*
X203190040Y-98954158D01*
X248681578Y-113762638D02*
X248681578Y-122168326D01*
X223834221Y-104696944D02*
X222935493Y-103798216D01*
X232724970Y-106453923D02*
X230010988Y-109167905D01*
X255469263Y-133596771D02*
X255469263Y-137300469D01*
X176667762Y-114019717D02*
X171649263Y-119038216D01*
X248681578Y-122168326D02*
X248681578Y-126809086D01*
X196757497Y-103949862D02*
X199796517Y-100910842D01*
X186930294Y-103949862D02*
X196757497Y-103949862D01*
X145452982Y-124320069D02*
X145452982Y-128890042D01*
X145452982Y-134009119D02*
X145452982Y-128890042D01*
X156814344Y-134382544D02*
X158692281Y-134382544D01*
X240056453Y-106338216D02*
X232840677Y-106338216D01*
X255469263Y-137300469D02*
X257323168Y-139154374D01*
X164035313Y-129039512D02*
X164035313Y-123920435D01*
X199796517Y-100910842D02*
X201233357Y-100910842D01*
X220926424Y-118059970D02*
X228221769Y-118059970D01*
X206190317Y-98954158D02*
X211034375Y-103798216D01*
X185720799Y-105159357D02*
X186930294Y-103949862D01*
X152812754Y-120529483D02*
X149243568Y-120529483D01*
X180837509Y-114019717D02*
X185720799Y-109136427D01*
X230010988Y-116270751D02*
X230010988Y-109167905D01*
X222935493Y-103798216D02*
X211034375Y-103798216D01*
%TO.N,P5*%
X269958719Y-186098312D02*
X274764028Y-181293003D01*
X148307893Y-139550018D02*
X153798962Y-139550018D01*
X274805673Y-173884225D02*
X273466581Y-173884225D01*
X274805673Y-173884225D02*
X274805673Y-177399466D01*
X149739933Y-153174969D02*
X149947803Y-153174969D01*
X154746210Y-141890060D02*
X154095606Y-141239456D01*
X274764028Y-181293003D02*
X274764028Y-177441111D01*
X274805673Y-177399466D02*
X274764028Y-177441111D01*
X148170820Y-136268096D02*
X151622225Y-132816691D01*
X151622225Y-132816691D02*
X152318622Y-132120294D01*
X155575947Y-156456891D02*
X155872590Y-156753534D01*
X152318622Y-132120294D02*
X152318622Y-122939790D01*
X155176193Y-166630435D02*
X155872590Y-165934038D01*
X155872590Y-165934038D02*
X155872590Y-156753534D01*
X269643141Y-172106623D02*
X268304049Y-172106623D01*
X153399209Y-149723563D02*
X154746210Y-148376562D01*
X150084877Y-156456891D02*
X155575947Y-156456891D01*
X147962949Y-136268096D02*
X148170820Y-136268096D01*
X273466581Y-173884225D02*
X272763353Y-173180997D01*
X154095606Y-141239456D02*
X154095606Y-139846662D01*
X153798962Y-139550018D02*
X154095606Y-139846662D01*
X154746210Y-148376562D02*
X154746210Y-141890060D01*
X268304049Y-172106623D02*
X267600821Y-171403395D01*
X149947803Y-153174969D02*
X153399209Y-149723563D01*
%TO.N,P6*%
X172013153Y-149392843D02*
X172592882Y-149392843D01*
X172185861Y-152688321D02*
X172785005Y-153287465D01*
X176737757Y-163114382D02*
X177950117Y-161902022D01*
X172785005Y-153287465D02*
X177950117Y-153287465D01*
X176501613Y-127617698D02*
X176501613Y-122089699D01*
X176170694Y-121758780D02*
X176170694Y-119334060D01*
X171703170Y-132416141D02*
X174958334Y-129160977D01*
X171895292Y-136310762D02*
X171296149Y-135711619D01*
X174068623Y-112184275D02*
X175280983Y-110971915D01*
X174958334Y-129160977D02*
X176501613Y-127617698D01*
X171123441Y-132416141D02*
X171703170Y-132416141D01*
X170297773Y-115955125D02*
X174068623Y-112184275D01*
X177950117Y-161902022D02*
X177950117Y-153287465D01*
X170297773Y-117142910D02*
X170297773Y-115955125D01*
X172592882Y-149392843D02*
X175848046Y-146137679D01*
X177060406Y-144925319D02*
X177060406Y-136310762D01*
X175066366Y-120438388D02*
X176170694Y-119334060D01*
X175280983Y-110971915D02*
X175280983Y-102357358D01*
X176501613Y-122089699D02*
X176170694Y-121758780D01*
X175848046Y-146137679D02*
X177060406Y-144925319D01*
X177060406Y-136310762D02*
X171895292Y-136310762D01*
X170470481Y-120438388D02*
X175066366Y-120438388D01*
%TO.N,P18*%
X270407807Y-189711742D02*
X274002619Y-189711742D01*
X243598182Y-162261495D02*
X249546824Y-156312853D01*
X265057608Y-184361543D02*
X270407807Y-189711742D01*
X243598182Y-162261495D02*
X243539389Y-162320288D01*
X264582501Y-181044978D02*
X264582501Y-176642888D01*
X254481982Y-184361543D02*
X265057608Y-184361543D01*
X283409263Y-184840819D02*
X284968518Y-183281564D01*
X248678851Y-184361543D02*
X254481982Y-184361543D01*
X216481481Y-168865900D02*
X221344272Y-168865900D01*
X221344272Y-168865900D02*
X225566045Y-164644127D01*
X225566045Y-159973835D02*
X225566045Y-160254998D01*
X225566045Y-164644127D02*
X225566045Y-159973835D01*
X183277650Y-164949824D02*
X189599428Y-158628046D01*
X261265936Y-184361543D02*
X264582501Y-181044978D01*
X274002619Y-189711742D02*
X281315737Y-189711742D01*
X281315737Y-189711742D02*
X283409263Y-187618216D01*
X243539389Y-176408096D02*
X238517294Y-181430191D01*
X189599428Y-158628046D02*
X189599428Y-154879969D01*
X227572542Y-162261495D02*
X243598182Y-162261495D01*
X225566045Y-160254998D02*
X227572542Y-162261495D01*
X249546824Y-156312853D02*
X249546824Y-150821798D01*
X245470059Y-181430191D02*
X248540131Y-184500263D01*
X249546824Y-150821798D02*
X253760764Y-146607858D01*
X254481982Y-184361543D02*
X261265936Y-184361543D01*
X181840810Y-164949824D02*
X183277650Y-164949824D01*
X243539389Y-172538126D02*
X243539389Y-176408096D01*
X238517294Y-181430191D02*
X234454825Y-181430191D01*
X243539389Y-162320288D02*
X243539389Y-172538126D01*
X253760764Y-146607858D02*
X255738881Y-146607858D01*
X248540131Y-184500263D02*
X248678851Y-184361543D01*
X283409263Y-187618216D02*
X283409263Y-184840819D01*
X234454825Y-181430191D02*
X245470059Y-181430191D01*
%TO.N,P7*%
X247059458Y-166928891D02*
X246610368Y-166479801D01*
X190796517Y-101860842D02*
X191746517Y-101860842D01*
X248723166Y-166928891D02*
X247059458Y-166928891D01*
X196537987Y-92527312D02*
X196521517Y-92510842D01*
X251951054Y-167614999D02*
X253614762Y-167614999D01*
X190796517Y-122160842D02*
X195621517Y-122160842D01*
X196521517Y-123060842D02*
X196521517Y-131085842D01*
X191746517Y-118860842D02*
X194796517Y-115810842D01*
X254063852Y-168064089D02*
X254063852Y-171768033D01*
X191746517Y-101860842D02*
X194796517Y-98810842D01*
X190796517Y-105160842D02*
X195621517Y-105160842D01*
X196521517Y-109510842D02*
X196521517Y-106060842D01*
X196521517Y-92510842D02*
X196521517Y-89060842D01*
X253614762Y-167614999D02*
X254063852Y-168064089D01*
X196521517Y-131085842D02*
X194796517Y-132810842D01*
X195621517Y-105160842D02*
X196521517Y-106060842D01*
X253742302Y-177553431D02*
X253742302Y-172089583D01*
X196537987Y-97069372D02*
X196537987Y-92527312D01*
X195621517Y-122160842D02*
X196521517Y-123060842D01*
X190796517Y-118860842D02*
X191746517Y-118860842D01*
X194796517Y-98810842D02*
X196537987Y-97069372D01*
X254063852Y-171768033D02*
X253742302Y-172089583D01*
X196537987Y-109527312D02*
X196521517Y-109510842D01*
X250027859Y-181267874D02*
X253742302Y-177553431D01*
X194796517Y-115810842D02*
X196537987Y-114069372D01*
X196537987Y-114069372D02*
X196537987Y-109527312D01*
%TO.N,P8*%
X208914578Y-152092573D02*
X210475412Y-152092573D01*
X210108612Y-138444705D02*
X214337845Y-138444705D01*
X214251739Y-160924685D02*
X214251739Y-156775557D01*
X212856197Y-155380015D02*
X214251739Y-156775557D01*
X214337845Y-138444705D02*
X215733387Y-139840247D01*
X216721394Y-130392928D02*
X216721394Y-127547705D01*
X217215034Y-127054065D02*
X217215034Y-122904937D01*
X216128478Y-113873705D02*
X218696682Y-111305501D01*
X215733387Y-146834598D02*
X215733387Y-139840247D01*
X208626964Y-155380015D02*
X212856197Y-155380015D01*
X214646830Y-132467492D02*
X216721394Y-130392928D01*
X210396226Y-135157263D02*
X211957059Y-135157263D01*
X210475412Y-152092573D02*
X213165183Y-149402802D01*
X211877874Y-118221953D02*
X213438707Y-118221953D01*
X213758099Y-161418325D02*
X214251739Y-160924685D01*
X213758099Y-164263548D02*
X213758099Y-161418325D01*
X213165183Y-149402802D02*
X215733387Y-146834598D01*
X211957059Y-135157263D02*
X214646830Y-132467492D01*
X215819492Y-121509395D02*
X217215034Y-122904937D01*
X213438707Y-118221953D02*
X216128478Y-115532182D01*
X216128478Y-115532182D02*
X216128478Y-113873705D01*
X218696682Y-111305501D02*
X218696682Y-105969627D01*
X211590260Y-121509395D02*
X215819492Y-121509395D01*
X211683535Y-166338112D02*
X213758099Y-164263548D01*
X216721394Y-127547705D02*
X217215034Y-127054065D01*
%TO.N,P9*%
X235885624Y-133057181D02*
X235885624Y-127499670D01*
X229656879Y-178902403D02*
X232225083Y-176334199D01*
X236873632Y-115207128D02*
X237367272Y-114713488D01*
X230627877Y-139751768D02*
X233317420Y-137062225D01*
X234403976Y-148584108D02*
X234403976Y-144434980D01*
X234799068Y-120126915D02*
X236873632Y-118052351D01*
X233910336Y-151922971D02*
X233910336Y-149077748D01*
X232225083Y-167092876D02*
X229308380Y-164176173D01*
X234585931Y-126199977D02*
X235885624Y-127499670D01*
X229726740Y-143039210D02*
X233008206Y-143039210D01*
X229595994Y-160888731D02*
X231835772Y-158648953D01*
X230014354Y-139751768D02*
X230627877Y-139751768D01*
X237367272Y-114713488D02*
X237367272Y-110564360D01*
X233317420Y-135625385D02*
X235885624Y-133057181D01*
X231835772Y-158648953D02*
X231835772Y-153997535D01*
X236873632Y-118052351D02*
X236873632Y-115207128D01*
X231387117Y-122912535D02*
X232013448Y-122912535D01*
X231099503Y-126199977D02*
X234585931Y-126199977D01*
X233910336Y-149077748D02*
X234403976Y-148584108D01*
X231835772Y-153997535D02*
X233910336Y-151922971D01*
X232225083Y-169339848D02*
X232225083Y-167092876D01*
X232013448Y-122912535D02*
X234799068Y-120126915D01*
X232225083Y-176334199D02*
X232225083Y-169339848D01*
X233008206Y-143039210D02*
X234403976Y-144434980D01*
X233317420Y-137062225D02*
X233317420Y-135625385D01*
%TO.N,RST*%
X277060244Y-138357905D02*
X274854997Y-136152658D01*
X258738565Y-134544590D02*
X258379359Y-134185384D01*
X274854997Y-136152658D02*
X267460649Y-136152658D01*
X265852581Y-134544590D02*
X258738565Y-134544590D01*
X267460649Y-136152658D02*
X265852581Y-134544590D01*
D37*
%TO.N,VCC*%
X281330167Y-175379120D02*
X286966619Y-175379120D01*
X269813912Y-169401287D02*
X272053652Y-169401287D01*
X264360431Y-168569384D02*
X268982009Y-168569384D01*
X272053652Y-169401287D02*
X275352334Y-169401287D01*
X257851264Y-136669879D02*
X260549263Y-139367878D01*
X260549263Y-164758216D02*
X264360431Y-168569384D01*
X260549263Y-139367878D02*
X260549263Y-164758216D01*
X286966619Y-175379120D02*
X287303004Y-175042735D01*
X268982009Y-168569384D02*
X269813912Y-169401287D01*
X275352334Y-169401287D02*
X281330167Y-175379120D01*
%TD*%
M02*
