%TF.GenerationSoftware,KiCad,Pcbnew,(6.0.7-1)-1*%
%TF.CreationDate,2022-09-15T11:20:02-04:00*%
%TF.ProjectId,skyline_pcb_left,736b796c-696e-4655-9f70-63625f6c6566,v1.0.0*%
%TF.SameCoordinates,Original*%
%TF.FileFunction,Soldermask,Bot*%
%TF.FilePolarity,Negative*%
%FSLAX46Y46*%
G04 Gerber Fmt 4.6, Leading zero omitted, Abs format (unit mm)*
G04 Created by KiCad (PCBNEW (6.0.7-1)-1) date 2022-09-15 11:20:02*
%MOMM*%
%LPD*%
G01*
G04 APERTURE LIST*
G04 Aperture macros list*
%AMRoundRect*
0 Rectangle with rounded corners*
0 $1 Rounding radius*
0 $2 $3 $4 $5 $6 $7 $8 $9 X,Y pos of 4 corners*
0 Add a 4 corners polygon primitive as box body*
4,1,4,$2,$3,$4,$5,$6,$7,$8,$9,$2,$3,0*
0 Add four circle primitives for the rounded corners*
1,1,$1+$1,$2,$3*
1,1,$1+$1,$4,$5*
1,1,$1+$1,$6,$7*
1,1,$1+$1,$8,$9*
0 Add four rect primitives between the rounded corners*
20,1,$1+$1,$2,$3,$4,$5,0*
20,1,$1+$1,$4,$5,$6,$7,0*
20,1,$1+$1,$6,$7,$8,$9,0*
20,1,$1+$1,$8,$9,$2,$3,0*%
%AMHorizOval*
0 Thick line with rounded ends*
0 $1 width*
0 $2 $3 position (X,Y) of the first rounded end (center of the circle)*
0 $4 $5 position (X,Y) of the second rounded end (center of the circle)*
0 Add line between two ends*
20,1,$1,$2,$3,$4,$5,0*
0 Add two circle primitives to create the rounded ends*
1,1,$1,$2,$3*
1,1,$1,$4,$5*%
G04 Aperture macros list end*
%ADD10C,1.100000*%
%ADD11C,3.529000*%
%ADD12C,3.100000*%
%ADD13C,1.801800*%
%ADD14RoundRect,0.050000X-1.230182X-1.366255X1.366255X-1.230182X1.230182X1.366255X-1.366255X1.230182X0*%
%ADD15C,3.700000*%
%ADD16C,5.700000*%
%ADD17RoundRect,0.050000X-1.652413X-0.805936X0.805936X-1.652413X1.652413X0.805936X-0.805936X1.652413X0*%
%ADD18C,1.497000*%
%ADD19C,2.132000*%
%ADD20RoundRect,0.050000X0.558497X-0.500581X0.636937X0.395994X-0.558497X0.500581X-0.636937X-0.395994X0*%
%ADD21RoundRect,0.050000X0.622729X-0.417982X0.575627X0.480785X-0.622729X0.417982X-0.575627X-0.480785X0*%
%ADD22RoundRect,0.050000X0.643751X-0.384818X0.549675X0.510252X-0.643751X0.384818X-0.549675X-0.510252X0*%
%ADD23RoundRect,0.050000X-1.408356X-1.181751X1.181751X-1.408356X1.408356X1.181751X-1.181751X1.408356X0*%
%ADD24RoundRect,0.050000X-0.674958X1.039344X-1.039344X-0.674958X0.674958X-1.039344X1.039344X0.674958X0*%
%ADD25C,1.852600*%
%ADD26RoundRect,0.050000X-1.300000X-1.300000X1.300000X-1.300000X1.300000X1.300000X-1.300000X1.300000X0*%
%ADD27RoundRect,0.050000X-1.156991X-1.428765X1.428765X-1.156991X1.156991X1.428765X-1.428765X1.156991X0*%
%ADD28RoundRect,0.050000X0.600000X-0.450000X0.600000X0.450000X-0.600000X0.450000X-0.600000X-0.450000X0*%
%ADD29RoundRect,0.050000X-1.541877X-1.001307X1.001307X-1.541877X1.541877X1.001307X-1.001307X1.541877X0*%
%ADD30C,2.005000*%
%ADD31RoundRect,0.050000X0.564913X0.493328X-0.315419X0.680449X-0.564913X-0.493328X0.315419X-0.680449X0*%
%ADD32RoundRect,0.050000X1.054407X0.684740X-0.684740X1.054407X-1.054407X-0.684740X0.684740X-1.054407X0*%
%ADD33C,1.600000*%
%ADD34HorizOval,1.700000X-0.283656X0.097670X0.283656X-0.097670X0*%
%ADD35C,2.100000*%
%ADD36RoundRect,0.050000X-0.654701X1.008150X-1.008150X-0.654701X0.654701X-1.008150X1.008150X0.654701X0*%
%ADD37HorizOval,1.800000X0.000000X0.000000X0.000000X0.000000X0*%
%ADD38RoundRect,0.050000X0.620824X0.420805X-0.230142X0.713817X-0.620824X-0.420805X0.230142X-0.713817X0*%
%ADD39RoundRect,0.050000X1.129996X0.551136X-0.551136X1.129996X-1.129996X-0.551136X0.551136X-1.129996X0*%
G04 APERTURE END LIST*
D10*
%TO.C,T1*%
X255661978Y-125952893D03*
X252727536Y-125329157D03*
%TD*%
D11*
%TO.C,S13*%
X181532028Y-159057910D03*
D12*
X186328916Y-155051369D03*
D13*
X176039566Y-159345758D03*
X187024490Y-158770062D03*
D12*
X181220629Y-153116064D03*
D14*
X177950117Y-153287465D03*
X189599428Y-154879969D03*
%TD*%
D15*
%TO.C,REF\u002A\u002A*%
X248471233Y-108327154D03*
D16*
X248471233Y-108327154D03*
%TD*%
D12*
%TO.C,S45*%
X277860602Y-178507346D03*
X281871944Y-182215328D03*
D13*
X270723119Y-182342557D03*
D11*
X275923471Y-184133182D03*
D13*
X281123823Y-185923807D03*
D17*
X274764028Y-177441111D03*
X284968518Y-183281564D03*
%TD*%
D18*
%TO.C,\u002A\u002A*%
X270339579Y-163674142D03*
X268982009Y-168569384D03*
%TD*%
D13*
%TO.C,S26*%
X205296517Y-95010842D03*
X194296517Y-95010842D03*
D11*
X199796517Y-95010842D03*
D19*
X194796517Y-98810842D03*
X199796517Y-100910842D03*
%TD*%
D20*
%TO.C,D12*%
X211590260Y-121509395D03*
X211877874Y-118221953D03*
%TD*%
D21*
%TO.C,D5*%
X172185861Y-152688321D03*
X172013153Y-149392843D03*
%TD*%
D15*
%TO.C,REF\u002A\u002A*%
X168206517Y-128350842D03*
D16*
X168206517Y-128350842D03*
%TD*%
D13*
%TO.C,S42*%
X240448115Y-176031999D03*
X229489973Y-175073285D03*
D11*
X234969044Y-175552642D03*
D19*
X229656879Y-178902403D03*
X234454825Y-181430191D03*
%TD*%
D22*
%TO.C,D3*%
X150084877Y-156456891D03*
X149739933Y-153174969D03*
%TD*%
D11*
%TO.C,S31*%
X219958995Y-129117731D03*
D12*
X220477572Y-123190373D03*
D13*
X214479924Y-128638374D03*
D12*
X225266803Y-125817780D03*
D13*
X225438066Y-129597088D03*
D23*
X217215034Y-122904937D03*
X228529340Y-126103215D03*
%TD*%
D11*
%TO.C,S34*%
X221440643Y-112182421D03*
D13*
X226919714Y-112661778D03*
X215961572Y-111703064D03*
D19*
X216128478Y-115532182D03*
X220926424Y-118059970D03*
%TD*%
D11*
%TO.C,S40*%
X240111233Y-116777154D03*
D13*
X234632162Y-116297797D03*
X245590304Y-117256511D03*
D19*
X234799068Y-120126915D03*
X239597014Y-122654703D03*
%TD*%
D13*
%TO.C,S22*%
X205296517Y-129010842D03*
D11*
X199796517Y-129010842D03*
D13*
X194296517Y-129010842D03*
D19*
X194796517Y-132810842D03*
X199796517Y-134910842D03*
%TD*%
D22*
%TO.C,D4*%
X148307893Y-139550018D03*
X147962949Y-136268096D03*
%TD*%
D21*
%TO.C,D6*%
X171296149Y-135711619D03*
X171123441Y-132416141D03*
%TD*%
D13*
%TO.C,S28*%
X211516629Y-162508994D03*
D11*
X216995700Y-162988351D03*
D13*
X222474771Y-163467708D03*
D19*
X211683535Y-166338112D03*
X216481481Y-168865900D03*
%TD*%
D13*
%TO.C,S4*%
X133922409Y-150966251D03*
X144862149Y-149816437D03*
D11*
X139392279Y-150391344D03*
D19*
X134816878Y-154693170D03*
X140008997Y-156259023D03*
%TD*%
D13*
%TO.C,S39*%
X234632162Y-116297797D03*
D11*
X240111233Y-116777154D03*
D12*
X245419041Y-113477203D03*
D13*
X245590304Y-117256511D03*
D12*
X240629810Y-110849796D03*
D23*
X237367272Y-110564360D03*
X248681578Y-113762638D03*
%TD*%
D11*
%TO.C,S10*%
X157974610Y-145421737D03*
D13*
X152504740Y-145996644D03*
X163444480Y-144846830D03*
D19*
X153399209Y-149723563D03*
X158591328Y-151289416D03*
%TD*%
D12*
%TO.C,S19*%
X183659782Y-104121262D03*
D11*
X178862894Y-108127803D03*
D13*
X184355356Y-107839955D03*
X173370432Y-108415651D03*
D12*
X178551495Y-102185957D03*
D14*
X175280983Y-102357358D03*
X186930294Y-103949862D03*
%TD*%
D24*
%TO.C,MCU1*%
X259435551Y-129216394D03*
D25*
X258907455Y-131700889D03*
X258379359Y-134185384D03*
X257851264Y-136669879D03*
X257323168Y-139154374D03*
X256795072Y-141638868D03*
X256266976Y-144123363D03*
X255738881Y-146607858D03*
X255210785Y-149092353D03*
X254682689Y-151576848D03*
X254154594Y-154061343D03*
X253626498Y-156545838D03*
X274342520Y-132384968D03*
X273814424Y-134869463D03*
X273286329Y-137353958D03*
X272758233Y-139838453D03*
X272230137Y-142322948D03*
X271702042Y-144807443D03*
X271173946Y-147291938D03*
X270645850Y-149776432D03*
X270117754Y-152260927D03*
X269589659Y-154745422D03*
X269061563Y-157229917D03*
X268533467Y-159714412D03*
%TD*%
D13*
%TO.C,S21*%
X205296517Y-129010842D03*
D12*
X199796517Y-123060842D03*
D11*
X199796517Y-129010842D03*
D13*
X194296517Y-129010842D03*
D12*
X204796517Y-125260842D03*
D26*
X196521517Y-123060842D03*
X208071517Y-125260842D03*
%TD*%
D13*
%TO.C,S25*%
X194296517Y-95010842D03*
D11*
X199796517Y-95010842D03*
D13*
X205296517Y-95010842D03*
D12*
X204796517Y-91260842D03*
X199796517Y-89060842D03*
D26*
X196521517Y-89060842D03*
X208071517Y-91260842D03*
%TD*%
D11*
%TO.C,S23*%
X199796517Y-112010842D03*
D13*
X194296517Y-112010842D03*
D12*
X199796517Y-106060842D03*
D13*
X205296517Y-112010842D03*
D12*
X204796517Y-108260842D03*
D26*
X196521517Y-106060842D03*
X208071517Y-108260842D03*
%TD*%
D12*
%TO.C,S3*%
X138770335Y-144473939D03*
X143972907Y-146139245D03*
D13*
X133922409Y-150966251D03*
X144862149Y-149816437D03*
D11*
X139392279Y-150391344D03*
D27*
X135513275Y-144816269D03*
X147229966Y-145796914D03*
%TD*%
D12*
%TO.C,S7*%
X164332222Y-158076510D03*
D13*
X154281724Y-162903516D03*
X165221464Y-161753702D03*
D11*
X159751594Y-162328609D03*
D12*
X159129650Y-156411204D03*
D27*
X155872590Y-156753534D03*
X167589281Y-157734179D03*
%TD*%
D11*
%TO.C,S37*%
X238629585Y-133712464D03*
D12*
X239148162Y-127785106D03*
D13*
X244108656Y-134191821D03*
X233150514Y-133233107D03*
D12*
X243937393Y-130412513D03*
D23*
X235885624Y-127499670D03*
X247199930Y-130697948D03*
%TD*%
D28*
%TO.C,D9*%
X190796517Y-105160842D03*
X190796517Y-101860842D03*
%TD*%
D16*
%TO.C,REF\u002A\u002A*%
X251896517Y-135310842D03*
D15*
X251896517Y-135310842D03*
%TD*%
D18*
%TO.C,\u002A\u002A*%
X273411222Y-164506045D03*
X272053652Y-169401287D03*
%TD*%
D11*
%TO.C,S43*%
X255708661Y-178590472D03*
D12*
X261379068Y-175961977D03*
X256945736Y-172770494D03*
D13*
X261088473Y-179733986D03*
X250328849Y-177446958D03*
D29*
X253742302Y-172089583D03*
X264582501Y-176642888D03*
%TD*%
D12*
%TO.C,S27*%
X222303508Y-159688400D03*
D13*
X222474771Y-163467708D03*
D12*
X217514277Y-157060993D03*
D11*
X216995700Y-162988351D03*
D13*
X211516629Y-162508994D03*
D23*
X214251739Y-156775557D03*
X225566045Y-159973835D03*
%TD*%
D11*
%TO.C,S17*%
X179752605Y-125104505D03*
D13*
X174260143Y-125392353D03*
X185245067Y-124816657D03*
D12*
X184549493Y-121097964D03*
X179441206Y-119162659D03*
D14*
X176170694Y-119334060D03*
X187820005Y-120926564D03*
%TD*%
D20*
%TO.C,D14*%
X231099503Y-126199977D03*
X231387117Y-122912535D03*
%TD*%
D11*
%TO.C,S24*%
X199796517Y-112010842D03*
D13*
X205296517Y-112010842D03*
X194296517Y-112010842D03*
D19*
X194796517Y-115810842D03*
X199796517Y-117910842D03*
%TD*%
D30*
%TO.C,D16*%
X246610368Y-166479801D03*
D31*
X251951054Y-167614999D03*
X248723166Y-166928891D03*
D32*
X254063852Y-168064089D03*
%TD*%
D11*
%TO.C,S15*%
X180642317Y-142081207D03*
D13*
X186134779Y-141793359D03*
X175149855Y-142369055D03*
D12*
X180330918Y-136139361D03*
X185439205Y-138074666D03*
D14*
X177060406Y-136310762D03*
X188709717Y-137903266D03*
%TD*%
D13*
%TO.C,S12*%
X150727756Y-129089772D03*
D11*
X156197626Y-128514865D03*
D13*
X161667496Y-127939958D03*
D19*
X151622225Y-132816691D03*
X156814344Y-134382544D03*
%TD*%
D13*
%TO.C,S2*%
X146639133Y-166723309D03*
D11*
X141169263Y-167298216D03*
D13*
X135699393Y-167873123D03*
D19*
X136593862Y-171600042D03*
X141785981Y-173165895D03*
%TD*%
D15*
%TO.C,REF\u002A\u002A*%
X188196517Y-168610842D03*
D16*
X188196517Y-168610842D03*
%TD*%
D13*
%TO.C,S29*%
X223956419Y-146532398D03*
D11*
X218477348Y-146053041D03*
D12*
X223785156Y-142753090D03*
D13*
X212998277Y-145573684D03*
D12*
X218995925Y-140125683D03*
D23*
X215733387Y-139840247D03*
X227047693Y-143038525D03*
%TD*%
D13*
%TO.C,S14*%
X176039566Y-159345758D03*
X187024490Y-158770062D03*
D11*
X181532028Y-159057910D03*
D19*
X176737757Y-163114382D03*
X181840810Y-164949824D03*
%TD*%
D12*
%TO.C,S5*%
X142195923Y-129232373D03*
D11*
X137615295Y-133484472D03*
D13*
X143085165Y-132909565D03*
D12*
X136993351Y-127567067D03*
D13*
X132145425Y-134059379D03*
D27*
X133736291Y-127909397D03*
X145452982Y-128890042D03*
%TD*%
D13*
%TO.C,S18*%
X174260143Y-125392353D03*
X185245067Y-124816657D03*
D11*
X179752605Y-125104505D03*
D19*
X174958334Y-129160977D03*
X180061387Y-130996419D03*
%TD*%
D13*
%TO.C,S38*%
X233150514Y-133233107D03*
D11*
X238629585Y-133712464D03*
D13*
X244108656Y-134191821D03*
D19*
X233317420Y-137062225D03*
X238115366Y-139590013D03*
%TD*%
D21*
%TO.C,D7*%
X170470481Y-120438388D03*
X170297773Y-117142910D03*
%TD*%
D13*
%TO.C,S9*%
X163444480Y-144846830D03*
D11*
X157974610Y-145421737D03*
D12*
X157352666Y-139504332D03*
X162555238Y-141169638D03*
D13*
X152504740Y-145996644D03*
D27*
X154095606Y-139846662D03*
X165812297Y-140827307D03*
%TD*%
D20*
%TO.C,D13*%
X229726740Y-143039210D03*
X230014354Y-139751768D03*
%TD*%
D33*
%TO.C,REF\u002A\u002A*%
X289564640Y-173388951D03*
X282946010Y-171109974D03*
D34*
X281141917Y-168056247D03*
X280684374Y-172763758D03*
X284466448Y-174066030D03*
X287303004Y-175042735D03*
%TD*%
D20*
%TO.C,D11*%
X210108612Y-138444705D03*
X210396226Y-135157263D03*
%TD*%
D13*
%TO.C,S11*%
X150727756Y-129089772D03*
D12*
X155575682Y-122597460D03*
D11*
X156197626Y-128514865D03*
D13*
X161667496Y-127939958D03*
D12*
X160778254Y-124262766D03*
D27*
X152318622Y-122939790D03*
X164035313Y-123920435D03*
%TD*%
D13*
%TO.C,S16*%
X175149855Y-142369055D03*
D11*
X180642317Y-142081207D03*
D13*
X186134779Y-141793359D03*
D19*
X175848046Y-146137679D03*
X180951099Y-147973121D03*
%TD*%
D35*
%TO.C,RSW1*%
X277060244Y-138357905D03*
X278411670Y-131999945D03*
%TD*%
D13*
%TO.C,S20*%
X173370432Y-108415651D03*
X184355356Y-107839955D03*
D11*
X178862894Y-108127803D03*
D19*
X174068623Y-112184275D03*
X179171676Y-114019717D03*
%TD*%
D13*
%TO.C,S8*%
X165221464Y-161753702D03*
D11*
X159751594Y-162328609D03*
D13*
X154281724Y-162903516D03*
D19*
X155176193Y-166630435D03*
X160368312Y-168196288D03*
%TD*%
D20*
%TO.C,D10*%
X208626964Y-155380015D03*
X208914578Y-152092573D03*
%TD*%
D13*
%TO.C,S6*%
X143085165Y-132909565D03*
D11*
X137615295Y-133484472D03*
D13*
X132145425Y-134059379D03*
D19*
X133039894Y-137786298D03*
X138232013Y-139352151D03*
%TD*%
D12*
%TO.C,S1*%
X145749891Y-163046117D03*
D13*
X146639133Y-166723309D03*
D12*
X140547319Y-161380811D03*
D11*
X141169263Y-167298216D03*
D13*
X135699393Y-167873123D03*
D27*
X137290259Y-161723141D03*
X149006950Y-162703786D03*
%TD*%
D13*
%TO.C,S35*%
X231668866Y-150168417D03*
X242627008Y-151127131D03*
D12*
X237666514Y-144720416D03*
X242455745Y-147347823D03*
D11*
X237147937Y-150647774D03*
D23*
X234403976Y-144434980D03*
X245718282Y-147633258D03*
%TD*%
D36*
%TO.C,REF\u002A\u002A*%
X270482307Y-133943202D03*
D37*
X267997812Y-133415106D03*
X265513317Y-132887011D03*
X263028822Y-132358915D03*
%TD*%
D28*
%TO.C,D8*%
X190796517Y-122160842D03*
X190796517Y-118860842D03*
%TD*%
D11*
%TO.C,S36*%
X237147937Y-150647774D03*
D13*
X242627008Y-151127131D03*
X231668866Y-150168417D03*
D19*
X231835772Y-153997535D03*
X236633718Y-156525323D03*
%TD*%
D11*
%TO.C,S46*%
X275923471Y-184133182D03*
D13*
X270723119Y-182342557D03*
X281123823Y-185923807D03*
D19*
X269958719Y-186098312D03*
X274002619Y-189711742D03*
%TD*%
D15*
%TO.C,REF\u002A\u002A*%
X211296517Y-177210842D03*
D16*
X211296517Y-177210842D03*
%TD*%
D30*
%TO.C,D17*%
X267600821Y-171403395D03*
D38*
X272763353Y-173180997D03*
D39*
X274805673Y-173884225D03*
D38*
X269643141Y-172106623D03*
%TD*%
D13*
%TO.C,S32*%
X214479924Y-128638374D03*
X225438066Y-129597088D03*
D11*
X219958995Y-129117731D03*
D19*
X214646830Y-132467492D03*
X219444776Y-134995280D03*
%TD*%
D11*
%TO.C,S30*%
X218477348Y-146053041D03*
D13*
X212998277Y-145573684D03*
X223956419Y-146532398D03*
D19*
X213165183Y-149402802D03*
X217963129Y-151930590D03*
%TD*%
D12*
%TO.C,S33*%
X226748451Y-108882470D03*
D13*
X226919714Y-112661778D03*
X215961572Y-111703064D03*
D11*
X221440643Y-112182421D03*
D12*
X221959220Y-106255063D03*
D23*
X218696682Y-105969627D03*
X230010988Y-109167905D03*
%TD*%
D11*
%TO.C,S44*%
X255708661Y-178590472D03*
D13*
X261088473Y-179733986D03*
X250328849Y-177446958D03*
D19*
X250027859Y-181267874D03*
X254481982Y-184361543D03*
%TD*%
D20*
%TO.C,D15*%
X229308380Y-164176173D03*
X229595994Y-160888731D03*
%TD*%
D12*
%TO.C,S41*%
X235487621Y-169625284D03*
X240276852Y-172252691D03*
D13*
X240448115Y-176031999D03*
D11*
X234969044Y-175552642D03*
D13*
X229489973Y-175073285D03*
D23*
X232225083Y-169339848D03*
X243539389Y-172538126D03*
%TD*%
D22*
%TO.C,D2*%
X129725562Y-144519625D03*
X129380618Y-141237703D03*
%TD*%
%TO.C,D1*%
X131502546Y-161426497D03*
X131157602Y-158144575D03*
%TD*%
M02*
