M48
; DRILL file {KiCad (6.0.7-1)-1} date Thursday, September 15, 2022 at 11:19:59 AM
; FORMAT={-:-/ absolute / inch / decimal}
; #@! TF.CreationDate,2022-09-15T11:19:59-04:00
; #@! TF.GenerationSoftware,Kicad,Pcbnew,(6.0.7-1)-1
; #@! TF.FileFunction,NonPlated,1,2,NPTH
FMAT,2
INCH
; #@! TA.AperFunction,NonPlated,NPTH,ComponentDrill
T1C0.0354
; #@! TA.AperFunction,NonPlated,NPTH,ComponentDrill
T2C0.0591
; #@! TA.AperFunction,NonPlated,NPTH,ComponentDrill
T3C0.0670
; #@! TA.AperFunction,NonPlated,NPTH,ComponentDrill
T4C0.1181
; #@! TA.AperFunction,NonPlated,NPTH,ComponentDrill
T5C0.1350
%
G90
G05
T1
X9.9499Y-4.9342
X10.0654Y-4.9588
T2
X11.1396Y-6.7366
X11.4002Y-6.8263
T3
X5.2026Y-5.2779
X5.2026Y-5.2779
X5.2725Y-5.9436
X5.2725Y-5.9436
X5.3425Y-6.6092
X5.3425Y-6.6092
X5.6333Y-5.2327
X5.6333Y-5.2327
X5.7032Y-5.8983
X5.7032Y-5.8983
X5.7732Y-6.5639
X5.7732Y-6.5639
X5.9342Y-5.0823
X5.9342Y-5.0823
X6.0041Y-5.7479
X6.0041Y-5.7479
X6.0741Y-6.4135
X6.0741Y-6.4135
X6.3649Y-5.037
X6.3649Y-5.037
X6.4348Y-5.7026
X6.4348Y-5.7026
X6.5048Y-6.3683
X6.5048Y-6.3683
X6.8256Y-4.2683
X6.8256Y-4.2683
X6.8606Y-4.9367
X6.8606Y-4.9367
X6.8957Y-5.6051
X6.8957Y-5.6051
X6.9307Y-6.2735
X6.9307Y-6.2735
X7.2581Y-4.2457
X7.2581Y-4.2457
X7.2931Y-4.914
X7.2931Y-4.914
X7.3281Y-5.5824
X7.3281Y-5.5824
X7.3632Y-6.2508
X7.3632Y-6.2508
X7.6495Y-3.7406
X7.6495Y-3.7406
X7.6495Y-4.4099
X7.6495Y-4.4099
X7.6495Y-5.0792
X7.6495Y-5.0792
X8.0825Y-3.7406
X8.0825Y-3.7406
X8.0825Y-4.4099
X8.0825Y-4.4099
X8.0825Y-5.0792
X8.0825Y-5.0792
X8.3274Y-6.398
X8.3274Y-6.398
X8.3858Y-5.7312
X8.3858Y-5.7312
X8.4441Y-5.0645
X8.4441Y-5.0645
X8.5024Y-4.3978
X8.5024Y-4.3978
X8.7588Y-6.4357
X8.7588Y-6.4357
X8.8172Y-5.769
X8.8172Y-5.769
X8.8755Y-5.1022
X8.8755Y-5.1022
X8.9338Y-4.4355
X8.9338Y-4.4355
X9.035Y-6.8926
X9.035Y-6.8926
X9.1208Y-5.9121
X9.1208Y-5.9121
X9.1792Y-5.2454
X9.1792Y-5.2454
X9.2375Y-4.5787
X9.2375Y-4.5787
X9.4665Y-6.9304
X9.4665Y-6.9304
X9.5522Y-5.9499
X9.5522Y-5.9499
X9.6106Y-5.2831
X9.6106Y-5.2831
X9.6689Y-4.6164
X9.6689Y-4.6164
X9.8555Y-6.9861
X9.8555Y-6.9861
X10.2791Y-7.0761
X10.2791Y-7.0761
X10.6584Y-7.1788
X10.6584Y-7.1788
X11.0679Y-7.3198
X11.0679Y-7.3198
T4
X5.3934Y-5.0223
X5.4634Y-5.688
X5.5334Y-6.3536
X5.5983Y-5.0879
X5.6682Y-5.7535
X5.7382Y-6.4191
X6.125Y-4.8267
X6.195Y-5.4923
X6.2649Y-6.1579
X6.3299Y-4.8922
X6.3998Y-5.5579
X6.4698Y-6.2235
X7.0296Y-4.0231
X7.0646Y-4.6914
X7.0996Y-5.3598
X7.1347Y-6.0282
X7.2307Y-4.0993
X7.2657Y-4.7676
X7.3008Y-5.436
X7.3358Y-6.1044
X7.866Y-3.5063
X7.866Y-4.1756
X7.866Y-4.8449
X8.0629Y-3.5929
X8.0629Y-4.2622
X8.0629Y-4.9315
X8.5636Y-6.1835
X8.6219Y-5.5168
X8.6802Y-4.85
X8.7386Y-4.1833
X8.7521Y-6.2869
X8.8104Y-5.6202
X8.8688Y-4.9535
X8.9271Y-4.2867
X9.2712Y-6.6782
X9.3569Y-5.6977
X9.4153Y-5.0309
X9.4597Y-6.7816
X9.4736Y-4.3642
X9.5455Y-5.8011
X9.6038Y-5.1344
X9.6622Y-4.4676
X10.116Y-6.802
X10.2905Y-6.9276
X10.9394Y-7.0278
X11.0973Y-7.1738
T5
X5.4179Y-5.2553
X5.4179Y-5.2553
X5.4879Y-5.9209
X5.4879Y-5.9209
X5.5578Y-6.5865
X5.5578Y-6.5865
X6.1495Y-5.0596
X6.1495Y-5.0596
X6.2195Y-5.7253
X6.2195Y-5.7253
X6.2894Y-6.3909
X6.2894Y-6.3909
X7.0418Y-4.257
X7.0418Y-4.257
X7.0769Y-4.9254
X7.0769Y-4.9254
X7.1119Y-5.5937
X7.1119Y-5.5937
X7.1469Y-6.2621
X7.1469Y-6.2621
X7.866Y-3.7406
X7.866Y-3.7406
X7.866Y-4.4099
X7.866Y-4.4099
X7.866Y-5.0792
X7.866Y-5.0792
X8.5431Y-6.4169
X8.5431Y-6.4169
X8.6015Y-5.7501
X8.6015Y-5.7501
X8.6598Y-5.0834
X8.6598Y-5.0834
X8.7181Y-4.4166
X8.7181Y-4.4166
X9.2507Y-6.9115
X9.2507Y-6.9115
X9.3365Y-5.931
X9.3365Y-5.931
X9.3949Y-5.2643
X9.3949Y-5.2643
X9.4532Y-4.5975
X9.4532Y-4.5975
X10.0673Y-7.0311
X10.0673Y-7.0311
X10.8631Y-7.2493
X10.8631Y-7.2493
T0
M30
