%TF.GenerationSoftware,KiCad,Pcbnew,(6.0.7-1)-1*%
%TF.CreationDate,2022-09-15T11:20:02-04:00*%
%TF.ProjectId,skyline_pcb_left,736b796c-696e-4655-9f70-63625f6c6566,v1.0.0*%
%TF.SameCoordinates,Original*%
%TF.FileFunction,Legend,Top*%
%TF.FilePolarity,Positive*%
%FSLAX46Y46*%
G04 Gerber Fmt 4.6, Leading zero omitted, Abs format (unit mm)*
G04 Created by KiCad (PCBNEW (6.0.7-1)-1) date 2022-09-15 11:20:02*
%MOMM*%
%LPD*%
G01*
G04 APERTURE LIST*
G04 Aperture macros list*
%AMRotRect*
0 Rectangle, with rotation*
0 The origin of the aperture is its center*
0 $1 length*
0 $2 width*
0 $3 Rotation angle, in degrees counterclockwise*
0 Add horizontal line*
21,1,$1,$2,0,0,$3*%
G04 Aperture macros list end*
%ADD10C,0.150000*%
%ADD11C,0.120000*%
%ADD12C,1.397000*%
%ADD13RotRect,1.752600X1.752600X258.000000*%
%ADD14C,1.752600*%
G04 APERTURE END LIST*
D10*
%TO.C,REF\u002A\u002A*%
X247137899Y-112579534D02*
X246804566Y-112103344D01*
X246566471Y-112579534D02*
X246566471Y-111579534D01*
X246947423Y-111579534D01*
X247042661Y-111627154D01*
X247090280Y-111674773D01*
X247137899Y-111770011D01*
X247137899Y-111912868D01*
X247090280Y-112008106D01*
X247042661Y-112055725D01*
X246947423Y-112103344D01*
X246566471Y-112103344D01*
X247566471Y-112055725D02*
X247899804Y-112055725D01*
X248042661Y-112579534D02*
X247566471Y-112579534D01*
X247566471Y-111579534D01*
X248042661Y-111579534D01*
X248804566Y-112055725D02*
X248471233Y-112055725D01*
X248471233Y-112579534D02*
X248471233Y-111579534D01*
X248947423Y-111579534D01*
X249471233Y-111579534D02*
X249471233Y-111817630D01*
X249233137Y-111722392D02*
X249471233Y-111817630D01*
X249709328Y-111722392D01*
X249328375Y-112008106D02*
X249471233Y-111817630D01*
X249614090Y-112008106D01*
X250233137Y-111579534D02*
X250233137Y-111817630D01*
X249995042Y-111722392D02*
X250233137Y-111817630D01*
X250471233Y-111722392D01*
X250090280Y-112008106D02*
X250233137Y-111817630D01*
X250375994Y-112008106D01*
%TO.C,\u002A\u002A*%
X269085401Y-166231629D02*
X269271886Y-166283346D01*
X269145575Y-166449145D02*
X269271886Y-166283346D01*
X269249009Y-166076174D01*
X269390044Y-166436611D02*
X269271886Y-166283346D01*
X269452105Y-166212828D01*
X269250895Y-165634876D02*
X269437381Y-165686593D01*
X269311069Y-165852391D02*
X269437381Y-165686593D01*
X269414503Y-165479420D01*
X269555539Y-165839858D02*
X269437381Y-165686593D01*
X269617599Y-165616075D01*
%TO.C,REF\u002A\u002A*%
X166873183Y-125003222D02*
X166539850Y-124527032D01*
X166301755Y-125003222D02*
X166301755Y-124003222D01*
X166682707Y-124003222D01*
X166777945Y-124050842D01*
X166825564Y-124098461D01*
X166873183Y-124193699D01*
X166873183Y-124336556D01*
X166825564Y-124431794D01*
X166777945Y-124479413D01*
X166682707Y-124527032D01*
X166301755Y-124527032D01*
X167301755Y-124479413D02*
X167635088Y-124479413D01*
X167777945Y-125003222D02*
X167301755Y-125003222D01*
X167301755Y-124003222D01*
X167777945Y-124003222D01*
X168539850Y-124479413D02*
X168206517Y-124479413D01*
X168206517Y-125003222D02*
X168206517Y-124003222D01*
X168682707Y-124003222D01*
X169206517Y-124003222D02*
X169206517Y-124241318D01*
X168968421Y-124146080D02*
X169206517Y-124241318D01*
X169444612Y-124146080D01*
X169063659Y-124431794D02*
X169206517Y-124241318D01*
X169349374Y-124431794D01*
X169968421Y-124003222D02*
X169968421Y-124241318D01*
X169730326Y-124146080D02*
X169968421Y-124241318D01*
X170206517Y-124146080D01*
X169825564Y-124431794D02*
X169968421Y-124241318D01*
X170111278Y-124431794D01*
%TO.C,MCU1*%
X267856727Y-154007086D02*
X267690398Y-154789604D01*
X267392296Y-154726240D01*
X267325691Y-154673136D01*
X267296348Y-154627953D01*
X267274926Y-154545507D01*
X267298688Y-154433719D01*
X267351791Y-154367114D01*
X267396975Y-154337772D01*
X267479421Y-154316350D01*
X267777523Y-154379713D01*
X266758829Y-154591593D02*
X266684303Y-154575752D01*
X266617698Y-154522648D01*
X266588356Y-154477465D01*
X266566934Y-154395019D01*
X266561353Y-154238047D01*
X266600955Y-154051733D01*
X266669900Y-153910603D01*
X266723003Y-153843998D01*
X266768187Y-153814655D01*
X266850633Y-153793234D01*
X266925158Y-153809074D01*
X266991763Y-153862178D01*
X267021106Y-153907361D01*
X267042527Y-153989807D01*
X267048108Y-154146779D01*
X267008506Y-154333093D01*
X266939562Y-154474223D01*
X266886458Y-154540828D01*
X266841275Y-154570171D01*
X266758829Y-154591593D01*
X266237150Y-154480706D02*
X265715471Y-154369820D01*
X266217166Y-153658586D01*
X259522701Y-147042144D02*
X259356372Y-147824662D01*
X259058270Y-147761298D01*
X258991665Y-147708194D01*
X258962322Y-147663011D01*
X258940900Y-147580565D01*
X258964662Y-147468777D01*
X259017765Y-147402172D01*
X259062949Y-147372830D01*
X259145395Y-147351408D01*
X259443497Y-147414771D01*
X258330293Y-146788689D02*
X258777446Y-146883735D01*
X258553869Y-146836212D02*
X258387540Y-147618730D01*
X258485827Y-147522783D01*
X258576193Y-147464098D01*
X258658639Y-147442676D01*
X257788094Y-147140797D02*
X257854699Y-147193901D01*
X257884042Y-147239084D01*
X257905464Y-147321530D01*
X257897543Y-147358793D01*
X257844439Y-147425398D01*
X257799256Y-147454740D01*
X257716810Y-147476162D01*
X257567759Y-147444480D01*
X257501154Y-147391377D01*
X257471812Y-147346193D01*
X257450390Y-147263747D01*
X257458310Y-147226485D01*
X257511414Y-147159880D01*
X257556597Y-147130537D01*
X257639043Y-147109115D01*
X257788094Y-147140797D01*
X257870540Y-147119375D01*
X257915723Y-147090033D01*
X257968827Y-147023428D01*
X258000509Y-146874377D01*
X257979087Y-146791931D01*
X257949745Y-146746748D01*
X257883140Y-146693644D01*
X257734089Y-146661962D01*
X257651643Y-146683384D01*
X257606459Y-146712726D01*
X257553356Y-146779331D01*
X257521674Y-146928383D01*
X257543096Y-147010829D01*
X257572438Y-147056012D01*
X257639043Y-147109115D01*
X262178870Y-132805186D02*
X262245475Y-132858289D01*
X262357263Y-132882051D01*
X262476972Y-132868549D01*
X262567339Y-132809865D01*
X262620442Y-132743260D01*
X262689387Y-132602129D01*
X262713148Y-132490341D01*
X262707567Y-132333369D01*
X262686145Y-132250923D01*
X262627461Y-132160557D01*
X262523593Y-132099533D01*
X262449067Y-132083692D01*
X262329359Y-132097193D01*
X262284175Y-132126535D01*
X262228732Y-132387375D01*
X262377783Y-132419057D01*
X261964651Y-131980726D02*
X261798322Y-132763244D01*
X261517498Y-131885681D01*
X261351169Y-132668199D01*
X261144870Y-131806476D02*
X260978541Y-132588994D01*
X260792227Y-132549392D01*
X260688359Y-132488368D01*
X260629675Y-132398001D01*
X260608253Y-132315555D01*
X260602672Y-132158584D01*
X260626433Y-132046796D01*
X260695378Y-131905665D01*
X260748481Y-131839060D01*
X260838848Y-131780375D01*
X260958557Y-131766874D01*
X261144870Y-131806476D01*
X260578892Y-142073154D02*
X260412563Y-142855672D01*
X260114461Y-142792308D01*
X260047856Y-142739204D01*
X260018513Y-142694021D01*
X259997091Y-142611575D01*
X260020853Y-142499787D01*
X260073956Y-142433182D01*
X260119140Y-142403840D01*
X260201586Y-142382418D01*
X260499688Y-142445781D01*
X259683148Y-142622737D02*
X259637965Y-142652080D01*
X259555519Y-142673501D01*
X259369205Y-142633899D01*
X259302600Y-142580796D01*
X259273258Y-142535612D01*
X259251836Y-142453166D01*
X259267677Y-142378641D01*
X259328701Y-142274773D01*
X259870900Y-141922665D01*
X259386484Y-141819699D01*
X258735738Y-142499252D02*
X258661213Y-142483411D01*
X258594608Y-142430307D01*
X258565266Y-142385124D01*
X258543844Y-142302678D01*
X258538263Y-142145706D01*
X258577865Y-141959393D01*
X258646809Y-141818262D01*
X258699913Y-141751657D01*
X258745096Y-141722315D01*
X258827542Y-141700893D01*
X258902068Y-141716734D01*
X258968673Y-141769837D01*
X258998015Y-141815020D01*
X259019437Y-141897466D01*
X259025018Y-142054438D01*
X258985416Y-142240752D01*
X258916471Y-142381882D01*
X258863368Y-142448487D01*
X258818184Y-142477830D01*
X258735738Y-142499252D01*
X268384822Y-151522591D02*
X268218493Y-152305109D01*
X267920391Y-152241745D01*
X267853786Y-152188641D01*
X267824443Y-152143458D01*
X267803021Y-152061012D01*
X267826783Y-151949224D01*
X267879886Y-151882619D01*
X267925070Y-151853277D01*
X268007516Y-151831855D01*
X268305618Y-151895218D01*
X267286924Y-152107098D02*
X267212398Y-152091257D01*
X267145793Y-152038153D01*
X267116451Y-151992970D01*
X267095029Y-151910524D01*
X267089448Y-151753552D01*
X267129050Y-151567238D01*
X267197995Y-151426108D01*
X267251098Y-151359503D01*
X267296282Y-151330160D01*
X267378728Y-151308739D01*
X267453253Y-151324579D01*
X267519858Y-151377683D01*
X267549201Y-151422866D01*
X267570622Y-151505312D01*
X267576203Y-151662284D01*
X267536601Y-151848598D01*
X267467657Y-151989728D01*
X267414553Y-152056333D01*
X267369370Y-152085676D01*
X267286924Y-152107098D01*
X266355355Y-151909086D02*
X266504406Y-151940768D01*
X266586852Y-151919346D01*
X266632035Y-151890004D01*
X266730322Y-151794057D01*
X266799266Y-151652926D01*
X266862630Y-151354824D01*
X266841208Y-151272378D01*
X266811866Y-151227195D01*
X266745261Y-151174091D01*
X266596210Y-151142409D01*
X266513764Y-151163831D01*
X266468580Y-151193173D01*
X266415477Y-151259778D01*
X266375874Y-151446092D01*
X266397296Y-151528538D01*
X266426639Y-151573722D01*
X266493244Y-151626825D01*
X266642295Y-151658507D01*
X266724741Y-151637085D01*
X266769924Y-151607743D01*
X266823028Y-151541138D01*
X257938414Y-154495629D02*
X257772085Y-155278147D01*
X257473983Y-155214783D01*
X257407378Y-155161679D01*
X257378035Y-155116496D01*
X257356613Y-155034050D01*
X257380375Y-154922262D01*
X257433478Y-154855657D01*
X257478662Y-154826315D01*
X257561108Y-154804893D01*
X257859210Y-154868256D01*
X256746006Y-154242174D02*
X257193159Y-154337220D01*
X256969582Y-154289697D02*
X256803253Y-155072215D01*
X256901540Y-154976268D01*
X256991906Y-154917583D01*
X257074352Y-154896161D01*
X255908947Y-154882124D02*
X256057998Y-154913806D01*
X256140444Y-154892384D01*
X256185627Y-154863042D01*
X256283914Y-154767095D01*
X256352858Y-154625964D01*
X256416222Y-154327862D01*
X256394800Y-154245416D01*
X256365458Y-154200233D01*
X256298853Y-154147129D01*
X256149802Y-154115447D01*
X256067356Y-154136869D01*
X256022172Y-154166211D01*
X255969069Y-154232816D01*
X255929466Y-154419130D01*
X255950888Y-154501576D01*
X255980231Y-154546760D01*
X256046836Y-154599863D01*
X256195887Y-154631545D01*
X256278333Y-154610123D01*
X256323516Y-154580781D01*
X256376620Y-154514176D01*
X261106988Y-139588660D02*
X260940659Y-140371178D01*
X260642557Y-140307814D01*
X260575952Y-140254710D01*
X260546609Y-140209527D01*
X260525187Y-140127081D01*
X260548949Y-140015293D01*
X260602052Y-139948688D01*
X260647236Y-139919346D01*
X260729682Y-139897924D01*
X261027784Y-139961287D01*
X260211244Y-140138243D02*
X260166061Y-140167586D01*
X260083615Y-140189007D01*
X259897301Y-140149405D01*
X259830696Y-140096302D01*
X259801354Y-140051118D01*
X259779932Y-139968672D01*
X259795773Y-139894147D01*
X259856797Y-139790279D01*
X260398996Y-139438171D01*
X259914580Y-139335205D01*
X259169324Y-139176796D02*
X259616478Y-139271842D01*
X259392901Y-139224319D02*
X259226572Y-140006837D01*
X259324859Y-139910890D01*
X259415225Y-139852205D01*
X259497671Y-139830783D01*
X258466510Y-152011134D02*
X258300181Y-152793652D01*
X258002079Y-152730288D01*
X257935474Y-152677184D01*
X257906131Y-152632001D01*
X257884709Y-152549555D01*
X257908471Y-152437767D01*
X257961574Y-152371162D01*
X258006758Y-152341820D01*
X258089204Y-152320398D01*
X258387306Y-152383761D01*
X257274102Y-151757679D02*
X257721255Y-151852725D01*
X257497678Y-151805202D02*
X257331349Y-152587720D01*
X257429636Y-152491773D01*
X257520002Y-152433088D01*
X257602448Y-152411666D01*
X256492486Y-152136790D02*
X256603372Y-151615111D01*
X256615436Y-152474494D02*
X256920557Y-151955155D01*
X256436141Y-151852189D01*
X261561912Y-137906484D02*
X261467402Y-137068523D01*
X261040233Y-137795598D01*
X260482729Y-136937117D02*
X260527912Y-136907774D01*
X260647621Y-136894273D01*
X260722146Y-136910114D01*
X260826014Y-136971138D01*
X260884699Y-137061504D01*
X260906121Y-137143950D01*
X260911702Y-137300922D01*
X260887941Y-137412710D01*
X260818996Y-137553841D01*
X260765892Y-137620446D01*
X260675526Y-137679130D01*
X260555817Y-137692632D01*
X260481292Y-137676791D01*
X260377424Y-137615767D01*
X260348081Y-137570584D01*
X259700211Y-136770787D02*
X259745394Y-136741445D01*
X259865103Y-136727943D01*
X259939628Y-136743784D01*
X260043496Y-136804808D01*
X260102181Y-136895175D01*
X260123603Y-136977621D01*
X260129184Y-137134592D01*
X260105422Y-137246381D01*
X260036478Y-137387511D01*
X259983374Y-137454116D01*
X259893008Y-137512801D01*
X259773299Y-137526302D01*
X259698774Y-137510462D01*
X259594906Y-137449437D01*
X259565563Y-137404254D01*
X260050797Y-144557649D02*
X259884468Y-145340167D01*
X259586366Y-145276803D01*
X259519761Y-145223699D01*
X259490418Y-145178516D01*
X259468996Y-145096070D01*
X259492758Y-144984282D01*
X259545861Y-144917677D01*
X259591045Y-144888335D01*
X259673491Y-144866913D01*
X259971593Y-144930276D01*
X258858389Y-144304194D02*
X259305542Y-144399240D01*
X259081965Y-144351717D02*
X258915636Y-145134235D01*
X259013923Y-145038288D01*
X259104289Y-144979603D01*
X259186735Y-144958181D01*
X258485761Y-144224990D02*
X258336710Y-144193308D01*
X258254264Y-144214730D01*
X258209081Y-144244072D01*
X258110794Y-144340020D01*
X258041849Y-144481150D01*
X257978486Y-144779252D01*
X257999908Y-144861698D01*
X258029250Y-144906882D01*
X258095855Y-144959985D01*
X258244906Y-144991667D01*
X258327352Y-144970245D01*
X258372535Y-144940903D01*
X258425639Y-144874298D01*
X258465241Y-144687984D01*
X258443819Y-144605538D01*
X258414477Y-144560355D01*
X258347872Y-144507251D01*
X258198821Y-144475569D01*
X258116375Y-144496991D01*
X258071192Y-144526334D01*
X258018088Y-144592939D01*
X271040991Y-137285633D02*
X271107596Y-137338736D01*
X271219384Y-137362498D01*
X271339093Y-137348996D01*
X271429460Y-137290312D01*
X271482563Y-137223707D01*
X271551508Y-137082576D01*
X271575269Y-136970788D01*
X271569688Y-136813816D01*
X271548266Y-136731370D01*
X271489582Y-136641004D01*
X271385714Y-136579980D01*
X271311188Y-136564139D01*
X271191480Y-136577640D01*
X271146296Y-136606982D01*
X271090853Y-136867822D01*
X271239904Y-136899504D01*
X270826772Y-136461173D02*
X270660443Y-137243691D01*
X270379619Y-136366128D01*
X270213290Y-137148646D01*
X270006991Y-136286923D02*
X269840662Y-137069441D01*
X269654348Y-137029839D01*
X269550480Y-136968815D01*
X269491796Y-136878448D01*
X269470374Y-136796002D01*
X269464793Y-136639031D01*
X269488554Y-136527243D01*
X269557499Y-136386112D01*
X269610602Y-136319507D01*
X269700969Y-136260822D01*
X269820678Y-136247321D01*
X270006991Y-136286923D01*
X269969109Y-144069107D02*
X269802780Y-144851625D01*
X269504678Y-144788261D01*
X269438073Y-144735157D01*
X269408730Y-144689974D01*
X269387308Y-144607528D01*
X269411070Y-144495740D01*
X269464173Y-144429135D01*
X269509357Y-144399793D01*
X269591803Y-144378371D01*
X269889905Y-144441734D01*
X268871211Y-144653614D02*
X268796685Y-144637773D01*
X268730080Y-144584669D01*
X268700738Y-144539486D01*
X268679316Y-144457040D01*
X268673735Y-144300068D01*
X268713337Y-144113754D01*
X268782282Y-143972624D01*
X268835385Y-143906019D01*
X268880569Y-143876676D01*
X268963015Y-143855255D01*
X269037540Y-143871095D01*
X269104145Y-143924199D01*
X269133488Y-143969382D01*
X269154909Y-144051828D01*
X269160490Y-144208800D01*
X269120888Y-144395114D01*
X269051944Y-144536244D01*
X268998840Y-144602849D01*
X268953657Y-144632192D01*
X268871211Y-144653614D01*
X268349532Y-144542727D02*
X267865116Y-144439762D01*
X268189319Y-144197102D01*
X268077531Y-144173341D01*
X268010926Y-144120238D01*
X267981583Y-144075054D01*
X267960161Y-143992608D01*
X267999764Y-143806294D01*
X268052867Y-143739689D01*
X268098051Y-143710347D01*
X268180497Y-143688925D01*
X268404073Y-143736448D01*
X268470678Y-143789552D01*
X268500021Y-143834735D01*
X257410318Y-156980124D02*
X257243989Y-157762642D01*
X256945887Y-157699278D01*
X256879282Y-157646174D01*
X256849939Y-157600991D01*
X256828517Y-157518545D01*
X256852279Y-157406757D01*
X256905382Y-157340152D01*
X256950566Y-157310810D01*
X257033012Y-157289388D01*
X257331114Y-157352751D01*
X256217910Y-156726669D02*
X256665063Y-156821715D01*
X256441486Y-156774192D02*
X256275157Y-157556710D01*
X256373444Y-157460763D01*
X256463810Y-157402078D01*
X256546256Y-157380656D01*
X255567164Y-157406222D02*
X255492639Y-157390381D01*
X255426034Y-157337277D01*
X255396692Y-157292094D01*
X255375270Y-157209648D01*
X255369689Y-157052676D01*
X255409291Y-156866363D01*
X255478235Y-156725232D01*
X255531339Y-156658627D01*
X255576522Y-156629285D01*
X255658968Y-156607863D01*
X255733494Y-156623704D01*
X255800099Y-156676807D01*
X255829441Y-156721990D01*
X255850863Y-156804436D01*
X255856444Y-156961408D01*
X255816842Y-157147722D01*
X255747897Y-157288852D01*
X255694794Y-157355457D01*
X255649610Y-157384800D01*
X255567164Y-157406222D01*
X270512896Y-139770128D02*
X270579501Y-139823231D01*
X270691289Y-139846993D01*
X270810998Y-139833491D01*
X270901365Y-139774807D01*
X270954468Y-139708202D01*
X271023413Y-139567071D01*
X271047174Y-139455283D01*
X271041593Y-139298311D01*
X271020171Y-139215865D01*
X270961487Y-139125499D01*
X270857619Y-139064475D01*
X270783093Y-139048634D01*
X270663385Y-139062135D01*
X270618201Y-139091477D01*
X270562758Y-139352317D01*
X270711809Y-139383999D01*
X270298677Y-138945668D02*
X270132348Y-139728186D01*
X269851524Y-138850623D01*
X269685195Y-139633141D01*
X269478896Y-138771418D02*
X269312567Y-139553936D01*
X269126253Y-139514334D01*
X269022385Y-139453310D01*
X268963701Y-139362943D01*
X268942279Y-139280497D01*
X268936698Y-139123526D01*
X268960459Y-139011738D01*
X269029404Y-138870607D01*
X269082507Y-138804002D01*
X269172874Y-138745317D01*
X269292583Y-138731816D01*
X269478896Y-138771418D01*
X270497205Y-141584612D02*
X270330876Y-142367130D01*
X270032774Y-142303766D01*
X269966169Y-142250662D01*
X269936826Y-142205479D01*
X269915404Y-142123033D01*
X269939166Y-142011245D01*
X269992269Y-141944640D01*
X270037453Y-141915298D01*
X270119899Y-141893876D01*
X270418001Y-141957239D01*
X269399307Y-142169119D02*
X269324781Y-142153278D01*
X269258176Y-142100174D01*
X269228834Y-142054991D01*
X269207412Y-141972545D01*
X269201831Y-141815573D01*
X269241433Y-141629259D01*
X269310378Y-141488129D01*
X269363481Y-141421524D01*
X269408665Y-141392181D01*
X269491111Y-141370760D01*
X269565636Y-141386600D01*
X269632241Y-141439704D01*
X269661584Y-141484887D01*
X269683005Y-141567333D01*
X269688586Y-141724305D01*
X269648984Y-141910619D01*
X269580040Y-142051749D01*
X269526936Y-142118354D01*
X269481753Y-142147697D01*
X269399307Y-142169119D01*
X268856206Y-141975786D02*
X268811023Y-142005129D01*
X268728577Y-142026551D01*
X268542263Y-141986948D01*
X268475658Y-141933845D01*
X268446316Y-141888661D01*
X268424894Y-141806215D01*
X268440735Y-141731690D01*
X268501759Y-141627822D01*
X269043957Y-141275714D01*
X268559541Y-141172748D01*
X272609588Y-131646632D02*
X272443259Y-132429150D01*
X272145157Y-132365786D01*
X272078552Y-132312682D01*
X272049209Y-132267499D01*
X272027787Y-132185053D01*
X272051549Y-132073265D01*
X272104652Y-132006660D01*
X272149836Y-131977318D01*
X272232282Y-131955896D01*
X272530384Y-132019259D01*
X271511690Y-132231139D02*
X271437164Y-132215298D01*
X271370559Y-132162194D01*
X271341217Y-132117011D01*
X271319795Y-132034565D01*
X271314214Y-131877593D01*
X271353816Y-131691279D01*
X271422761Y-131550149D01*
X271475864Y-131483544D01*
X271521048Y-131454201D01*
X271603494Y-131432780D01*
X271678019Y-131448620D01*
X271744624Y-131501724D01*
X271773967Y-131546907D01*
X271795388Y-131629353D01*
X271800969Y-131786325D01*
X271761367Y-131972639D01*
X271692423Y-132113769D01*
X271639319Y-132180374D01*
X271594136Y-132209717D01*
X271511690Y-132231139D01*
X270671924Y-131234768D02*
X271119078Y-131329814D01*
X270895501Y-131282291D02*
X270729172Y-132064809D01*
X270827459Y-131968862D01*
X270917825Y-131910177D01*
X271000271Y-131888755D01*
X269441014Y-146553602D02*
X269274685Y-147336120D01*
X268976583Y-147272756D01*
X268909978Y-147219652D01*
X268880635Y-147174469D01*
X268859213Y-147092023D01*
X268882975Y-146980235D01*
X268936078Y-146913630D01*
X268981262Y-146884288D01*
X269063708Y-146862866D01*
X269361810Y-146926229D01*
X268343116Y-147138109D02*
X268268590Y-147122268D01*
X268201985Y-147069164D01*
X268172643Y-147023981D01*
X268151221Y-146941535D01*
X268145640Y-146784563D01*
X268185242Y-146598249D01*
X268254187Y-146457119D01*
X268307290Y-146390514D01*
X268352474Y-146361171D01*
X268434920Y-146339750D01*
X268509445Y-146355590D01*
X268576050Y-146408694D01*
X268605393Y-146453877D01*
X268626814Y-146536323D01*
X268632395Y-146693295D01*
X268592793Y-146879609D01*
X268523849Y-147020739D01*
X268470745Y-147087344D01*
X268425562Y-147116687D01*
X268343116Y-147138109D01*
X267466990Y-146679258D02*
X267577876Y-146157579D01*
X267589940Y-147016962D02*
X267895061Y-146497623D01*
X267410645Y-146394657D01*
X268912918Y-149038096D02*
X268746589Y-149820614D01*
X268448487Y-149757250D01*
X268381882Y-149704146D01*
X268352539Y-149658963D01*
X268331117Y-149576517D01*
X268354879Y-149464729D01*
X268407982Y-149398124D01*
X268453166Y-149368782D01*
X268535612Y-149347360D01*
X268833714Y-149410723D01*
X267815020Y-149622603D02*
X267740494Y-149606762D01*
X267673889Y-149553658D01*
X267644547Y-149508475D01*
X267623125Y-149426029D01*
X267617544Y-149269057D01*
X267657146Y-149082743D01*
X267726091Y-148941613D01*
X267779194Y-148875008D01*
X267824378Y-148845665D01*
X267906824Y-148824244D01*
X267981349Y-148840084D01*
X268047954Y-148893188D01*
X268077297Y-148938371D01*
X268098718Y-149020817D01*
X268104299Y-149177789D01*
X268064697Y-149364103D01*
X267995753Y-149505233D01*
X267942649Y-149571838D01*
X267897466Y-149601181D01*
X267815020Y-149622603D01*
X266846188Y-149416671D02*
X267218816Y-149495875D01*
X267335283Y-149131168D01*
X267290100Y-149160511D01*
X267207654Y-149181932D01*
X267021340Y-149142330D01*
X266954735Y-149089227D01*
X266925392Y-149044043D01*
X266903970Y-148961597D01*
X266943573Y-148775283D01*
X266996676Y-148708678D01*
X267041860Y-148679336D01*
X267124306Y-148657914D01*
X267310619Y-148697516D01*
X267377224Y-148750620D01*
X267406567Y-148795803D01*
X262809481Y-129563555D02*
X262991116Y-129991625D01*
X263256634Y-129658600D02*
X263090305Y-130441118D01*
X262792203Y-130377755D01*
X262725597Y-130324651D01*
X262696255Y-130279468D01*
X262674833Y-130197022D01*
X262698595Y-130085233D01*
X262751698Y-130018628D01*
X262796881Y-129989286D01*
X262879327Y-129967864D01*
X263177430Y-130031228D01*
X262463856Y-129723768D02*
X262091228Y-129644563D01*
X262585904Y-129516032D02*
X262158736Y-130243107D01*
X262064226Y-129405146D01*
X261711582Y-130148062D02*
X261691598Y-129325941D01*
X261423740Y-129853201D01*
X261393496Y-129262578D01*
X261040853Y-130005494D01*
X258994605Y-149526639D02*
X258828276Y-150309157D01*
X258530174Y-150245793D01*
X258463569Y-150192689D01*
X258434226Y-150147506D01*
X258412804Y-150065060D01*
X258436566Y-149953272D01*
X258489669Y-149886667D01*
X258534853Y-149857325D01*
X258617299Y-149835903D01*
X258915401Y-149899266D01*
X257802197Y-149273184D02*
X258249350Y-149368230D01*
X258025773Y-149320707D02*
X257859444Y-150103225D01*
X257957731Y-150007278D01*
X258048097Y-149948593D01*
X258130543Y-149927171D01*
X256927875Y-149905214D02*
X257300503Y-149984418D01*
X257416970Y-149619711D01*
X257371787Y-149649054D01*
X257289341Y-149670475D01*
X257103027Y-149630873D01*
X257036422Y-149577770D01*
X257007079Y-149532586D01*
X256985657Y-149450140D01*
X257025260Y-149263826D01*
X257078363Y-149197221D01*
X257123547Y-149167879D01*
X257205993Y-149146457D01*
X257392306Y-149186059D01*
X257458911Y-149239163D01*
X257488254Y-149284346D01*
X266800535Y-158976076D02*
X266634206Y-159758594D01*
X266336104Y-159695230D01*
X266269499Y-159642126D01*
X266240156Y-159596943D01*
X266218734Y-159514497D01*
X266242496Y-159402709D01*
X266295599Y-159336104D01*
X266340783Y-159306762D01*
X266423229Y-159285340D01*
X266721331Y-159348703D01*
X265702637Y-159560583D02*
X265628111Y-159544742D01*
X265561506Y-159491638D01*
X265532164Y-159446455D01*
X265510742Y-159364009D01*
X265505161Y-159207037D01*
X265544763Y-159020723D01*
X265613708Y-158879593D01*
X265666811Y-158812988D01*
X265711995Y-158783645D01*
X265794441Y-158762224D01*
X265868966Y-158778064D01*
X265935571Y-158831168D01*
X265964914Y-158876351D01*
X265986335Y-158958797D01*
X265991916Y-159115769D01*
X265952314Y-159302083D01*
X265883370Y-159443213D01*
X265830266Y-159509818D01*
X265785083Y-159539161D01*
X265702637Y-159560583D01*
X265235499Y-158643417D02*
X265086448Y-158611735D01*
X265004002Y-158633157D01*
X264958819Y-158662499D01*
X264860532Y-158758447D01*
X264791587Y-158899577D01*
X264728224Y-159197679D01*
X264749646Y-159280125D01*
X264778988Y-159325309D01*
X264845593Y-159378412D01*
X264994644Y-159410094D01*
X265077090Y-159388672D01*
X265122273Y-159359330D01*
X265175377Y-159292725D01*
X265214979Y-159106411D01*
X265193557Y-159023965D01*
X265164215Y-158978782D01*
X265097610Y-158925678D01*
X264948559Y-158893996D01*
X264866113Y-158915418D01*
X264820930Y-158944761D01*
X264767826Y-159011366D01*
X272081492Y-134131127D02*
X271915163Y-134913645D01*
X271617061Y-134850281D01*
X271550456Y-134797177D01*
X271521113Y-134751994D01*
X271499691Y-134669548D01*
X271523453Y-134557760D01*
X271576556Y-134491155D01*
X271621740Y-134461813D01*
X271704186Y-134440391D01*
X272002288Y-134503754D01*
X270983594Y-134715634D02*
X270909068Y-134699793D01*
X270842463Y-134646689D01*
X270813121Y-134601506D01*
X270791699Y-134519060D01*
X270786118Y-134362088D01*
X270825720Y-134175774D01*
X270894665Y-134034644D01*
X270947768Y-133968039D01*
X270992952Y-133938696D01*
X271075398Y-133917275D01*
X271149923Y-133933115D01*
X271216528Y-133986219D01*
X271245871Y-134031402D01*
X271267292Y-134113848D01*
X271272873Y-134270820D01*
X271233271Y-134457134D01*
X271164327Y-134598264D01*
X271111223Y-134664869D01*
X271066040Y-134694212D01*
X270983594Y-134715634D01*
X270238338Y-134557225D02*
X270163813Y-134541384D01*
X270097208Y-134488280D01*
X270067866Y-134443097D01*
X270046444Y-134360651D01*
X270040863Y-134203679D01*
X270080465Y-134017366D01*
X270149409Y-133876235D01*
X270202513Y-133809630D01*
X270247696Y-133780288D01*
X270330142Y-133758866D01*
X270404668Y-133774707D01*
X270471273Y-133827810D01*
X270500615Y-133872993D01*
X270522037Y-133955439D01*
X270527618Y-134112411D01*
X270488016Y-134298725D01*
X270419071Y-134439855D01*
X270365968Y-134506460D01*
X270320784Y-134535803D01*
X270238338Y-134557225D01*
X267328631Y-156491581D02*
X267162302Y-157274099D01*
X266864200Y-157210735D01*
X266797595Y-157157631D01*
X266768252Y-157112448D01*
X266746830Y-157030002D01*
X266770592Y-156918214D01*
X266823695Y-156851609D01*
X266868879Y-156822267D01*
X266951325Y-156800845D01*
X267249427Y-156864208D01*
X266230733Y-157076088D02*
X266156207Y-157060247D01*
X266089602Y-157007143D01*
X266060260Y-156961960D01*
X266038838Y-156879514D01*
X266033257Y-156722542D01*
X266072859Y-156536228D01*
X266141804Y-156395098D01*
X266194907Y-156328493D01*
X266240091Y-156299150D01*
X266322537Y-156277729D01*
X266397062Y-156293569D01*
X266463667Y-156346673D01*
X266493010Y-156391856D01*
X266514431Y-156474302D01*
X266520012Y-156631274D01*
X266480410Y-156817588D01*
X266411466Y-156958718D01*
X266358362Y-157025323D01*
X266313179Y-157054666D01*
X266230733Y-157076088D01*
X265594024Y-156590234D02*
X265660629Y-156643338D01*
X265689972Y-156688521D01*
X265711394Y-156770967D01*
X265703473Y-156808230D01*
X265650369Y-156874835D01*
X265605186Y-156904177D01*
X265522740Y-156925599D01*
X265373689Y-156893917D01*
X265307084Y-156840814D01*
X265277742Y-156795630D01*
X265256320Y-156713184D01*
X265264240Y-156675922D01*
X265317344Y-156609317D01*
X265362527Y-156579974D01*
X265444973Y-156558552D01*
X265594024Y-156590234D01*
X265676470Y-156568812D01*
X265721653Y-156539470D01*
X265774757Y-156472865D01*
X265806439Y-156323814D01*
X265785017Y-156241368D01*
X265755675Y-156196185D01*
X265689070Y-156143081D01*
X265540019Y-156111399D01*
X265457573Y-156132821D01*
X265412389Y-156162163D01*
X265359286Y-156228768D01*
X265327604Y-156377820D01*
X265349026Y-156460266D01*
X265378368Y-156505449D01*
X265444973Y-156558552D01*
X261641501Y-134508783D02*
X261823135Y-134936854D01*
X262088654Y-134603829D02*
X261922324Y-135386347D01*
X261624222Y-135322983D01*
X261557617Y-135269880D01*
X261528275Y-135224696D01*
X261506853Y-135142250D01*
X261530614Y-135030462D01*
X261583718Y-134963857D01*
X261628901Y-134934515D01*
X261711347Y-134913093D01*
X262009449Y-134976456D01*
X261335478Y-134482683D02*
X261231610Y-134421658D01*
X261045296Y-134382056D01*
X260962850Y-134403478D01*
X260917667Y-134432820D01*
X260864563Y-134499426D01*
X260848723Y-134573951D01*
X260870144Y-134656397D01*
X260899487Y-134701580D01*
X260966092Y-134754684D01*
X261107222Y-134823628D01*
X261173828Y-134876732D01*
X261203170Y-134921915D01*
X261224592Y-135004361D01*
X261208751Y-135078887D01*
X261155647Y-135145492D01*
X261110464Y-135174834D01*
X261028018Y-135196256D01*
X260841704Y-135156654D01*
X260737836Y-135095630D01*
X260506339Y-135085370D02*
X260059186Y-134990325D01*
X260449092Y-134255329D02*
X260282763Y-135037847D01*
%TO.C,REF\u002A\u002A*%
X259697172Y-154976026D02*
X259162084Y-155203069D01*
X259578366Y-155534967D02*
X258600218Y-155327055D01*
X258679422Y-154954428D01*
X258745802Y-154871171D01*
X258802281Y-154834493D01*
X258905338Y-154807716D01*
X259045074Y-154837418D01*
X259128330Y-154903797D01*
X259165008Y-154960276D01*
X259191785Y-155063334D01*
X259112581Y-155435962D01*
X259273914Y-154447913D02*
X259343218Y-154121864D01*
X259885283Y-154091035D02*
X259786277Y-154556819D01*
X258808130Y-154348908D01*
X258907135Y-153883123D01*
X259531329Y-153236873D02*
X259462025Y-153562923D01*
X259974388Y-153671829D02*
X258996240Y-153463917D01*
X259095246Y-152998133D01*
X259204152Y-152485769D02*
X259437044Y-152535272D01*
X259294385Y-152748363D02*
X259437044Y-152535272D01*
X259393390Y-152282579D01*
X259593656Y-152714610D02*
X259437044Y-152535272D01*
X259653060Y-152435139D01*
X259362561Y-151740514D02*
X259595453Y-151790017D01*
X259452793Y-152003108D02*
X259595453Y-151790017D01*
X259551799Y-151537324D01*
X259752065Y-151969355D02*
X259595453Y-151790017D01*
X259811469Y-151689884D01*
X261140127Y-157205709D02*
X261021321Y-157764651D01*
X261080724Y-157485180D02*
X260102576Y-157277268D01*
X260222511Y-157400127D01*
X260295866Y-157513085D01*
X260322644Y-157616142D01*
X250563183Y-131963222D02*
X250229850Y-131487032D01*
X249991755Y-131963222D02*
X249991755Y-130963222D01*
X250372707Y-130963222D01*
X250467945Y-131010842D01*
X250515564Y-131058461D01*
X250563183Y-131153699D01*
X250563183Y-131296556D01*
X250515564Y-131391794D01*
X250467945Y-131439413D01*
X250372707Y-131487032D01*
X249991755Y-131487032D01*
X250991755Y-131439413D02*
X251325088Y-131439413D01*
X251467945Y-131963222D02*
X250991755Y-131963222D01*
X250991755Y-130963222D01*
X251467945Y-130963222D01*
X252229850Y-131439413D02*
X251896517Y-131439413D01*
X251896517Y-131963222D02*
X251896517Y-130963222D01*
X252372707Y-130963222D01*
X252896517Y-130963222D02*
X252896517Y-131201318D01*
X252658421Y-131106080D02*
X252896517Y-131201318D01*
X253134612Y-131106080D01*
X252753659Y-131391794D02*
X252896517Y-131201318D01*
X253039374Y-131391794D01*
X253658421Y-130963222D02*
X253658421Y-131201318D01*
X253420326Y-131106080D02*
X253658421Y-131201318D01*
X253896517Y-131106080D01*
X253515564Y-131391794D02*
X253658421Y-131201318D01*
X253801278Y-131391794D01*
%TO.C,\u002A\u002A*%
X272157044Y-167063532D02*
X272343529Y-167115249D01*
X272217218Y-167281048D02*
X272343529Y-167115249D01*
X272320652Y-166908077D01*
X272461687Y-167268514D02*
X272343529Y-167115249D01*
X272523748Y-167044731D01*
X272322538Y-166466779D02*
X272509024Y-166518496D01*
X272382712Y-166684294D02*
X272509024Y-166518496D01*
X272486146Y-166311323D01*
X272627182Y-166671761D02*
X272509024Y-166518496D01*
X272689242Y-166447978D01*
%TO.C,REF\u002A\u002A*%
X186863183Y-165263222D02*
X186529850Y-164787032D01*
X186291755Y-165263222D02*
X186291755Y-164263222D01*
X186672707Y-164263222D01*
X186767945Y-164310842D01*
X186815564Y-164358461D01*
X186863183Y-164453699D01*
X186863183Y-164596556D01*
X186815564Y-164691794D01*
X186767945Y-164739413D01*
X186672707Y-164787032D01*
X186291755Y-164787032D01*
X187291755Y-164739413D02*
X187625088Y-164739413D01*
X187767945Y-165263222D02*
X187291755Y-165263222D01*
X187291755Y-164263222D01*
X187767945Y-164263222D01*
X188529850Y-164739413D02*
X188196517Y-164739413D01*
X188196517Y-165263222D02*
X188196517Y-164263222D01*
X188672707Y-164263222D01*
X189196517Y-164263222D02*
X189196517Y-164501318D01*
X188958421Y-164406080D02*
X189196517Y-164501318D01*
X189434612Y-164406080D01*
X189053659Y-164691794D02*
X189196517Y-164501318D01*
X189339374Y-164691794D01*
X189958421Y-164263222D02*
X189958421Y-164501318D01*
X189720326Y-164406080D02*
X189958421Y-164501318D01*
X190196517Y-164406080D01*
X189815564Y-164691794D02*
X189958421Y-164501318D01*
X190101278Y-164691794D01*
%TO.C,RSW1*%
X277876485Y-136693623D02*
X277341396Y-136920666D01*
X277757678Y-137252564D02*
X276779531Y-137044653D01*
X276858735Y-136672025D01*
X276925115Y-136588769D01*
X276981594Y-136552091D01*
X277084651Y-136525313D01*
X277224386Y-136555015D01*
X277307643Y-136621395D01*
X277344321Y-136677874D01*
X277371098Y-136780931D01*
X277291894Y-137153559D01*
X277453227Y-136165510D02*
X277522531Y-135839461D01*
X278064595Y-135808632D02*
X277965590Y-136274417D01*
X276987442Y-136066505D01*
X277086448Y-135600720D01*
X278097221Y-135426104D02*
X278173502Y-135296269D01*
X278223004Y-135063377D01*
X278196227Y-134960319D01*
X278159549Y-134903840D01*
X278076293Y-134837461D01*
X277983136Y-134817660D01*
X277880078Y-134844437D01*
X277823599Y-134881115D01*
X277757220Y-134964371D01*
X277671039Y-135140784D01*
X277604660Y-135224041D01*
X277548181Y-135260719D01*
X277445123Y-135287496D01*
X277351966Y-135267695D01*
X277268710Y-135201315D01*
X277232032Y-135144836D01*
X277205255Y-135041779D01*
X277254757Y-134808887D01*
X277331037Y-134679052D01*
X277839349Y-134348951D02*
X277908652Y-134022901D01*
X278450717Y-133992072D02*
X278351712Y-134457857D01*
X277373564Y-134249945D01*
X277472570Y-133784161D01*
X277531973Y-133504690D02*
X277650780Y-132945748D01*
X278569524Y-133433131D02*
X277591376Y-133225219D01*
%TO.C,REF\u002A\u002A*%
X271956288Y-140102591D02*
X271421200Y-140329634D01*
X271837482Y-140661532D02*
X270859334Y-140453620D01*
X270938538Y-140080993D01*
X271004918Y-139997736D01*
X271061397Y-139961058D01*
X271164454Y-139934281D01*
X271304190Y-139963983D01*
X271387446Y-140030362D01*
X271424124Y-140086841D01*
X271450901Y-140189899D01*
X271371697Y-140562527D01*
X271533030Y-139574478D02*
X271602334Y-139248429D01*
X272144399Y-139217600D02*
X272045393Y-139683384D01*
X271067246Y-139475473D01*
X271166251Y-139009688D01*
X271790445Y-138363438D02*
X271721141Y-138689488D01*
X272233504Y-138798394D02*
X271255356Y-138590482D01*
X271354362Y-138124698D01*
X271463268Y-137612334D02*
X271696160Y-137661837D01*
X271553501Y-137874928D02*
X271696160Y-137661837D01*
X271652506Y-137409144D01*
X271852772Y-137841175D02*
X271696160Y-137661837D01*
X271912176Y-137561704D01*
X271621677Y-136867079D02*
X271854569Y-136916582D01*
X271711909Y-137129673D02*
X271854569Y-136916582D01*
X271810915Y-136663889D01*
X272011181Y-137095920D02*
X271854569Y-136916582D01*
X272070585Y-136816449D01*
X209963183Y-173863222D02*
X209629850Y-173387032D01*
X209391755Y-173863222D02*
X209391755Y-172863222D01*
X209772707Y-172863222D01*
X209867945Y-172910842D01*
X209915564Y-172958461D01*
X209963183Y-173053699D01*
X209963183Y-173196556D01*
X209915564Y-173291794D01*
X209867945Y-173339413D01*
X209772707Y-173387032D01*
X209391755Y-173387032D01*
X210391755Y-173339413D02*
X210725088Y-173339413D01*
X210867945Y-173863222D02*
X210391755Y-173863222D01*
X210391755Y-172863222D01*
X210867945Y-172863222D01*
X211629850Y-173339413D02*
X211296517Y-173339413D01*
X211296517Y-173863222D02*
X211296517Y-172863222D01*
X211772707Y-172863222D01*
X212296517Y-172863222D02*
X212296517Y-173101318D01*
X212058421Y-173006080D02*
X212296517Y-173101318D01*
X212534612Y-173006080D01*
X212153659Y-173291794D02*
X212296517Y-173101318D01*
X212439374Y-173291794D01*
X213058421Y-172863222D02*
X213058421Y-173101318D01*
X212820326Y-173006080D02*
X213058421Y-173101318D01*
X213296517Y-173006080D01*
X212915564Y-173291794D02*
X213058421Y-173101318D01*
X213201278Y-173291794D01*
%TO.C,T1*%
X254475438Y-124320526D02*
X257703325Y-125006634D01*
X257110777Y-127794355D02*
X257703325Y-125006634D01*
X251247551Y-123634417D02*
X250655002Y-126422138D01*
X250655002Y-126422138D02*
X257110777Y-127794355D01*
X254475438Y-124320526D02*
X251247551Y-123634417D01*
X256382826Y-124725954D02*
X252568050Y-123915098D01*
%TO.C,\u002A\u002A*%
X271026319Y-164942660D02*
X269097593Y-164407777D01*
X268295269Y-167300866D02*
X270223995Y-167835749D01*
X270223995Y-167835749D02*
X271026319Y-164942660D01*
X269097593Y-164407777D02*
X268295269Y-167300866D01*
%TO.C,MCU1*%
X269511667Y-161220707D02*
X276376911Y-128922274D01*
X260941846Y-128238194D02*
X260413750Y-130722689D01*
X276376911Y-128922274D02*
X258985447Y-125225604D01*
X260941846Y-128238194D02*
X258457351Y-127710099D01*
X258985447Y-125225604D02*
X252120203Y-157524038D01*
X260413750Y-130722689D02*
X257929255Y-130194594D01*
X252120203Y-157524038D02*
X269511667Y-161220707D01*
D11*
%TO.C,REF\u002A\u002A*%
X263515847Y-157440494D02*
X264742526Y-151669423D01*
X259701072Y-156629639D02*
X260927751Y-150858568D01*
X264742526Y-151669423D02*
X263691018Y-151445918D01*
D10*
%TO.C,\u002A\u002A*%
X273295638Y-168667652D02*
X274097962Y-165774563D01*
X271366912Y-168132769D02*
X273295638Y-168667652D01*
X272169236Y-165239680D02*
X271366912Y-168132769D01*
X274097962Y-165774563D02*
X272169236Y-165239680D01*
%TO.C,RSW1*%
X278708445Y-138299304D02*
X278463908Y-138247326D01*
X279893541Y-132723863D02*
X279649005Y-132671885D01*
X276763469Y-132058546D02*
X275578373Y-137633987D01*
X279893541Y-132723863D02*
X278708445Y-138299304D01*
X275578373Y-137633987D02*
X275822909Y-137685965D01*
X276763469Y-132058546D02*
X277008006Y-132110524D01*
D11*
%TO.C,REF\u002A\u002A*%
X270001565Y-138032614D02*
X268754095Y-143901499D01*
X269708121Y-137970240D02*
X268460651Y-143839126D01*
X270746355Y-132700955D02*
X271988602Y-132965002D01*
X263971677Y-134031495D02*
X263418632Y-136633368D01*
X269825499Y-137995190D02*
X268578028Y-143864075D01*
X269355988Y-137895392D02*
X268108518Y-143764277D01*
X266269600Y-143373404D02*
X265526208Y-143215391D01*
X269942876Y-138020139D02*
X268695406Y-143889025D01*
X269590743Y-137945291D02*
X268343273Y-143814176D01*
X271483850Y-135628257D02*
X261428493Y-133490925D01*
X261300610Y-142317212D02*
X260557218Y-142159199D01*
X264924784Y-133828143D02*
X264842228Y-134216537D01*
X270930805Y-138230130D02*
X271483850Y-135628257D01*
X265526208Y-143215391D02*
X266773678Y-137346505D01*
X268754095Y-143901499D02*
X268010703Y-143743486D01*
X270623221Y-135107952D02*
X270554610Y-135430741D01*
X262548080Y-136448327D02*
X261300610Y-142317212D01*
X261428493Y-133490925D02*
X260875448Y-136092798D01*
X263785105Y-142845308D02*
X263041713Y-142687295D01*
X265668176Y-133986156D02*
X265585620Y-134374550D01*
X268010703Y-143743486D02*
X269258173Y-137874601D01*
X260557218Y-142159199D02*
X261804688Y-136290314D01*
X260875448Y-136092798D02*
X270930805Y-138230130D01*
X266456172Y-134559591D02*
X265903127Y-137161464D01*
X269473365Y-137920341D02*
X268225895Y-143789227D01*
X263183681Y-133458060D02*
X263101126Y-133846454D01*
X269879829Y-134949939D02*
X269811218Y-135272728D01*
X265032575Y-136976422D02*
X263785105Y-142845308D01*
X262440289Y-133300047D02*
X262357733Y-133688441D01*
X267517070Y-137504518D02*
X266269600Y-143373404D01*
X268152671Y-134514251D02*
X268070115Y-134902645D01*
X268940667Y-135087687D02*
X268387622Y-137689559D01*
X263041713Y-142687295D02*
X264289183Y-136818409D01*
X267409279Y-134356238D02*
X267326723Y-134744632D01*
X271988602Y-132965002D02*
X271724554Y-134207250D01*
%TD*%
D12*
%TO.C,\u002A\u002A*%
X270339579Y-163674142D03*
X268982009Y-168569384D03*
%TD*%
D13*
%TO.C,MCU1*%
X259435551Y-129216394D03*
D14*
X258907455Y-131700889D03*
X258379359Y-134185384D03*
X257851264Y-136669879D03*
X257323168Y-139154374D03*
X256795072Y-141638868D03*
X256266976Y-144123363D03*
X255738881Y-146607858D03*
X255210785Y-149092353D03*
X254682689Y-151576848D03*
X254154594Y-154061343D03*
X253626498Y-156545838D03*
X274342520Y-132384968D03*
X273814424Y-134869463D03*
X273286329Y-137353958D03*
X272758233Y-139838453D03*
X272230137Y-142322948D03*
X271702042Y-144807443D03*
X271173946Y-147291938D03*
X270645850Y-149776432D03*
X270117754Y-152260927D03*
X269589659Y-154745422D03*
X269061563Y-157229917D03*
X268533467Y-159714412D03*
%TD*%
D12*
%TO.C,\u002A\u002A*%
X273411222Y-164506045D03*
X272053652Y-169401287D03*
%TD*%
M02*
