M48
; DRILL file {KiCad (6.0.7-1)-1} date Thursday, September 15, 2022 at 11:19:59 AM
; FORMAT={-:-/ absolute / inch / decimal}
; #@! TF.CreationDate,2022-09-15T11:19:59-04:00
; #@! TF.GenerationSoftware,Kicad,Pcbnew,(6.0.7-1)-1
; #@! TF.FileFunction,Plated,1,2,PTH
FMAT,2
INCH
; #@! TA.AperFunction,Plated,PTH,ComponentDrill
T1C0.0320
; #@! TA.AperFunction,Plated,PTH,ComponentDrill
T2C0.0354
; #@! TA.AperFunction,Plated,PTH,ComponentDrill
T3C0.0390
; #@! TA.AperFunction,Plated,PTH,ComponentDrill
T4C0.0394
; #@! TA.AperFunction,Plated,PTH,ComponentDrill
T5C0.0430
; #@! TA.AperFunction,Plated,PTH,ComponentDrill
T6C0.0500
; #@! TA.AperFunction,Plated,PTH,ComponentDrill
T7C0.0512
; #@! TA.AperFunction,Plated,PTH,ComponentDrill
T8C0.1260
%
G90
G05
T1
X10.5898Y-6.6366
X10.6433Y-6.4439
X10.7108Y-6.6693
X10.7642Y-6.4766
T3
X9.7091Y-6.5543
X10.0025Y-6.6167
X10.5355Y-6.7482
X10.8191Y-6.8458
T4
X10.3555Y-5.211
X10.4533Y-5.2318
X10.5511Y-5.2526
X10.6489Y-5.2734
T5
X9.9853Y-6.1632
X10.0061Y-6.0654
X10.0269Y-5.9676
X10.0477Y-5.8698
X10.0685Y-5.772
X10.0893Y-5.6741
X10.11Y-5.5763
X10.1308Y-5.4785
X10.1516Y-5.3807
X10.1724Y-5.2829
X10.1932Y-5.1851
X10.214Y-5.0873
X10.5722Y-6.288
X10.593Y-6.1902
X10.6138Y-6.0923
X10.6346Y-5.9945
X10.6553Y-5.8967
X10.6761Y-5.7989
X10.6969Y-5.7011
X10.7177Y-5.6033
X10.7385Y-5.5055
X10.7593Y-5.4076
X10.7801Y-5.3098
X10.8009Y-5.212
T6
X5.2378Y-5.4247
X5.3078Y-6.0903
X5.3777Y-6.7559
X5.4422Y-5.4863
X5.5122Y-6.1519
X5.5821Y-6.8176
X5.9694Y-5.229
X6.0393Y-5.8946
X6.1093Y-6.5603
X6.1738Y-5.2907
X6.2438Y-5.9563
X6.3137Y-6.6219
X6.8531Y-4.4167
X6.8881Y-5.0851
X6.9232Y-5.7535
X6.9582Y-6.4218
X7.054Y-4.489
X7.089Y-5.1573
X7.1241Y-5.8257
X7.1591Y-6.4941
X7.6692Y-3.8902
X7.6692Y-4.5595
X7.6692Y-5.2288
X7.866Y-3.9729
X7.866Y-4.6422
X7.866Y-5.3115
X8.334Y-6.5487
X8.3923Y-5.882
X8.4507Y-5.2153
X8.509Y-4.5485
X8.5229Y-6.6483
X8.5812Y-5.9815
X8.6396Y-5.3148
X8.6979Y-4.648
X9.0416Y-7.0434
X9.1274Y-6.0629
X9.1857Y-5.3962
X9.2305Y-7.1429
X9.2441Y-4.7294
X9.3163Y-6.1624
X9.3746Y-5.4957
X9.433Y-4.8289
X9.8436Y-7.1365
X10.019Y-7.2583
X10.6283Y-7.3267
X10.7875Y-7.469
T7
X10.9079Y-5.4472
X10.9611Y-5.1968
T8
X6.6223Y-5.0532
X7.4093Y-6.6382
X8.3188Y-6.9768
X9.7823Y-4.2648
X9.9172Y-5.3272
T2
G00X11.0617Y-6.8056
M15
G01X11.0394Y-6.7979
M16
G05
G00X11.0797Y-6.6202
M15
G01X11.0574Y-6.6125
M16
G05
G00X11.2106Y-6.8568
M15
G01X11.1883Y-6.8491
M16
G05
G00X11.3223Y-6.8953
M15
G01X11.3Y-6.8876
M16
G05
T0
M30
